{"glyphs":{"0":{"ha":694,"x_min":42,"x_max":651,"o":"m 344 6 q 181 31 215 13 q 107 119 146 49 q 54 251 69 189 q 42 519 42 313 q 54 731 42 640 q 101 878 67 821 q 203 969 142 940 q 385 1001 267 1000 q 586 893 538 979 q 643 708 635 807 q 651 482 651 611 q 633 244 651 349 q 541 70 617 135 q 344 6 465 6 m 372 921 q 279 892 332 921 q 201 810 229 865 q 176 701 176 760 q 178 635 176 661 l 179 515 l 182 381 q 225 219 186 267 q 294 133 281 153 q 389 94 324 94 q 473 124 429 94 q 549 210 517 154 q 579 342 579 261 l 578 439 q 576 485 576 457 q 579 624 579 590 q 574 746 579 706 q 539 872 563 831 q 467 921 514 917 q 419 924 436 924 q 372 921 406 924 m 390 578 q 461 488 461 578 q 439 445 461 463 q 390 428 417 428 q 342 449 363 428 q 322 508 322 469 q 341 564 322 550 q 390 578 360 578 z "},"1":{"ha":694,"x_min":64,"x_max":646,"o":"m 401 972 q 436 978 419 978 q 460 973 451 978 q 468 960 468 968 q 465 843 468 913 l 464 793 l 456 665 l 456 568 l 460 483 q 463 361 463 439 q 464 293 464 346 q 474 107 464 154 q 639 88 639 100 l 643 28 q 613 0 646 0 q 507 6 554 0 q 429 11 483 8 q 250 3 363 7 l 196 4 q 86 0 147 4 q 65 40 72 0 q 65 46 65 43 q 65 53 64 49 q 82 88 65 83 q 236 115 167 99 q 304 146 304 114 q 306 206 306 168 q 304 285 306 250 l 304 410 q 301 540 306 478 l 300 610 l 301 681 l 306 815 l 142 776 q 89 767 97 767 q 74 774 74 767 q 69 790 69 781 q 72 861 68 844 q 108 888 78 875 q 401 972 244 894 z "},"2":{"ha":694,"x_min":44,"x_max":651,"o":"m 383 1000 q 497 969 447 1000 q 574 890 547 939 q 601 786 601 840 q 588 692 601 736 q 558 620 574 647 q 507 535 543 593 q 377 355 482 493 q 263 207 272 217 q 250 193 256 200 q 251 186 244 186 l 314 185 q 363 186 346 185 q 607 192 536 186 q 644 185 638 194 q 651 165 651 176 q 650 149 650 153 q 649 113 649 131 q 650 83 650 96 l 650 43 q 639 10 650 17 q 596 4 628 4 q 544 3 567 4 l 438 1 q 385 3 397 1 l 165 4 q 90 3 97 4 q 71 1 85 1 q 44 17 44 1 q 51 37 44 26 q 66 56 58 47 q 78 69 74 65 l 147 157 q 304 354 290 338 q 329 383 307 357 q 435 518 392 457 q 511 658 479 579 q 526 736 526 697 q 505 819 526 782 q 450 876 483 856 q 383 897 417 897 q 294 888 329 897 q 215 861 258 879 q 139 789 190 851 q 119 768 122 769 l 113 765 q 106 769 110 765 q 100 774 103 772 q 88 783 94 779 q 76 790 81 786 q 72 799 72 796 q 75 808 71 801 q 143 886 100 843 q 205 931 160 903 q 299 979 250 958 q 383 1000 349 1000 z "},"3":{"ha":694,"x_min":46,"x_max":656,"o":"m 178 981 q 265 986 204 981 q 372 992 332 992 l 524 990 q 567 989 544 989 q 581 976 579 989 q 583 926 583 964 l 582 756 q 574 731 582 740 q 553 710 567 721 q 532 693 540 700 q 386 583 494 667 q 366 566 378 575 q 342 546 354 557 q 328 535 336 542 q 310 522 321 529 q 293 504 293 513 q 297 499 293 499 q 315 499 300 499 q 353 499 331 500 q 434 495 385 499 q 504 489 483 492 q 565 467 531 486 q 627 403 599 449 q 656 281 656 357 q 639 172 656 218 q 624 130 636 165 q 592 67 613 94 q 540 19 571 40 q 454 -22 488 -11 q 278 -40 407 -40 q 171 2 219 -40 q 93 94 122 44 q 53 172 64 143 q 46 194 46 185 q 51 203 46 201 q 57 207 56 206 q 70 215 58 210 q 86 222 82 221 q 93 224 89 224 q 108 204 104 224 q 122 167 111 199 q 158 94 132 135 q 233 30 185 54 q 347 6 282 6 q 434 21 394 6 q 497 49 474 36 q 526 64 521 61 q 563 103 542 74 q 599 178 583 132 q 614 281 614 225 q 551 417 608 369 q 404 451 510 451 q 254 436 361 451 q 192 431 218 431 l 189 431 q 179 439 182 431 q 178 465 178 446 q 182 474 178 469 q 192 484 186 479 q 207 496 199 489 q 312 583 218 507 q 454 699 406 660 q 460 708 460 704 q 418 718 460 718 q 288 715 401 717 q 101 713 174 714 q 83 721 86 713 q 80 742 79 729 q 81 761 81 756 l 82 889 l 81 958 q 114 986 81 986 q 144 983 122 986 q 178 981 167 981 z "},"4":{"ha":694,"x_min":40,"x_max":653,"o":"m 651 367 q 652 363 651 364 q 653 360 653 361 q 649 349 653 353 q 639 344 644 344 l 632 344 q 613 343 625 344 q 583 342 601 342 q 563 333 567 342 q 558 307 558 325 l 558 300 l 557 321 q 553 210 556 321 q 551 49 551 99 l 551 35 q 537 11 551 15 q 508 8 522 7 q 489 8 493 8 q 475 16 478 8 q 472 58 472 24 l 472 125 q 476 179 474 158 q 479 304 479 221 q 472 334 479 326 q 449 342 464 342 l 413 340 q 300 335 349 335 q 269 336 278 335 l 236 338 q 126 333 179 338 l 72 332 q 46 341 51 332 q 40 367 40 350 q 44 399 40 390 q 64 429 47 408 q 122 510 89 460 q 176 583 139 535 q 310 756 228 644 q 391 872 361 828 q 438 940 421 917 l 463 978 q 500 1001 479 1001 l 510 1001 q 522 1004 517 1001 q 547 1001 533 1003 q 565 993 561 1000 q 569 965 569 986 q 567 890 569 949 q 560 458 560 731 q 564 419 560 428 q 579 410 568 410 q 605 412 585 410 q 639 414 625 414 q 648 407 646 414 q 650 386 650 400 q 651 367 650 372 m 483 867 q 485 892 483 879 q 488 918 488 906 l 486 921 l 486 922 q 439 851 482 922 l 407 800 l 315 672 q 221 549 276 618 q 200 524 221 549 q 135 447 174 482 q 116 427 121 435 q 111 407 111 419 q 118 397 111 397 q 130 400 122 397 q 151 403 138 403 q 182 401 171 403 l 222 400 q 272 402 232 400 q 369 404 313 404 l 442 404 q 467 416 460 404 q 476 458 474 428 q 478 563 478 489 l 478 625 l 481 694 l 483 867 z "},"5":{"ha":694,"x_min":50,"x_max":660,"o":"m 157 996 q 263 999 190 996 q 333 1001 313 1001 q 397 1003 350 1003 l 518 1001 q 596 1000 549 1000 q 633 992 624 1000 q 643 968 643 983 l 642 944 l 639 881 l 636 810 q 594 781 636 781 q 554 783 582 781 q 514 785 546 785 q 354 782 465 785 l 253 779 q 201 766 214 779 q 189 728 189 753 l 186 638 q 185 594 186 604 l 185 538 q 244 582 221 571 q 406 624 318 619 q 573 569 511 618 q 651 436 635 521 q 657 336 660 367 q 649 281 656 313 q 631 178 647 271 q 539 15 614 85 q 346 -56 464 -56 q 109 47 161 -56 q 57 219 57 149 q 56 300 57 290 q 53 336 53 314 q 71 375 53 375 l 163 376 q 186 369 182 376 q 190 343 190 363 q 192 317 190 326 q 229 262 196 285 q 321 239 263 239 q 377 252 350 239 q 436 292 404 265 q 472 340 465 318 q 479 411 479 363 q 390 506 468 500 q 294 490 328 501 q 236 458 261 479 q 194 438 210 436 l 67 439 q 53 485 53 439 q 56 525 53 494 q 60 567 60 563 q 54 782 63 600 q 51 863 53 822 q 50 936 50 903 q 67 985 50 972 q 114 999 85 999 q 137 997 126 999 q 157 996 147 996 z "},"6":{"ha":694,"x_min":22,"x_max":671,"o":"m 421 531 q 538 505 481 531 q 633 429 596 479 q 671 308 671 379 q 614 72 671 150 q 487 -26 557 -7 q 333 -46 417 -46 q 199 7 272 -46 q 74 176 126 60 q 22 468 22 292 q 78 758 22 644 q 208 923 133 872 q 343 974 283 974 q 526 898 460 974 q 624 751 593 822 q 629 732 629 738 q 593 690 629 706 q 450 590 571 679 q 431 585 440 585 q 416 592 421 585 q 411 608 411 600 q 403 626 408 613 q 379 651 397 640 q 328 661 361 661 q 284 631 301 661 q 261 558 267 601 q 254 457 254 507 q 293 493 268 478 q 421 531 351 531 m 350 190 q 402 231 383 190 q 421 314 421 271 q 396 364 421 344 q 351 383 371 383 q 295 356 319 383 q 271 292 271 328 q 292 222 271 253 q 350 190 313 190 z "},"7":{"ha":694,"x_min":71,"x_max":694,"o":"m 675 951 q 692 938 689 951 q 694 908 694 925 q 693 883 693 892 q 683 841 693 861 q 640 774 672 821 q 499 574 610 735 l 599 574 q 633 567 626 576 q 640 535 640 558 l 640 431 q 630 408 640 414 q 589 401 619 401 l 519 401 l 469 406 q 428 408 450 408 l 383 407 q 235 164 338 339 l 185 81 q 172 58 179 69 q 156 32 164 46 q 118 -24 125 -19 q 113 -25 117 -25 q 99 -15 108 -25 q 81 0 89 -6 q 71 15 71 6 q 93 57 71 24 q 182 206 97 63 l 222 272 q 304 407 238 304 l 286 407 q 220 404 261 407 q 167 399 179 401 q 151 406 154 399 q 149 431 149 414 l 149 528 q 154 563 149 551 q 175 574 160 574 l 411 574 q 467 660 435 607 q 549 788 504 714 q 594 867 594 861 q 589 871 594 871 q 578 869 585 871 q 563 867 571 867 q 528 869 553 867 q 464 871 504 871 q 285 858 424 871 q 122 840 147 844 q 103 838 108 838 q 79 860 79 838 l 81 894 q 79 914 81 908 l 79 917 q 86 934 79 929 q 106 940 93 939 l 142 942 q 250 946 233 946 q 335 949 271 946 q 436 951 404 951 q 474 950 464 951 q 533 947 504 947 q 639 950 581 947 q 675 951 656 951 z "},"8":{"ha":694,"x_min":28,"x_max":667,"o":"m 506 544 q 586 483 549 522 q 667 281 667 397 q 623 126 667 192 q 504 26 579 61 q 335 -8 429 -8 q 105 60 182 -8 q 28 249 28 129 q 160 476 28 367 q 293 556 218 522 q 279 569 279 569 q 263 586 275 576 q 242 604 250 596 q 202 629 233 610 q 149 692 171 649 q 128 803 128 735 q 167 922 128 874 q 265 994 207 971 q 379 1017 322 1017 q 481 997 425 1017 q 578 931 536 978 q 621 807 621 885 q 563 611 621 703 q 506 544 540 572 m 197 826 q 286 649 197 729 q 378 590 325 614 q 454 636 418 608 q 531 767 531 699 q 488 901 531 851 q 368 951 446 951 q 294 935 335 951 q 226 889 254 918 q 197 826 197 860 m 379 49 q 487 85 438 49 q 565 177 536 122 q 593 281 593 232 q 564 381 593 338 q 490 456 535 425 q 389 507 444 489 q 247 436 310 476 q 147 348 188 400 q 107 236 107 296 q 146 113 107 154 q 242 60 185 72 q 379 49 299 49 z "},"9":{"ha":694,"x_min":29,"x_max":665,"o":"m 347 996 q 535 901 464 996 q 635 686 606 806 q 665 488 665 567 q 611 158 665 251 q 549 60 581 101 q 467 -13 518 18 q 349 -44 417 -44 q 229 -15 281 -44 q 146 53 178 14 q 81 149 114 93 q 60 211 60 185 q 72 242 60 232 q 96 253 85 253 q 124 255 107 253 q 156 257 140 257 q 183 249 172 257 q 207 222 194 240 q 258 174 229 192 q 350 156 288 156 q 434 192 404 156 q 476 286 464 229 q 489 418 492 343 q 432 361 461 386 q 322 304 364 304 q 196 320 257 304 q 82 401 135 336 q 29 599 29 465 q 84 833 29 744 q 213 959 139 922 q 347 996 286 996 m 464 597 q 458 694 464 653 q 417 773 451 736 q 311 810 383 810 q 245 790 279 810 q 188 729 211 769 q 165 632 165 689 q 211 506 165 547 q 314 465 257 465 q 380 485 346 465 q 438 535 414 504 q 464 597 461 567 z "},"\u0000":{"ha":0,"x_min":0,"x_max":0,"o":""},"\r":{"ha":417,"x_min":0,"x_max":0,"o":""}," ":{"ha":417,"x_min":0,"x_max":0,"o":""},"A":{"ha":704,"x_min":25,"x_max":689,"o":"m 685 19 q 689 6 689 10 q 674 0 689 0 l 596 0 q 587 2 590 0 q 581 13 583 4 q 565 63 575 28 q 549 125 553 97 q 535 175 544 146 q 519 219 526 204 q 497 279 507 246 l 485 319 q 474 338 478 335 q 463 342 471 342 q 419 340 433 342 l 360 338 q 257 336 349 336 l 172 336 l 169 336 q 157 321 161 336 l 154 307 l 149 281 q 131 200 146 274 q 117 139 126 176 q 104 93 114 111 q 97 74 101 89 q 90 49 93 58 q 81 13 86 38 q 78 6 79 11 q 74 1 76 1 q 65 0 71 0 l 38 0 q 31 18 25 0 q 32 25 31 22 q 33 32 32 28 q 38 44 35 36 l 50 96 q 60 125 53 104 q 69 164 67 146 q 96 265 76 197 l 107 304 q 140 425 133 390 l 160 499 q 176 557 174 544 q 204 661 186 599 l 214 700 l 222 729 q 246 797 236 776 q 266 855 249 806 q 289 933 283 904 q 309 983 299 967 q 338 1000 319 1000 q 351 988 344 1000 q 365 957 358 975 q 375 931 372 939 q 414 799 386 904 l 425 760 q 471 624 426 749 l 497 547 l 522 482 q 572 349 561 372 q 629 171 621 201 q 660 81 639 135 q 685 19 682 26 m 425 432 q 443 442 443 432 q 433 472 443 449 q 408 550 425 493 q 383 629 396 596 q 353 728 369 671 q 335 801 338 785 q 307 875 314 875 q 293 838 303 875 l 285 807 q 260 713 275 769 q 232 618 244 657 q 209 527 224 582 q 186 451 194 472 q 183 442 183 443 q 192 429 183 432 q 210 427 201 426 q 222 428 219 428 l 303 431 q 350 433 319 433 l 425 432 z "},"Á":{"ha":703,"x_min":25,"x_max":689,"o":"m 515 1119 q 488 1090 511 1104 q 447 1072 465 1076 q 329 1026 381 1051 q 309 1019 324 1025 q 285 1014 294 1014 q 256 1024 271 1014 q 228 1054 228 1033 q 231 1068 228 1057 q 258 1087 232 1075 q 300 1103 285 1099 q 331 1115 308 1108 q 385 1135 353 1121 l 415 1146 q 464 1156 444 1156 l 492 1158 q 517 1135 517 1158 q 515 1119 517 1125 m 685 19 q 689 6 689 10 q 674 0 689 0 l 596 0 q 587 2 590 0 q 581 13 583 4 q 565 63 575 28 q 549 125 553 97 q 535 175 544 146 q 519 219 526 204 q 497 279 507 246 l 485 319 q 474 338 478 335 q 463 342 471 342 q 419 340 433 342 l 360 338 q 257 336 349 336 l 172 336 l 169 336 q 157 321 161 336 l 154 307 l 149 281 q 131 200 146 274 q 117 139 126 176 q 104 93 114 111 q 97 74 101 89 q 90 49 93 58 q 81 13 86 38 q 78 6 79 11 q 74 1 76 1 q 65 0 71 0 l 38 0 q 31 18 25 0 q 32 25 31 22 q 33 32 32 28 q 38 44 35 36 l 50 96 q 60 125 53 104 q 69 164 67 146 q 96 265 76 197 l 107 304 q 140 425 133 390 l 160 499 q 176 557 174 544 q 204 661 186 599 l 214 700 l 222 729 q 246 797 236 776 q 266 855 249 806 q 289 933 283 904 q 309 983 299 967 q 338 1000 319 1000 q 351 988 344 1000 q 365 957 358 975 q 375 931 372 939 q 414 799 386 904 l 425 760 q 471 624 426 749 l 497 547 l 522 482 q 572 349 561 372 q 629 171 621 201 q 660 81 639 135 q 685 19 682 26 m 425 432 q 443 442 443 432 q 433 472 443 449 q 408 550 425 493 q 383 629 396 596 q 353 728 369 671 q 335 801 338 785 q 307 875 314 875 q 293 838 303 875 l 285 807 q 260 713 275 769 q 232 618 244 657 q 209 527 224 582 q 186 451 194 472 q 183 442 183 443 q 192 429 183 432 q 210 427 201 426 q 222 428 219 428 l 303 431 q 350 433 319 433 l 425 432 z "},"Ă":{"ha":704,"x_min":25,"x_max":689,"o":"m 542 1156 q 536 1114 542 1138 q 513 1076 531 1090 q 458 1043 493 1061 q 325 1025 424 1025 q 186 1046 213 1032 q 149 1083 158 1061 q 128 1161 129 1128 q 137 1165 128 1164 q 168 1165 146 1165 q 203 1163 197 1165 q 208 1151 208 1161 q 231 1114 214 1125 q 322 1100 246 1104 q 407 1113 358 1100 q 458 1154 456 1126 q 496 1164 464 1163 q 542 1156 542 1163 m 685 19 q 689 6 689 10 q 674 0 689 0 l 596 0 q 587 2 590 0 q 581 13 583 4 q 565 63 575 28 q 549 125 553 97 q 535 175 544 146 q 519 219 526 204 q 497 279 507 246 l 485 319 q 474 338 478 335 q 463 342 471 342 q 419 340 433 342 l 360 338 q 257 336 349 336 l 172 336 l 169 336 q 157 321 161 336 l 154 307 l 149 281 q 131 200 146 274 q 117 139 126 176 q 104 93 114 111 q 97 74 101 89 q 90 49 93 58 q 81 13 86 38 q 78 6 79 11 q 74 1 76 1 q 65 0 71 0 l 38 0 q 31 18 25 0 q 32 25 31 22 q 33 32 32 28 q 38 44 35 36 l 50 96 q 60 125 53 104 q 69 164 67 146 q 96 265 76 197 l 107 304 q 140 425 133 390 l 160 499 q 176 557 174 544 q 204 661 186 599 l 214 700 l 222 729 q 246 797 236 776 q 266 855 249 806 q 289 933 283 904 q 309 983 299 967 q 338 1000 319 1000 q 351 988 344 1000 q 365 957 358 975 q 375 931 372 939 q 414 799 386 904 l 425 760 q 471 624 426 749 l 497 547 l 522 482 q 572 349 561 372 q 629 171 621 201 q 660 81 639 135 q 685 19 682 26 m 425 432 q 443 442 443 432 q 433 472 443 449 q 408 550 425 493 q 383 629 396 596 q 353 728 369 671 q 335 801 338 785 q 307 875 314 875 q 293 838 303 875 l 285 807 q 260 713 275 769 q 232 618 244 657 q 209 527 224 582 q 186 451 194 472 q 183 442 183 443 q 192 429 183 432 q 210 427 201 426 q 222 428 219 428 l 303 431 q 350 433 319 433 l 425 432 z "},"Â":{"ha":703,"x_min":25,"x_max":689,"o":"m 533 1036 q 511 1015 528 1015 q 474 1025 500 1015 l 436 1035 q 388 1060 413 1044 l 343 1081 l 279 1051 q 200 1022 253 1038 q 147 1018 174 1018 q 123 1025 132 1018 q 114 1040 114 1032 q 124 1057 114 1051 l 161 1081 q 180 1089 165 1082 q 228 1121 194 1096 q 300 1157 283 1153 q 325 1163 313 1163 q 340 1164 331 1164 q 360 1160 351 1164 q 378 1152 369 1157 q 393 1143 386 1147 q 457 1101 433 1115 l 486 1083 q 522 1058 508 1069 q 533 1036 536 1047 m 685 19 q 689 6 689 10 q 674 0 689 0 l 596 0 q 587 2 590 0 q 581 13 583 4 q 565 63 575 28 q 549 125 553 97 q 535 175 544 146 q 519 219 526 204 q 497 279 507 246 l 485 319 q 474 338 478 335 q 463 342 471 342 q 419 340 433 342 l 360 338 q 257 336 349 336 l 172 336 l 169 336 q 157 321 161 336 l 154 307 l 149 281 q 131 200 146 274 q 117 139 126 176 q 104 93 114 111 q 97 74 101 89 q 90 49 93 58 q 81 13 86 38 q 78 6 79 11 q 74 1 76 1 q 65 0 71 0 l 38 0 q 31 18 25 0 q 32 25 31 22 q 33 32 32 28 q 38 44 35 36 l 50 96 q 60 125 53 104 q 69 164 67 146 q 96 265 76 197 l 107 304 q 140 425 133 390 l 160 499 q 176 557 174 544 q 204 661 186 599 l 214 700 l 222 729 q 246 797 236 776 q 266 855 249 806 q 289 933 283 904 q 309 983 299 967 q 338 1000 319 1000 q 351 988 344 1000 q 365 957 358 975 q 375 931 372 939 q 414 799 386 904 l 425 760 q 471 624 426 749 l 497 547 l 522 482 q 572 349 561 372 q 629 171 621 201 q 660 81 639 135 q 685 19 682 26 m 425 432 q 443 442 443 432 q 433 472 443 449 q 408 550 425 493 q 383 629 396 596 q 353 728 369 671 q 335 801 338 785 q 307 875 314 875 q 293 838 303 875 l 285 807 q 260 713 275 769 q 232 618 244 657 q 209 527 224 582 q 186 451 194 472 q 183 442 183 443 q 192 429 183 432 q 210 427 201 426 q 222 428 219 428 l 303 431 q 350 433 319 433 l 425 432 z "},"Ä":{"ha":703,"x_min":25,"x_max":689,"o":"m 425 1081 q 456 1149 425 1131 q 528 1167 488 1167 q 571 1141 554 1167 q 588 1081 588 1115 q 565 1028 588 1050 q 500 1006 542 1006 q 442 1028 460 1006 q 425 1081 425 1050 m 274 1086 q 245 1024 274 1047 q 188 1000 217 1000 q 132 1022 157 1000 q 107 1081 107 1044 q 128 1133 107 1110 q 182 1157 150 1157 q 246 1138 218 1157 q 274 1086 274 1119 m 685 19 q 689 6 689 10 q 674 0 689 0 l 596 0 q 587 2 590 0 q 581 13 583 4 q 565 63 575 28 q 549 125 553 97 q 535 175 544 146 q 519 219 526 204 q 497 279 507 246 l 485 319 q 474 338 478 335 q 463 342 471 342 q 419 340 433 342 l 360 338 q 257 336 349 336 l 172 336 l 169 336 q 157 321 161 336 l 154 307 l 149 281 q 131 200 146 274 q 117 139 126 176 q 104 93 114 111 q 97 74 101 89 q 90 49 93 58 q 81 13 86 38 q 78 6 79 11 q 74 1 76 1 q 65 0 71 0 l 38 0 q 31 18 25 0 q 32 25 31 22 q 33 32 32 28 q 38 44 35 36 l 50 96 q 60 125 53 104 q 69 164 67 146 q 96 265 76 197 l 107 304 q 140 425 133 390 l 160 499 q 176 557 174 544 q 204 661 186 599 l 214 700 l 222 729 q 246 797 236 776 q 266 855 249 806 q 289 933 283 904 q 309 983 299 967 q 338 1000 319 1000 q 351 988 344 1000 q 365 957 358 975 q 375 931 372 939 q 414 799 386 904 l 425 760 q 471 624 426 749 l 497 547 l 522 482 q 572 349 561 372 q 629 171 621 201 q 660 81 639 135 q 685 19 682 26 m 425 432 q 443 442 443 432 q 433 472 443 449 q 408 550 425 493 q 383 629 396 596 q 353 728 369 671 q 335 801 338 785 q 307 875 314 875 q 293 838 303 875 l 285 807 q 260 713 275 769 q 232 618 244 657 q 209 527 224 582 q 186 451 194 472 q 183 442 183 443 q 192 429 183 432 q 210 427 201 426 q 222 428 219 428 l 303 431 q 350 433 319 433 l 425 432 z "},"À":{"ha":703,"x_min":25,"x_max":689,"o":"m 451 1076 q 454 1058 454 1063 q 428 1036 454 1036 q 401 1039 421 1036 q 353 1044 386 1038 l 322 1056 q 267 1075 290 1069 q 236 1085 244 1081 q 194 1100 218 1090 q 167 1117 169 1110 q 163 1132 163 1125 q 189 1163 163 1151 q 219 1174 208 1174 q 242 1169 229 1174 q 263 1163 256 1164 q 324 1138 301 1146 q 382 1122 347 1131 q 404 1113 388 1119 q 435 1098 421 1107 q 451 1076 449 1089 m 685 19 q 689 6 689 10 q 674 0 689 0 l 596 0 q 587 2 590 0 q 581 13 583 4 q 565 63 575 28 q 549 125 553 97 q 535 175 544 146 q 519 219 526 204 q 497 279 507 246 l 485 319 q 474 338 478 335 q 463 342 471 342 q 419 340 433 342 l 360 338 q 257 336 349 336 l 172 336 l 169 336 q 157 321 161 336 l 154 307 l 149 281 q 131 200 146 274 q 117 139 126 176 q 104 93 114 111 q 97 74 101 89 q 90 49 93 58 q 81 13 86 38 q 78 6 79 11 q 74 1 76 1 q 65 0 71 0 l 38 0 q 31 18 25 0 q 32 25 31 22 q 33 32 32 28 q 38 44 35 36 l 50 96 q 60 125 53 104 q 69 164 67 146 q 96 265 76 197 l 107 304 q 140 425 133 390 l 160 499 q 176 557 174 544 q 204 661 186 599 l 214 700 l 222 729 q 246 797 236 776 q 266 855 249 806 q 289 933 283 904 q 309 983 299 967 q 338 1000 319 1000 q 351 988 344 1000 q 365 957 358 975 q 375 931 372 939 q 414 799 386 904 l 425 760 q 471 624 426 749 l 497 547 l 522 482 q 572 349 561 372 q 629 171 621 201 q 660 81 639 135 q 685 19 682 26 m 425 432 q 443 442 443 432 q 433 472 443 449 q 408 550 425 493 q 383 629 396 596 q 353 728 369 671 q 335 801 338 785 q 307 875 314 875 q 293 838 303 875 l 285 807 q 260 713 275 769 q 232 618 244 657 q 209 527 224 582 q 186 451 194 472 q 183 442 183 443 q 192 429 183 432 q 210 427 201 426 q 222 428 219 428 l 303 431 q 350 433 319 433 l 425 432 z "},"Ā":{"ha":704,"x_min":25,"x_max":689,"o":"m 526 1156 q 539 1150 536 1156 q 542 1132 542 1144 l 542 1090 q 536 1076 542 1081 q 511 1072 531 1072 l 461 1074 q 394 1076 414 1076 l 211 1076 q 140 1072 147 1076 q 131 1076 133 1072 q 129 1090 129 1081 l 129 1128 q 133 1148 129 1142 q 144 1154 136 1154 l 517 1154 l 526 1156 m 685 19 q 689 6 689 10 q 674 0 689 0 l 596 0 q 587 2 590 0 q 581 13 583 4 q 565 63 575 28 q 549 125 553 97 q 535 175 544 146 q 519 219 526 204 q 497 279 507 246 l 485 319 q 474 338 478 335 q 463 342 471 342 q 419 340 433 342 l 360 338 q 257 336 349 336 l 172 336 l 169 336 q 157 321 161 336 l 154 307 l 149 281 q 131 200 146 274 q 117 139 126 176 q 104 93 114 111 q 97 74 101 89 q 90 49 93 58 q 81 13 86 38 q 78 6 79 11 q 74 1 76 1 q 65 0 71 0 l 38 0 q 31 18 25 0 q 32 25 31 22 q 33 32 32 28 q 38 44 35 36 l 50 96 q 60 125 53 104 q 69 164 67 146 q 96 265 76 197 l 107 304 q 140 425 133 390 l 160 499 q 176 557 174 544 q 204 661 186 599 l 214 700 l 222 729 q 246 797 236 776 q 266 855 249 806 q 289 933 283 904 q 309 983 299 967 q 338 1000 319 1000 q 351 988 344 1000 q 365 957 358 975 q 375 931 372 939 q 414 799 386 904 l 425 760 q 471 624 426 749 l 497 547 l 522 482 q 572 349 561 372 q 629 171 621 201 q 660 81 639 135 q 685 19 682 26 m 425 432 q 443 442 443 432 q 433 472 443 449 q 408 550 425 493 q 383 629 396 596 q 353 728 369 671 q 335 801 338 785 q 307 875 314 875 q 293 838 303 875 l 285 807 q 260 713 275 769 q 232 618 244 657 q 209 527 224 582 q 186 451 194 472 q 183 442 183 443 q 192 429 183 432 q 210 427 201 426 q 222 428 219 428 l 303 431 q 350 433 319 433 l 425 432 z "},"Ą":{"ha":704,"x_min":25,"x_max":807,"o":"m 779 -103 q 797 -115 788 -103 q 807 -137 807 -128 q 781 -178 807 -156 q 718 -219 754 -201 q 657 -237 682 -236 q 574 -215 601 -239 q 543 -126 546 -192 q 556 -62 543 -100 q 575 -11 564 -36 l 583 6 l 581 13 q 565 63 575 28 q 549 125 553 97 q 535 175 544 146 q 519 219 526 204 q 497 279 507 246 l 485 319 q 474 338 478 335 q 463 342 471 342 q 419 340 433 342 l 360 338 q 257 336 349 336 l 172 336 l 169 336 q 157 321 161 336 l 154 307 l 149 281 q 131 200 146 274 q 117 139 126 176 q 104 93 114 111 q 97 74 101 89 q 90 49 93 58 q 81 13 86 38 q 78 6 79 11 q 74 1 76 1 q 65 0 71 0 l 38 0 q 31 18 25 0 q 32 25 31 22 q 33 32 32 28 q 38 44 35 36 l 50 96 q 60 125 53 104 q 69 164 67 146 q 96 265 76 197 l 107 304 q 140 425 133 390 l 160 499 q 176 557 174 544 q 204 661 186 599 l 214 700 l 222 729 q 246 797 236 776 q 266 855 249 806 q 289 933 283 904 q 309 983 299 967 q 338 1000 319 1000 q 351 988 344 1000 q 365 957 358 975 q 375 931 372 939 q 414 799 386 904 l 425 760 q 471 624 426 749 l 497 547 l 522 482 q 572 349 561 372 q 629 171 621 201 q 660 81 639 135 q 685 19 682 26 q 689 6 689 10 q 674 0 689 0 l 650 0 q 647 -23 650 -7 q 643 -53 644 -39 q 642 -78 642 -61 q 669 -135 642 -133 q 731 -130 710 -137 q 764 -112 751 -122 q 779 -103 776 -103 m 425 432 q 443 442 443 432 q 433 472 443 449 q 408 550 425 493 q 383 629 396 596 q 353 728 369 671 q 335 801 338 785 q 307 875 314 875 q 293 838 303 875 l 285 807 q 260 713 275 769 q 232 618 244 657 q 209 527 224 582 q 186 451 194 472 q 183 442 183 443 q 192 429 183 432 q 210 427 201 426 q 222 428 219 428 l 303 431 q 350 433 319 433 l 425 432 z "},"Å":{"ha":703,"x_min":25,"x_max":689,"o":"m 685 19 q 689 6 689 10 q 674 0 689 0 l 596 0 q 587 2 590 0 q 581 13 583 4 q 565 63 575 28 q 549 125 553 97 q 535 175 544 146 q 519 219 526 204 q 497 279 507 246 l 485 319 q 474 338 478 335 q 463 342 471 342 q 419 340 433 342 l 360 338 q 257 336 349 336 l 172 336 l 169 336 q 157 321 161 336 l 154 307 l 149 281 q 131 200 146 274 q 117 139 126 176 q 104 93 114 111 q 97 74 101 89 q 90 49 93 58 q 81 13 86 38 q 78 6 79 11 q 74 1 76 1 q 65 0 71 0 l 38 0 q 31 18 25 0 q 32 25 31 22 q 33 32 32 28 q 38 44 35 36 l 50 96 q 60 125 53 104 q 69 164 67 146 q 96 265 76 197 l 107 304 q 140 425 133 390 l 160 499 q 176 557 174 544 q 204 661 186 599 l 214 700 l 222 729 q 246 797 236 776 q 266 855 249 806 q 289 933 283 904 q 304 975 294 956 q 261 1010 278 988 q 244 1061 244 1033 q 258 1114 246 1088 q 290 1152 268 1138 q 344 1167 311 1167 q 431 1132 408 1167 q 453 1067 453 1097 q 438 1019 453 1049 q 393 974 424 989 q 361 967 383 969 l 375 931 q 414 799 386 904 l 425 760 q 471 624 426 749 l 497 547 l 522 482 q 572 349 561 372 q 629 171 621 201 q 660 81 639 135 q 685 19 682 26 m 351 1097 q 323 1088 333 1097 q 313 1067 313 1079 q 323 1045 313 1054 q 347 1036 333 1036 l 363 1038 q 375 1044 364 1039 q 386 1067 386 1050 q 376 1088 386 1078 q 351 1097 367 1097 m 425 432 q 443 442 443 432 q 433 472 443 449 q 408 550 425 493 q 383 629 396 596 q 353 728 369 671 q 335 801 338 785 q 307 875 314 875 q 293 838 303 875 l 285 807 q 260 713 275 769 q 232 618 244 657 q 209 527 224 582 q 186 451 194 472 q 183 442 183 443 q 192 429 183 432 q 210 427 201 426 q 222 428 219 428 l 303 431 q 350 433 319 433 l 425 432 z "},"Ǻ":{"ha":704,"x_min":25,"x_max":689,"o":"m 685 19 q 689 6 689 10 q 674 0 689 0 l 596 0 q 587 2 590 0 q 581 13 583 4 q 565 63 575 28 q 549 125 553 97 q 535 175 544 146 q 519 219 526 204 q 497 279 507 246 l 485 319 q 474 338 478 335 q 463 342 471 342 q 419 340 433 342 l 360 338 q 257 336 349 336 l 172 336 l 169 336 q 157 321 161 336 l 154 307 l 149 281 q 131 200 146 274 q 117 139 126 176 q 104 93 114 111 q 97 74 101 89 q 90 49 93 58 q 81 13 86 38 q 78 6 79 11 q 74 1 76 1 q 65 0 71 0 l 38 0 q 31 18 25 0 q 32 25 31 22 q 33 32 32 28 q 38 44 35 36 l 50 96 q 60 125 53 104 q 69 164 67 146 q 96 265 76 197 l 107 304 q 140 425 133 390 l 160 499 q 176 557 174 544 q 204 661 186 599 l 214 700 l 222 729 q 246 797 236 776 q 266 855 249 806 q 289 933 283 904 q 301 969 296 957 q 249 1003 271 978 q 228 1061 228 1029 q 231 1079 228 1068 l 222 1078 q 193 1088 213 1078 q 165 1118 165 1097 q 168 1132 165 1121 q 196 1151 169 1139 q 238 1167 222 1163 q 268 1178 246 1172 q 322 1199 290 1185 l 353 1210 q 401 1219 382 1219 l 429 1222 q 454 1199 454 1222 q 453 1183 454 1189 q 403 1143 446 1161 q 429 1104 422 1126 q 436 1067 436 1082 q 422 1019 436 1049 q 376 974 407 989 q 360 968 371 971 q 368 949 364 961 q 375 931 372 938 q 414 799 386 904 l 425 760 q 471 624 426 749 l 497 547 l 522 482 q 572 349 561 372 q 629 171 621 201 q 660 81 639 135 q 685 19 682 26 m 335 1097 q 306 1088 317 1097 q 296 1067 296 1079 q 306 1045 296 1054 q 331 1036 317 1036 l 346 1038 q 358 1044 347 1039 q 369 1067 369 1050 q 360 1088 369 1078 q 335 1097 350 1097 m 425 432 q 443 442 443 432 q 433 472 443 449 q 408 550 425 493 q 383 629 396 596 q 353 728 369 671 q 335 801 338 785 q 307 875 314 875 q 293 838 303 875 l 285 807 q 260 713 275 769 q 232 618 244 657 q 209 527 224 582 q 186 451 194 472 q 183 442 183 443 q 192 429 183 432 q 210 427 201 426 q 222 428 219 428 l 303 431 q 350 433 319 433 l 425 432 z "},"Ã":{"ha":703,"x_min":25,"x_max":689,"o":"m 174 1131 q 235 1136 206 1131 q 274 1143 264 1142 q 439 1154 336 1154 q 528 1149 493 1154 q 562 1140 556 1147 q 568 1126 568 1133 q 568 1114 568 1118 l 568 1093 q 536 1071 568 1071 q 514 1074 526 1071 q 496 1078 501 1076 q 444 1088 467 1088 q 386 1083 414 1086 q 349 1079 358 1081 q 299 1072 319 1074 q 254 1067 269 1069 q 174 1061 207 1061 q 82 1093 82 1061 l 82 1111 q 85 1143 82 1133 q 94 1150 86 1150 q 125 1142 100 1150 q 174 1131 150 1135 m 685 19 q 689 6 689 10 q 674 0 689 0 l 596 0 q 587 2 590 0 q 581 13 583 4 q 565 63 575 28 q 549 125 553 97 q 535 175 544 146 q 519 219 526 204 q 497 279 507 246 l 485 319 q 474 338 478 335 q 463 342 471 342 q 419 340 433 342 l 360 338 q 257 336 349 336 l 172 336 l 169 336 q 157 321 161 336 l 154 307 l 149 281 q 131 200 146 274 q 117 139 126 176 q 104 93 114 111 q 97 74 101 89 q 90 49 93 58 q 81 13 86 38 q 78 6 79 11 q 74 1 76 1 q 65 0 71 0 l 38 0 q 31 18 25 0 q 32 25 31 22 q 33 32 32 28 q 38 44 35 36 l 50 96 q 60 125 53 104 q 69 164 67 146 q 96 265 76 197 l 107 304 q 140 425 133 390 l 160 499 q 176 557 174 544 q 204 661 186 599 l 214 700 l 222 729 q 246 797 236 776 q 266 855 249 806 q 289 933 283 904 q 309 983 299 967 q 338 1000 319 1000 q 351 988 344 1000 q 365 957 358 975 q 375 931 372 939 q 414 799 386 904 l 425 760 q 471 624 426 749 l 497 547 l 522 482 q 572 349 561 372 q 629 171 621 201 q 660 81 639 135 q 685 19 682 26 m 425 432 q 443 442 443 432 q 433 472 443 449 q 408 550 425 493 q 383 629 396 596 q 353 728 369 671 q 335 801 338 785 q 307 875 314 875 q 293 838 303 875 l 285 807 q 260 713 275 769 q 232 618 244 657 q 209 527 224 582 q 186 451 194 472 q 183 442 183 443 q 192 429 183 432 q 210 427 201 426 q 222 428 219 428 l 303 431 q 350 433 319 433 l 425 432 z "},"Æ":{"ha":1231,"x_min":31,"x_max":1163,"o":"m 1072 842 q 1071 778 1072 796 q 1056 756 1072 756 q 1038 759 1049 756 q 1024 764 1028 763 q 901 768 1001 768 l 849 769 q 796 771 831 771 q 758 769 771 771 q 717 768 746 768 l 611 768 q 599 758 599 768 l 601 740 q 608 656 601 715 l 613 607 l 622 525 q 629 481 624 513 q 667 479 640 479 q 710 478 679 478 l 764 478 q 853 481 794 478 q 911 483 897 483 q 950 481 931 483 q 979 479 969 479 l 993 481 q 1013 447 1013 481 l 1013 419 q 1010 390 1010 394 q 1011 372 1010 382 q 1013 346 1013 361 l 1013 338 q 1003 324 1013 324 q 991 326 997 324 q 976 328 985 328 q 930 329 964 328 q 838 331 896 331 q 730 325 775 331 q 675 319 685 319 q 657 321 660 319 q 649 322 650 321 l 665 183 q 681 185 675 183 l 719 186 l 882 188 q 963 186 932 188 l 1058 185 q 1110 186 1097 185 q 1146 178 1136 188 q 1160 149 1156 169 l 1160 32 q 1153 5 1163 10 q 1126 1 1144 0 q 1097 1 1108 1 q 994 3 1038 1 l 851 4 q 792 3 815 4 l 596 0 q 588 2 590 0 q 583 13 585 4 q 578 63 581 29 l 574 93 q 568 146 574 111 q 558 229 567 169 l 550 319 q 543 338 546 335 q 532 342 540 342 q 489 340 503 342 l 429 338 q 389 336 422 336 l 240 336 l 238 336 q 222 321 231 336 l 217 307 l 206 281 l 175 211 q 144 139 151 149 q 124 93 133 107 q 114 75 121 90 q 101 49 107 60 l 85 13 q 78 2 81 4 q 67 0 75 0 l 39 0 q 31 6 31 0 q 36 18 31 7 l 39 25 l 49 44 q 60 73 54 60 q 71 96 67 86 q 86 126 75 106 q 104 164 97 147 q 150 265 110 182 q 226 425 208 379 q 249 475 238 451 q 271 519 261 499 q 282 541 278 532 q 290 557 286 550 l 357 700 l 369 725 q 408 797 389 764 q 423 823 413 804 q 442 858 433 842 l 463 899 l 479 933 q 509 983 494 967 q 542 1000 524 1000 q 556 979 551 1000 q 557 971 556 974 l 585 968 q 656 967 600 967 q 706 968 688 967 l 761 972 q 863 979 824 979 q 968 975 919 979 l 1018 974 q 1053 972 1043 974 q 1069 935 1068 972 l 1071 886 q 1072 842 1072 872 m 514 432 q 533 444 533 432 q 532 457 533 450 q 529 472 531 464 q 526 502 528 479 q 522 544 525 525 l 517 590 q 511 629 517 590 q 503 721 507 671 q 499 801 500 771 l 494 831 q 491 856 493 838 q 486 875 489 875 q 469 846 482 875 q 450 807 456 817 l 431 769 l 410 724 q 381 665 394 693 q 358 618 368 638 q 278 451 294 478 q 274 439 274 443 q 281 428 274 431 q 298 427 289 426 q 310 428 307 428 l 325 428 q 362 429 344 428 q 390 431 379 431 q 414 432 396 432 l 514 432 z "},"Ǽ":{"ha":1231,"x_min":31,"x_max":1163,"o":"m 825 1126 q 798 1097 821 1111 q 757 1079 775 1083 q 639 1033 690 1058 q 619 1026 633 1032 q 594 1021 604 1021 q 565 1031 581 1021 q 538 1061 538 1040 q 540 1075 538 1064 q 568 1094 542 1082 q 610 1110 594 1106 q 640 1122 618 1115 q 694 1142 663 1128 l 725 1153 q 774 1163 754 1163 l 801 1165 q 826 1142 826 1165 q 825 1126 826 1132 m 1072 842 q 1071 778 1072 796 q 1056 756 1072 756 q 1038 759 1049 756 q 1024 764 1028 763 q 901 768 1001 768 l 849 769 q 796 771 831 771 q 758 769 771 771 q 717 768 746 768 l 611 768 q 599 758 599 768 l 601 740 q 608 656 601 715 l 613 607 l 622 525 q 629 481 624 513 q 667 479 640 479 q 710 478 679 478 l 764 478 q 853 481 794 478 q 911 483 897 483 q 950 481 931 483 q 979 479 969 479 l 993 481 q 1013 447 1013 481 l 1013 419 q 1010 390 1010 394 q 1011 372 1010 382 q 1013 346 1013 361 l 1013 338 q 1003 324 1013 324 q 991 326 997 324 q 976 328 985 328 q 930 329 964 328 q 838 331 896 331 q 730 325 775 331 q 675 319 685 319 q 657 321 660 319 q 649 322 650 321 l 665 183 q 681 185 675 183 l 719 186 l 882 188 q 963 186 932 188 l 1058 185 q 1110 186 1097 185 q 1146 178 1136 188 q 1160 149 1156 169 l 1160 32 q 1153 5 1163 10 q 1126 1 1144 0 q 1097 1 1108 1 q 994 3 1038 1 l 851 4 q 792 3 815 4 l 596 0 q 588 2 590 0 q 583 13 585 4 q 578 63 581 29 l 574 93 q 568 146 574 111 q 558 229 567 169 l 550 319 q 543 338 546 335 q 532 342 540 342 q 489 340 503 342 l 429 338 q 389 336 422 336 l 240 336 l 238 336 q 222 321 231 336 l 217 307 l 206 281 l 175 211 q 144 139 151 149 q 124 93 133 107 q 114 75 121 90 q 101 49 107 60 l 85 13 q 78 2 81 4 q 67 0 75 0 l 39 0 q 31 6 31 0 q 36 18 31 7 l 39 25 l 49 44 q 60 73 54 60 q 71 96 67 86 q 86 126 75 106 q 104 164 97 147 q 150 265 110 182 q 226 425 208 379 q 249 475 238 451 q 271 519 261 499 q 282 541 278 532 q 290 557 286 550 l 357 700 l 369 725 q 408 797 389 764 q 423 823 413 804 q 442 858 433 842 l 463 899 l 479 933 q 509 983 494 967 q 542 1000 524 1000 q 556 979 551 1000 q 557 971 556 974 l 585 968 q 656 967 600 967 q 706 968 688 967 l 761 972 q 863 979 824 979 q 968 975 919 979 l 1018 974 q 1053 972 1043 974 q 1069 935 1068 972 l 1071 886 q 1072 842 1072 872 m 514 432 q 533 444 533 432 q 532 457 533 450 q 529 472 531 464 q 526 502 528 479 q 522 544 525 525 l 517 590 q 511 629 517 590 q 503 721 507 671 q 499 801 500 771 l 494 831 q 491 856 493 838 q 486 875 489 875 q 469 846 482 875 q 450 807 456 817 l 431 769 l 410 724 q 381 665 394 693 q 358 618 368 638 q 278 451 294 478 q 274 439 274 443 q 281 428 274 431 q 298 427 289 426 q 310 428 307 428 l 325 428 q 362 429 344 428 q 390 431 379 431 q 414 432 396 432 l 514 432 z "},"B":{"ha":711,"x_min":86,"x_max":671,"o":"m 419 483 q 585 385 500 454 q 671 181 671 317 q 608 51 671 92 q 480 2 544 10 q 344 -6 415 -6 l 210 -8 l 125 -10 q 94 4 103 -10 q 86 43 86 18 l 88 351 l 88 418 q 92 514 88 471 l 96 683 q 97 770 96 713 q 100 843 99 828 q 101 882 101 854 q 97 951 101 931 q 96 958 96 954 q 111 971 96 967 q 185 983 125 975 q 293 990 244 990 q 502 938 425 990 q 579 738 579 885 q 499 529 579 604 q 419 483 463 499 m 268 554 q 267 530 268 540 q 265 514 265 519 q 267 503 265 506 q 275 501 268 501 q 361 517 303 501 q 474 582 419 532 q 528 726 528 632 q 493 875 528 826 q 406 937 458 924 q 274 950 354 950 l 271 861 q 268 713 268 761 l 268 554 m 311 21 q 515 65 447 21 q 583 182 583 108 q 424 435 583 368 q 264 460 353 461 q 263 449 263 456 q 261 417 261 442 l 264 328 l 267 253 q 265 225 267 233 l 264 189 l 267 107 l 269 43 q 276 23 269 26 q 294 20 282 19 q 311 21 306 21 z "},"C":{"ha":733,"x_min":51,"x_max":688,"o":"m 382 756 q 313 726 347 756 q 256 630 279 697 q 232 457 232 563 q 262 294 232 354 q 330 210 292 233 q 396 186 368 186 q 447 203 421 186 q 493 240 474 221 q 502 250 496 243 q 514 257 508 257 q 531 251 521 257 l 649 186 q 666 178 654 183 q 683 169 678 174 q 688 158 688 165 q 683 143 688 151 q 588 38 653 92 q 407 -17 522 -17 q 234 51 317 -17 q 101 235 151 118 q 51 492 51 351 q 99 742 51 631 q 222 915 147 853 q 376 978 297 978 q 535 937 475 978 q 622 858 596 896 q 633 843 628 850 q 638 829 638 836 q 622 807 638 821 q 531 719 558 757 q 507 692 517 701 q 488 683 497 683 q 465 697 478 683 q 420 742 436 729 q 382 756 404 756 z "},"Ć":{"ha":733,"x_min":51,"x_max":688,"o":"m 557 1126 q 530 1097 553 1111 q 489 1079 507 1083 q 371 1033 422 1058 q 351 1026 365 1032 q 326 1021 336 1021 q 297 1031 313 1021 q 269 1061 269 1040 q 272 1075 269 1064 q 300 1094 274 1082 q 342 1110 326 1106 q 372 1122 350 1115 q 426 1142 394 1128 l 457 1153 q 506 1163 486 1163 l 533 1165 q 558 1142 558 1165 q 557 1126 558 1132 m 382 756 q 313 726 347 756 q 256 630 279 697 q 232 457 232 563 q 262 294 232 354 q 330 210 292 233 q 396 186 368 186 q 447 203 421 186 q 493 240 474 221 q 502 250 496 243 q 514 257 508 257 q 531 251 521 257 l 649 186 q 666 178 654 183 q 683 169 678 174 q 688 158 688 165 q 683 143 688 151 q 588 38 653 92 q 407 -17 522 -17 q 234 51 317 -17 q 101 235 151 118 q 51 492 51 351 q 99 742 51 631 q 222 915 147 853 q 376 978 297 978 q 535 937 475 978 q 622 858 596 896 q 633 843 628 850 q 638 829 638 836 q 622 807 638 821 q 531 719 558 757 q 507 692 517 701 q 488 683 497 683 q 465 697 478 683 q 420 742 436 729 q 382 756 404 756 z "},"Č":{"ha":733,"x_min":51,"x_max":688,"o":"m 204 1143 q 226 1164 210 1164 q 264 1154 238 1164 l 301 1144 q 350 1119 325 1135 l 394 1099 q 457 1128 442 1119 q 538 1157 486 1142 q 590 1161 565 1161 q 615 1155 606 1161 q 624 1139 624 1149 q 613 1122 624 1129 l 576 1099 q 558 1090 572 1097 q 510 1058 543 1083 q 438 1022 454 1026 q 413 1017 425 1017 q 397 1015 407 1015 q 377 1019 386 1015 q 360 1027 368 1022 q 344 1036 351 1032 q 281 1078 304 1063 l 251 1096 q 215 1121 229 1110 q 204 1143 201 1132 m 382 756 q 313 726 347 756 q 256 630 279 697 q 232 457 232 563 q 262 294 232 354 q 330 210 292 233 q 396 186 368 186 q 447 203 421 186 q 493 240 474 221 q 502 250 496 243 q 514 257 508 257 q 531 251 521 257 l 649 186 q 666 178 654 183 q 683 169 678 174 q 688 158 688 165 q 683 143 688 151 q 588 38 653 92 q 407 -17 522 -17 q 234 51 317 -17 q 101 235 151 118 q 51 492 51 351 q 99 742 51 631 q 222 915 147 853 q 376 978 297 978 q 535 937 475 978 q 622 858 596 896 q 633 843 628 850 q 638 829 638 836 q 622 807 638 821 q 531 719 558 757 q 507 692 517 701 q 488 683 497 683 q 465 697 478 683 q 420 742 436 729 q 382 756 404 756 z "},"Ç":{"ha":707,"x_min":51,"x_max":688,"o":"m 649 228 q 666 220 654 225 q 683 211 678 215 q 688 200 688 207 q 683 185 688 193 q 588 79 653 133 q 407 25 522 25 q 379 26 388 25 q 347 -31 354 -7 q 373 -20 363 -22 q 414 -18 383 -18 q 500 -115 500 -18 q 488 -159 499 -144 q 457 -190 476 -174 q 436 -206 450 -197 q 405 -216 419 -212 q 349 -219 390 -219 q 285 -212 314 -219 q 256 -193 256 -204 q 267 -125 256 -176 q 271 -119 267 -119 q 284 -126 274 -119 q 304 -137 294 -132 q 357 -146 332 -146 q 399 -138 389 -143 q 414 -110 408 -133 q 381 -64 414 -64 q 353 -74 368 -64 q 335 -83 339 -83 q 301 -81 310 -83 q 292 -72 293 -79 q 295 -43 292 -56 q 301 -22 299 -31 q 321 42 304 -1 q 161 171 231 75 q 81 332 111 239 q 51 519 51 425 q 81 690 51 600 q 156 843 110 779 q 260 942 201 907 q 376 978 318 978 q 535 937 475 978 q 622 858 596 896 q 633 843 628 850 q 638 829 638 836 q 622 807 638 821 q 531 719 558 757 q 507 692 517 701 q 488 683 497 683 q 465 697 478 683 q 420 742 436 729 q 382 756 404 756 q 283 692 328 756 q 247 599 261 657 q 232 485 232 542 q 263 335 232 394 q 332 250 293 276 q 396 228 371 224 q 447 245 421 228 q 493 282 474 263 q 502 292 496 285 q 514 299 508 299 q 531 293 521 299 l 649 228 z "},"Ĉ":{"ha":733,"x_min":51,"x_max":688,"o":"m 608 1036 q 586 1015 603 1015 q 549 1025 575 1015 l 511 1035 q 463 1060 488 1044 l 418 1081 l 354 1051 q 275 1022 328 1038 q 222 1018 247 1018 q 198 1025 207 1018 q 189 1040 189 1032 q 199 1057 189 1051 l 236 1081 q 255 1089 240 1082 q 303 1121 269 1096 q 375 1157 358 1153 q 400 1163 388 1163 q 415 1164 406 1164 q 435 1160 426 1164 q 453 1152 444 1157 q 468 1143 461 1147 q 532 1101 508 1115 l 561 1083 q 597 1058 583 1069 q 608 1036 611 1047 m 382 756 q 313 726 347 756 q 256 630 279 697 q 232 457 232 563 q 262 294 232 354 q 330 210 292 233 q 396 186 368 186 q 447 203 421 186 q 493 240 474 221 q 502 250 496 243 q 514 257 508 257 q 531 251 521 257 l 649 186 q 666 178 654 183 q 683 169 678 174 q 688 158 688 165 q 683 143 688 151 q 588 38 653 92 q 407 -17 522 -17 q 234 51 317 -17 q 101 235 151 118 q 51 492 51 351 q 99 742 51 631 q 222 915 147 853 q 376 978 297 978 q 535 937 475 978 q 622 858 596 896 q 633 843 628 850 q 638 829 638 836 q 622 807 638 821 q 531 719 558 757 q 507 692 517 701 q 488 683 497 683 q 465 697 478 683 q 420 742 436 729 q 382 756 404 756 z "},"Ċ":{"ha":733,"x_min":51,"x_max":688,"o":"m 496 1092 q 466 1025 496 1050 q 404 1000 436 1000 q 346 1024 372 1000 q 319 1085 319 1049 q 343 1141 319 1115 q 399 1167 367 1167 q 466 1147 436 1167 q 496 1092 496 1126 m 382 756 q 313 726 347 756 q 256 630 279 697 q 232 457 232 563 q 262 294 232 354 q 330 210 292 233 q 396 186 368 186 q 447 203 421 186 q 493 240 474 221 q 502 250 496 243 q 514 257 508 257 q 531 251 521 257 l 649 186 q 666 178 654 183 q 683 169 678 174 q 688 158 688 165 q 683 143 688 151 q 588 38 653 92 q 407 -17 522 -17 q 234 51 317 -17 q 101 235 151 118 q 51 492 51 351 q 99 742 51 631 q 222 915 147 853 q 376 978 297 978 q 535 937 475 978 q 622 858 596 896 q 633 843 628 850 q 638 829 638 836 q 622 807 638 821 q 531 719 558 757 q 507 692 517 701 q 488 683 497 683 q 465 697 478 683 q 420 742 436 729 q 382 756 404 756 z "},"D":{"ha":801,"x_min":86,"x_max":753,"o":"m 332 972 q 513 927 417 972 q 681 763 608 882 q 753 438 753 643 q 663 153 753 250 q 475 30 574 57 q 311 3 376 3 l 197 1 q 122 0 167 0 q 96 47 96 0 l 97 83 l 94 153 l 93 215 l 92 257 q 86 421 86 329 q 92 564 86 475 q 97 710 97 653 l 96 896 q 94 946 94 918 q 115 965 94 961 q 157 967 135 968 q 188 967 179 967 l 238 969 q 332 972 296 972 m 335 297 q 404 347 372 315 q 474 506 474 414 q 407 646 474 593 q 342 679 378 668 q 344 632 344 649 q 342 556 344 606 q 339 486 339 508 q 336 369 339 450 q 335 297 335 346 z "},"Ǳ":{"ha":1692,"x_min":86,"x_max":1622,"o":"m 332 972 q 513 927 417 972 q 681 763 608 882 q 753 438 753 643 q 663 153 753 250 q 475 30 574 57 q 311 3 376 3 l 197 1 q 122 0 167 0 q 96 47 96 0 l 97 83 l 94 153 l 93 215 l 92 257 q 86 421 86 329 q 92 564 86 475 q 97 710 97 653 l 96 896 q 94 946 94 918 q 115 965 94 961 q 157 967 135 968 q 188 967 179 967 l 238 969 q 332 972 296 972 m 906 963 q 982 965 926 963 q 1081 968 1049 968 l 1228 965 l 1314 963 l 1396 963 q 1535 965 1515 963 l 1544 967 q 1560 962 1557 967 q 1563 951 1563 957 q 1563 944 1563 946 q 1563 917 1563 943 q 1550 872 1564 892 q 1358 597 1394 647 q 1189 364 1258 456 l 1057 183 q 1114 176 1096 178 q 1214 171 1157 171 l 1293 172 q 1365 174 1317 174 q 1510 179 1404 174 l 1596 182 q 1617 174 1613 182 q 1622 154 1621 165 q 1622 139 1622 143 l 1619 38 l 1619 29 q 1617 13 1619 15 q 1600 8 1614 10 l 1572 6 q 1496 -1 1542 6 q 1415 -4 1476 -4 l 1306 -3 q 1239 -1 1279 -1 l 899 -1 q 861 8 868 -1 q 855 28 854 17 q 856 44 856 40 l 858 99 q 863 167 863 139 q 872 192 863 178 q 900 225 882 206 l 922 250 q 1028 392 960 300 q 1114 514 1097 485 q 1182 612 1131 544 q 1246 697 1233 679 l 1263 719 q 1313 810 1283 750 l 1338 864 q 1325 865 1329 864 l 1297 868 l 1150 869 q 1111 868 1125 869 l 1065 867 q 1040 868 1046 867 q 942 871 1028 871 l 883 871 q 869 875 872 872 q 867 882 867 878 q 868 889 868 886 q 864 943 868 904 q 870 960 863 957 q 889 963 878 964 q 906 963 900 963 m 335 297 q 404 347 372 315 q 474 506 474 414 q 407 646 474 593 q 342 679 378 668 q 344 632 344 649 q 342 556 344 606 q 339 486 339 508 q 336 369 339 450 q 335 297 335 346 z "},"Ǆ":{"ha":1692,"x_min":86,"x_max":1622,"o":"m 1015 1143 q 1038 1164 1021 1164 q 1075 1154 1049 1164 l 1113 1144 q 1161 1119 1136 1135 l 1206 1099 q 1268 1128 1253 1119 q 1349 1157 1297 1142 q 1401 1161 1375 1161 q 1426 1155 1417 1161 q 1435 1139 1435 1149 q 1424 1122 1435 1129 l 1388 1099 q 1369 1090 1383 1097 q 1321 1058 1354 1083 q 1249 1022 1265 1026 q 1224 1017 1236 1017 q 1208 1015 1218 1015 q 1188 1019 1197 1015 q 1171 1027 1179 1022 q 1156 1036 1163 1032 q 1092 1078 1117 1063 l 1063 1096 q 1026 1121 1040 1110 q 1015 1143 1013 1132 m 332 972 q 513 927 417 972 q 681 763 608 882 q 753 438 753 643 q 663 153 753 250 q 475 30 574 57 q 311 3 376 3 l 197 1 q 122 0 167 0 q 96 47 96 0 l 97 83 l 94 153 l 93 215 l 92 257 q 86 421 86 329 q 92 564 86 475 q 97 710 97 653 l 96 896 q 94 946 94 918 q 115 965 94 961 q 157 967 135 968 q 188 967 179 967 l 238 969 q 332 972 296 972 m 906 963 q 982 965 926 963 q 1081 968 1049 968 l 1228 965 l 1314 963 l 1396 963 q 1535 965 1515 963 l 1544 967 q 1560 962 1557 967 q 1563 951 1563 957 q 1563 944 1563 946 q 1563 917 1563 943 q 1550 872 1564 892 q 1358 597 1394 647 q 1189 364 1258 456 l 1057 183 q 1114 176 1096 178 q 1214 171 1157 171 l 1293 172 q 1365 174 1317 174 q 1510 179 1404 174 l 1596 182 q 1617 174 1613 182 q 1622 154 1621 165 q 1622 139 1622 143 l 1619 38 l 1619 29 q 1617 13 1619 15 q 1600 8 1614 10 l 1572 6 q 1496 -1 1542 6 q 1415 -4 1476 -4 l 1306 -3 q 1239 -1 1279 -1 l 899 -1 q 861 8 868 -1 q 855 28 854 17 q 856 44 856 40 l 858 99 q 863 167 863 139 q 872 192 863 178 q 900 225 882 206 l 922 250 q 1028 392 960 300 q 1114 514 1097 485 q 1182 612 1131 544 q 1246 697 1233 679 l 1263 719 q 1313 810 1283 750 l 1338 864 q 1325 865 1329 864 l 1297 868 l 1150 869 q 1111 868 1125 869 l 1065 867 q 1040 868 1046 867 q 942 871 1028 871 l 883 871 q 869 875 872 872 q 867 882 867 878 q 868 889 868 886 q 864 943 868 904 q 870 960 863 957 q 889 963 878 964 q 906 963 900 963 m 335 297 q 404 347 372 315 q 474 506 474 414 q 407 646 474 593 q 342 679 378 668 q 344 632 344 649 q 342 556 344 606 q 339 486 339 508 q 336 369 339 450 q 335 297 335 346 z "},"Ð":{"ha":856,"x_min":50,"x_max":800,"o":"m 379 972 q 560 927 464 972 q 728 763 656 882 q 800 438 800 643 q 710 153 800 250 q 522 30 621 57 q 358 3 424 3 l 244 1 q 169 0 214 0 q 143 47 143 0 l 144 83 l 142 153 l 140 215 l 139 257 q 133 421 133 329 l 133 431 l 81 433 q 60 437 64 433 q 58 447 57 440 q 58 456 58 453 l 56 483 q 53 536 50 531 q 67 544 53 544 l 85 542 l 138 542 q 140 579 138 554 q 142 635 140 596 q 144 710 144 674 l 143 896 q 142 946 142 918 q 162 965 142 961 q 204 967 182 968 q 235 967 226 967 l 285 969 q 379 972 343 972 m 617 218 q 696 367 683 300 q 708 506 708 436 q 674 646 704 579 q 568 788 643 713 q 389 865 476 858 q 392 667 392 782 q 390 583 392 600 l 388 546 l 521 546 q 533 535 533 546 l 532 522 l 532 451 q 519 440 532 440 l 500 442 q 462 440 490 442 q 413 438 433 438 l 385 438 q 383 369 385 392 q 382 86 382 346 q 617 218 514 131 z "},"Ď":{"ha":801,"x_min":86,"x_max":753,"o":"m 143 1143 q 165 1164 149 1164 q 203 1154 176 1164 l 240 1144 q 289 1119 264 1135 l 333 1099 q 396 1128 382 1119 q 476 1157 425 1142 q 529 1161 503 1161 q 553 1155 544 1161 q 563 1139 563 1149 q 551 1122 563 1129 l 515 1099 q 497 1090 511 1097 q 449 1058 482 1083 q 376 1022 393 1026 q 351 1017 364 1017 q 336 1015 346 1015 q 316 1019 325 1015 q 299 1027 307 1022 q 283 1036 290 1032 q 219 1078 244 1064 l 190 1096 q 154 1121 168 1110 q 143 1143 140 1132 m 332 972 q 513 927 417 972 q 681 763 608 882 q 753 438 753 643 q 663 153 753 250 q 475 30 574 57 q 311 3 376 3 l 197 1 q 122 0 167 0 q 96 47 96 0 l 97 83 l 94 153 l 93 215 l 92 257 q 86 421 86 329 q 92 564 86 475 q 97 710 97 653 l 96 896 q 94 946 94 918 q 115 965 94 961 q 157 967 135 968 q 188 967 179 967 l 238 969 q 332 972 296 972 m 335 297 q 404 347 372 315 q 474 506 474 414 q 407 646 474 593 q 342 679 378 668 q 344 632 344 649 q 342 556 344 606 q 339 486 339 508 q 336 369 339 450 q 335 297 335 346 z "},"Đ":{"ha":801,"x_min":3,"x_max":753,"o":"m 332 972 q 513 927 417 972 q 681 763 608 882 q 753 438 753 643 q 663 153 753 250 q 475 30 574 57 q 311 3 376 3 l 197 1 q 122 0 167 0 q 96 47 96 0 l 97 83 l 94 153 l 93 215 l 92 257 q 86 421 86 329 l 86 456 l 85 456 q 14 451 21 456 q 5 456 7 451 q 3 469 3 460 l 3 507 q 6 527 3 521 q 18 533 10 533 l 90 533 q 93 572 90 547 q 95 632 93 590 q 97 710 97 674 l 96 896 q 94 946 94 918 q 115 965 94 961 q 157 967 135 968 q 188 967 179 967 l 238 969 q 332 972 296 972 m 406 325 q 483 388 458 344 q 508 504 507 431 q 407 658 508 619 q 290 678 353 676 q 296 626 296 657 q 293 574 296 603 q 289 533 290 544 l 390 533 l 400 535 q 413 529 410 535 q 415 511 415 524 l 415 469 q 410 456 415 460 q 385 451 404 451 l 324 454 l 286 456 l 282 369 q 279 297 279 322 q 406 325 361 308 z "},"Ḍ":{"ha":801,"x_min":86,"x_max":753,"o":"m 332 972 q 513 927 417 972 q 681 763 608 882 q 753 438 753 643 q 663 153 753 250 q 475 30 574 57 q 311 3 376 3 l 197 1 q 122 0 167 0 q 96 47 96 0 l 97 83 l 94 153 l 93 215 l 92 257 q 86 421 86 329 q 92 564 86 475 q 97 710 97 653 l 96 896 q 94 946 94 918 q 115 965 94 961 q 157 967 135 968 q 188 967 179 967 l 238 969 q 332 972 296 972 m 335 297 q 404 347 372 315 q 474 506 474 414 q 407 646 474 593 q 342 679 378 668 q 344 632 344 649 q 342 556 344 606 q 339 486 339 508 q 336 369 339 450 q 335 297 335 346 m 454 -106 q 424 -172 454 -147 q 363 -197 394 -197 q 304 -173 331 -197 q 278 -112 278 -149 q 301 -56 278 -82 q 357 -31 325 -31 q 424 -51 394 -31 q 454 -106 454 -71 z "},"E":{"ha":729,"x_min":88,"x_max":647,"o":"m 647 829 q 643 778 647 801 q 624 757 642 757 q 608 760 618 757 q 593 764 599 763 q 472 768 572 768 l 419 769 q 367 771 401 771 q 329 769 342 771 q 256 767 288 767 l 182 768 q 169 763 171 768 q 168 740 168 758 q 167 697 168 715 q 164 607 164 642 l 164 525 q 165 481 164 496 q 203 479 176 479 q 300 478 226 478 q 389 481 331 478 q 447 483 433 483 q 486 481 467 483 q 515 479 506 479 q 533 463 533 479 q 532 447 533 457 q 531 419 531 436 l 532 346 q 529 328 532 333 q 519 324 526 324 q 508 326 515 324 q 494 328 500 328 q 448 329 482 328 q 356 331 414 331 q 247 325 293 331 q 192 319 201 319 q 174 321 176 319 q 165 322 167 321 l 165 183 q 181 185 175 183 l 219 186 l 383 188 q 463 186 433 188 l 558 185 l 617 186 q 639 178 633 186 q 644 157 644 171 l 643 129 l 642 32 q 632 5 642 10 q 604 1 622 0 q 575 1 586 1 q 472 3 515 1 l 331 4 q 164 0 314 4 l 111 -1 l 103 -3 q 93 2 94 -3 q 92 21 92 7 q 90 72 90 36 q 89 97 90 83 q 88 132 88 110 l 88 322 q 90 376 88 350 q 92 415 92 403 q 97 538 97 479 q 93 651 97 610 q 90 738 90 699 q 94 942 90 825 q 101 966 94 960 q 121 972 108 972 l 142 971 q 182 969 154 971 q 250 967 210 967 q 358 974 296 967 q 458 979 433 979 q 563 975 515 979 l 613 974 q 636 965 631 974 q 642 935 642 957 q 644 892 642 922 q 647 829 647 856 z "},"É":{"ha":700,"x_min":88,"x_max":647,"o":"m 507 1121 q 480 1092 503 1106 q 439 1074 457 1078 q 321 1028 372 1053 q 301 1021 315 1026 q 276 1015 286 1015 q 247 1025 263 1015 q 219 1056 219 1035 q 222 1069 219 1058 q 250 1088 224 1076 q 292 1104 276 1100 q 322 1116 300 1110 q 376 1136 344 1122 l 407 1147 q 456 1157 436 1157 l 483 1160 q 508 1136 508 1160 q 507 1121 508 1126 m 647 829 q 643 778 647 801 q 624 757 642 757 q 608 760 618 757 q 593 764 599 763 q 472 768 572 768 l 419 769 q 367 771 401 771 q 329 769 342 771 q 256 767 288 767 l 182 768 q 169 763 171 768 q 168 740 168 758 q 167 697 168 715 q 164 607 164 642 l 164 525 q 165 481 164 496 q 203 479 176 479 q 300 478 226 478 q 389 481 331 478 q 447 483 433 483 q 486 481 467 483 q 515 479 506 479 q 533 463 533 479 q 532 447 533 457 q 531 419 531 436 l 532 346 q 529 328 532 333 q 519 324 526 324 q 508 326 515 324 q 494 328 500 328 q 448 329 482 328 q 356 331 414 331 q 247 325 293 331 q 192 319 201 319 q 174 321 176 319 q 165 322 167 321 l 165 183 q 181 185 175 183 l 219 186 l 383 188 q 463 186 433 188 l 558 185 l 617 186 q 639 178 633 186 q 644 157 644 171 l 643 129 l 642 32 q 632 5 642 10 q 604 1 622 0 q 575 1 586 1 q 472 3 515 1 l 331 4 q 164 0 314 4 l 111 -1 l 103 -3 q 93 2 94 -3 q 92 21 92 7 q 90 72 90 36 q 89 97 90 83 q 88 132 88 110 l 88 322 q 90 376 88 350 q 92 415 92 403 q 97 538 97 479 q 93 651 97 610 q 90 738 90 699 q 94 942 90 825 q 101 966 94 960 q 121 972 108 972 l 142 971 q 182 969 154 971 q 250 967 210 967 q 358 974 296 967 q 458 979 433 979 q 563 975 515 979 l 613 974 q 636 965 631 974 q 642 935 642 957 q 644 892 642 922 q 647 829 647 856 z "},"Ĕ":{"ha":729,"x_min":88,"x_max":647,"o":"m 569 1156 q 564 1114 569 1138 q 540 1076 558 1090 q 486 1043 522 1063 q 353 1025 451 1025 q 214 1046 240 1032 q 176 1083 188 1060 q 156 1161 157 1128 q 165 1165 156 1164 q 196 1165 174 1165 q 231 1163 225 1165 q 236 1151 236 1161 q 258 1114 242 1125 q 350 1100 274 1104 q 435 1113 388 1100 q 486 1154 483 1126 q 524 1164 492 1163 q 569 1156 569 1163 m 647 829 q 643 778 647 801 q 624 757 642 757 q 608 760 618 757 q 593 764 599 763 q 472 768 572 768 l 419 769 q 367 771 401 771 q 329 769 342 771 q 256 767 288 767 l 182 768 q 169 763 171 768 q 168 740 168 758 q 167 697 168 715 q 164 607 164 642 l 164 525 q 165 481 164 496 q 203 479 176 479 q 300 478 226 478 q 389 481 331 478 q 447 483 433 483 q 486 481 467 483 q 515 479 506 479 q 533 463 533 479 q 532 447 533 457 q 531 419 531 436 l 532 346 q 529 328 532 333 q 519 324 526 324 q 508 326 515 324 q 494 328 500 328 q 448 329 482 328 q 356 331 414 331 q 247 325 293 331 q 192 319 201 319 q 174 321 176 319 q 165 322 167 321 l 165 183 q 181 185 175 183 l 219 186 l 383 188 q 463 186 433 188 l 558 185 l 617 186 q 639 178 633 186 q 644 157 644 171 l 643 129 l 642 32 q 632 5 642 10 q 604 1 622 0 q 575 1 586 1 q 472 3 515 1 l 331 4 q 164 0 314 4 l 111 -1 l 103 -3 q 93 2 94 -3 q 92 21 92 7 q 90 72 90 36 q 89 97 90 83 q 88 132 88 110 l 88 322 q 90 376 88 350 q 92 415 92 403 q 97 538 97 479 q 93 651 97 610 q 90 738 90 699 q 94 942 90 825 q 101 966 94 960 q 121 972 108 972 l 142 971 q 182 969 154 971 q 250 967 210 967 q 358 974 296 967 q 458 979 433 979 q 563 975 515 979 l 613 974 q 636 965 631 974 q 642 935 642 957 q 644 892 642 922 q 647 829 647 856 z "},"Ě":{"ha":729,"x_min":88,"x_max":647,"o":"m 175 1143 q 197 1164 181 1164 q 235 1154 208 1164 l 272 1144 q 321 1119 296 1135 l 365 1099 q 428 1128 414 1119 q 508 1157 457 1142 q 561 1161 535 1161 q 585 1155 576 1161 q 594 1139 594 1149 q 583 1122 594 1129 l 547 1099 q 528 1090 543 1097 q 481 1058 514 1083 q 408 1022 425 1026 q 383 1017 396 1017 q 368 1015 378 1015 q 348 1019 357 1015 q 331 1027 339 1022 q 315 1036 322 1032 q 251 1078 275 1064 l 222 1096 q 186 1121 200 1110 q 175 1143 172 1132 m 647 829 q 643 778 647 801 q 624 757 642 757 q 608 760 618 757 q 593 764 599 763 q 472 768 572 768 l 419 769 q 367 771 401 771 q 329 769 342 771 q 256 767 288 767 l 182 768 q 169 763 171 768 q 168 740 168 758 q 167 697 168 715 q 164 607 164 642 l 164 525 q 165 481 164 496 q 203 479 176 479 q 300 478 226 478 q 389 481 331 478 q 447 483 433 483 q 486 481 467 483 q 515 479 506 479 q 533 463 533 479 q 532 447 533 457 q 531 419 531 436 l 532 346 q 529 328 532 333 q 519 324 526 324 q 508 326 515 324 q 494 328 500 328 q 448 329 482 328 q 356 331 414 331 q 247 325 293 331 q 192 319 201 319 q 174 321 176 319 q 165 322 167 321 l 165 183 q 181 185 175 183 l 219 186 l 383 188 q 463 186 433 188 l 558 185 l 617 186 q 639 178 633 186 q 644 157 644 171 l 643 129 l 642 32 q 632 5 642 10 q 604 1 622 0 q 575 1 586 1 q 472 3 515 1 l 331 4 q 164 0 314 4 l 111 -1 l 103 -3 q 93 2 94 -3 q 92 21 92 7 q 90 72 90 36 q 89 97 90 83 q 88 132 88 110 l 88 322 q 90 376 88 350 q 92 415 92 403 q 97 538 97 479 q 93 651 97 610 q 90 738 90 699 q 94 942 90 825 q 101 966 94 960 q 121 972 108 972 l 142 971 q 182 969 154 971 q 250 967 210 967 q 358 974 296 967 q 458 979 433 979 q 563 975 515 979 l 613 974 q 636 965 631 974 q 642 935 642 957 q 644 892 642 922 q 647 829 647 856 z "},"Ê":{"ha":700,"x_min":88,"x_max":647,"o":"m 581 1036 q 558 1015 575 1015 q 521 1025 547 1015 l 483 1035 q 435 1060 460 1044 l 390 1081 l 326 1051 q 247 1022 300 1038 q 194 1018 219 1018 q 170 1025 179 1018 q 161 1040 161 1032 q 171 1057 161 1051 l 208 1081 q 227 1089 213 1082 q 275 1121 242 1096 q 347 1157 331 1153 q 372 1163 360 1163 q 388 1164 378 1164 q 408 1160 399 1164 q 425 1152 417 1157 q 440 1143 433 1147 q 504 1101 479 1117 l 533 1083 q 569 1058 556 1069 q 581 1036 583 1047 m 647 829 q 643 778 647 801 q 624 757 642 757 q 608 760 618 757 q 593 764 599 763 q 472 768 572 768 l 419 769 q 367 771 401 771 q 329 769 342 771 q 256 767 288 767 l 182 768 q 169 763 171 768 q 168 740 168 758 q 167 697 168 715 q 164 607 164 642 l 164 525 q 165 481 164 496 q 203 479 176 479 q 300 478 226 478 q 389 481 331 478 q 447 483 433 483 q 486 481 467 483 q 515 479 506 479 q 533 463 533 479 q 532 447 533 457 q 531 419 531 436 l 532 346 q 529 328 532 333 q 519 324 526 324 q 508 326 515 324 q 494 328 500 328 q 448 329 482 328 q 356 331 414 331 q 247 325 293 331 q 192 319 201 319 q 174 321 176 319 q 165 322 167 321 l 165 183 q 181 185 175 183 l 219 186 l 383 188 q 463 186 433 188 l 558 185 l 617 186 q 639 178 633 186 q 644 157 644 171 l 643 129 l 642 32 q 632 5 642 10 q 604 1 622 0 q 575 1 586 1 q 472 3 515 1 l 331 4 q 164 0 314 4 l 111 -1 l 103 -3 q 93 2 94 -3 q 92 21 92 7 q 90 72 90 36 q 89 97 90 83 q 88 132 88 110 l 88 322 q 90 376 88 350 q 92 415 92 403 q 97 538 97 479 q 93 651 97 610 q 90 738 90 699 q 94 942 90 825 q 101 966 94 960 q 121 972 108 972 l 142 971 q 182 969 154 971 q 250 967 210 967 q 358 974 296 967 q 458 979 433 979 q 563 975 515 979 l 613 974 q 636 965 631 974 q 642 935 642 957 q 644 892 642 922 q 647 829 647 856 z "},"Ë":{"ha":700,"x_min":88,"x_max":647,"o":"m 450 1081 q 481 1149 450 1131 q 553 1167 513 1167 q 596 1141 579 1167 q 613 1081 613 1115 q 590 1028 613 1050 q 525 1006 567 1006 q 467 1028 485 1006 q 450 1081 450 1050 m 299 1086 q 270 1024 299 1047 q 213 1000 242 1000 q 157 1022 182 1000 q 132 1081 132 1044 q 153 1133 132 1110 q 207 1157 175 1157 q 271 1138 243 1157 q 299 1086 299 1119 m 647 829 q 643 778 647 801 q 624 757 642 757 q 608 760 618 757 q 593 764 599 763 q 472 768 572 768 l 419 769 q 367 771 401 771 q 329 769 342 771 q 256 767 288 767 l 182 768 q 169 763 171 768 q 168 740 168 758 q 167 697 168 715 q 164 607 164 642 l 164 525 q 165 481 164 496 q 203 479 176 479 q 300 478 226 478 q 389 481 331 478 q 447 483 433 483 q 486 481 467 483 q 515 479 506 479 q 533 463 533 479 q 532 447 533 457 q 531 419 531 436 l 532 346 q 529 328 532 333 q 519 324 526 324 q 508 326 515 324 q 494 328 500 328 q 448 329 482 328 q 356 331 414 331 q 247 325 293 331 q 192 319 201 319 q 174 321 176 319 q 165 322 167 321 l 165 183 q 181 185 175 183 l 219 186 l 383 188 q 463 186 433 188 l 558 185 l 617 186 q 639 178 633 186 q 644 157 644 171 l 643 129 l 642 32 q 632 5 642 10 q 604 1 622 0 q 575 1 586 1 q 472 3 515 1 l 331 4 q 164 0 314 4 l 111 -1 l 103 -3 q 93 2 94 -3 q 92 21 92 7 q 90 72 90 36 q 89 97 90 83 q 88 132 88 110 l 88 322 q 90 376 88 350 q 92 415 92 403 q 97 538 97 479 q 93 651 97 610 q 90 738 90 699 q 94 942 90 825 q 101 966 94 960 q 121 972 108 972 l 142 971 q 182 969 154 971 q 250 967 210 967 q 358 974 296 967 q 458 979 433 979 q 563 975 515 979 l 613 974 q 636 965 631 974 q 642 935 642 957 q 644 892 642 922 q 647 829 647 856 z "},"Ė":{"ha":729,"x_min":88,"x_max":647,"o":"m 461 1092 q 431 1025 461 1050 q 369 1000 401 1000 q 311 1024 338 1000 q 285 1085 285 1049 q 308 1141 285 1115 q 364 1167 332 1167 q 431 1147 401 1167 q 461 1092 461 1126 m 647 829 q 643 778 647 801 q 624 757 642 757 q 608 760 618 757 q 593 764 599 763 q 472 768 572 768 l 419 769 q 367 771 401 771 q 329 769 342 771 q 256 767 288 767 l 182 768 q 169 763 171 768 q 168 740 168 758 q 167 697 168 715 q 164 607 164 642 l 164 525 q 165 481 164 496 q 203 479 176 479 q 300 478 226 478 q 389 481 331 478 q 447 483 433 483 q 486 481 467 483 q 515 479 506 479 q 533 463 533 479 q 532 447 533 457 q 531 419 531 436 l 532 346 q 529 328 532 333 q 519 324 526 324 q 508 326 515 324 q 494 328 500 328 q 448 329 482 328 q 356 331 414 331 q 247 325 293 331 q 192 319 201 319 q 174 321 176 319 q 165 322 167 321 l 165 183 q 181 185 175 183 l 219 186 l 383 188 q 463 186 433 188 l 558 185 l 617 186 q 639 178 633 186 q 644 157 644 171 l 643 129 l 642 32 q 632 5 642 10 q 604 1 622 0 q 575 1 586 1 q 472 3 515 1 l 331 4 q 164 0 314 4 l 111 -1 l 103 -3 q 93 2 94 -3 q 92 21 92 7 q 90 72 90 36 q 89 97 90 83 q 88 132 88 110 l 88 322 q 90 376 88 350 q 92 415 92 403 q 97 538 97 479 q 93 651 97 610 q 90 738 90 699 q 94 942 90 825 q 101 966 94 960 q 121 972 108 972 l 142 971 q 182 969 154 971 q 250 967 210 967 q 358 974 296 967 q 458 979 433 979 q 563 975 515 979 l 613 974 q 636 965 631 974 q 642 935 642 957 q 644 892 642 922 q 647 829 647 856 z "},"Ẹ":{"ha":729,"x_min":88,"x_max":647,"o":"m 647 829 q 643 778 647 801 q 624 757 642 757 q 608 760 618 757 q 593 764 599 763 q 472 768 572 768 l 419 769 q 367 771 401 771 q 329 769 342 771 q 256 767 288 767 l 182 768 q 169 763 171 768 q 168 740 168 758 q 167 697 168 715 q 164 607 164 642 l 164 525 q 165 481 164 496 q 203 479 176 479 q 300 478 226 478 q 389 481 331 478 q 447 483 433 483 q 486 481 467 483 q 515 479 506 479 q 533 463 533 479 q 532 447 533 457 q 531 419 531 436 l 532 346 q 529 328 532 333 q 519 324 526 324 q 508 326 515 324 q 494 328 500 328 q 448 329 482 328 q 356 331 414 331 q 247 325 293 331 q 192 319 201 319 q 174 321 176 319 q 165 322 167 321 l 165 183 q 181 185 175 183 l 219 186 l 383 188 q 463 186 433 188 l 558 185 l 617 186 q 639 178 633 186 q 644 157 644 171 l 643 129 l 642 32 q 632 5 642 10 q 604 1 622 0 q 575 1 586 1 q 472 3 515 1 l 331 4 q 164 0 314 4 l 111 -1 l 103 -3 q 93 2 94 -3 q 92 21 92 7 q 90 72 90 36 q 89 97 90 83 q 88 132 88 110 l 88 322 q 90 376 88 350 q 92 415 92 403 q 97 538 97 479 q 93 651 97 610 q 90 738 90 699 q 94 942 90 825 q 101 966 94 960 q 121 972 108 972 l 142 971 q 182 969 154 971 q 250 967 210 967 q 358 974 296 967 q 458 979 433 979 q 563 975 515 979 l 613 974 q 636 965 631 974 q 642 935 642 957 q 644 892 642 922 q 647 829 647 856 m 447 -106 q 417 -172 447 -147 q 356 -197 388 -197 q 297 -173 324 -197 q 271 -112 271 -149 q 294 -56 271 -82 q 350 -31 318 -31 q 417 -51 388 -31 q 447 -106 447 -71 z "},"È":{"ha":700,"x_min":88,"x_max":647,"o":"m 500 1075 q 503 1057 503 1061 q 476 1035 503 1035 q 450 1038 469 1035 q 401 1043 435 1036 l 371 1054 q 316 1074 339 1068 q 285 1083 293 1079 q 242 1099 267 1089 q 215 1115 218 1108 q 211 1131 211 1124 q 238 1161 211 1150 q 268 1172 257 1172 q 291 1167 278 1172 q 311 1161 304 1163 q 373 1137 350 1144 q 431 1121 396 1129 q 453 1112 436 1118 q 483 1097 469 1106 q 500 1075 497 1088 m 647 829 q 643 778 647 801 q 624 757 642 757 q 608 760 618 757 q 593 764 599 763 q 472 768 572 768 l 419 769 q 367 771 401 771 q 329 769 342 771 q 256 767 288 767 l 182 768 q 169 763 171 768 q 168 740 168 758 q 167 697 168 715 q 164 607 164 642 l 164 525 q 165 481 164 496 q 203 479 176 479 q 300 478 226 478 q 389 481 331 478 q 447 483 433 483 q 486 481 467 483 q 515 479 506 479 q 533 463 533 479 q 532 447 533 457 q 531 419 531 436 l 532 346 q 529 328 532 333 q 519 324 526 324 q 508 326 515 324 q 494 328 500 328 q 448 329 482 328 q 356 331 414 331 q 247 325 293 331 q 192 319 201 319 q 174 321 176 319 q 165 322 167 321 l 165 183 q 181 185 175 183 l 219 186 l 383 188 q 463 186 433 188 l 558 185 l 617 186 q 639 178 633 186 q 644 157 644 171 l 643 129 l 642 32 q 632 5 642 10 q 604 1 622 0 q 575 1 586 1 q 472 3 515 1 l 331 4 q 164 0 314 4 l 111 -1 l 103 -3 q 93 2 94 -3 q 92 21 92 7 q 90 72 90 36 q 89 97 90 83 q 88 132 88 110 l 88 322 q 90 376 88 350 q 92 415 92 403 q 97 538 97 479 q 93 651 97 610 q 90 738 90 699 q 94 942 90 825 q 101 966 94 960 q 121 972 108 972 l 142 971 q 182 969 154 971 q 250 967 210 967 q 358 974 296 967 q 458 979 433 979 q 563 975 515 979 l 613 974 q 636 965 631 974 q 642 935 642 957 q 644 892 642 922 q 647 829 647 856 z "},"Ē":{"ha":729,"x_min":88,"x_max":647,"o":"m 564 1156 q 576 1150 574 1156 q 579 1132 579 1144 l 579 1090 q 574 1076 579 1081 q 549 1072 568 1072 l 499 1074 q 432 1076 451 1076 l 249 1076 q 178 1072 185 1076 q 169 1076 171 1072 q 167 1090 167 1081 l 167 1128 q 170 1148 167 1142 q 182 1154 174 1154 l 554 1154 l 564 1156 m 647 829 q 643 778 647 801 q 624 757 642 757 q 608 760 618 757 q 593 764 599 763 q 472 768 572 768 l 419 769 q 367 771 401 771 q 329 769 342 771 q 256 767 288 767 l 182 768 q 169 763 171 768 q 168 740 168 758 q 167 697 168 715 q 164 607 164 642 l 164 525 q 165 481 164 496 q 203 479 176 479 q 300 478 226 478 q 389 481 331 478 q 447 483 433 483 q 486 481 467 483 q 515 479 506 479 q 533 463 533 479 q 532 447 533 457 q 531 419 531 436 l 532 346 q 529 328 532 333 q 519 324 526 324 q 508 326 515 324 q 494 328 500 328 q 448 329 482 328 q 356 331 414 331 q 247 325 293 331 q 192 319 201 319 q 174 321 176 319 q 165 322 167 321 l 165 183 q 181 185 175 183 l 219 186 l 383 188 q 463 186 433 188 l 558 185 l 617 186 q 639 178 633 186 q 644 157 644 171 l 643 129 l 642 32 q 632 5 642 10 q 604 1 622 0 q 575 1 586 1 q 472 3 515 1 l 331 4 q 164 0 314 4 l 111 -1 l 103 -3 q 93 2 94 -3 q 92 21 92 7 q 90 72 90 36 q 89 97 90 83 q 88 132 88 110 l 88 322 q 90 376 88 350 q 92 415 92 403 q 97 538 97 479 q 93 651 97 610 q 90 738 90 699 q 94 942 90 825 q 101 966 94 960 q 121 972 108 972 l 142 971 q 182 969 154 971 q 250 967 210 967 q 358 974 296 967 q 458 979 433 979 q 563 975 515 979 l 613 974 q 636 965 631 974 q 642 935 642 957 q 644 892 642 922 q 647 829 647 856 z "},"Ę":{"ha":729,"x_min":88,"x_max":647,"o":"m 610 186 q 638 180 631 188 q 644 157 644 172 l 643 129 l 642 32 q 632 5 642 10 q 604 1 622 0 q 575 1 586 1 q 483 3 521 1 l 342 4 q 338 -28 342 -3 q 333 -78 333 -53 q 361 -135 333 -133 q 422 -130 401 -137 q 456 -112 443 -122 q 471 -103 468 -103 q 489 -115 479 -103 q 499 -137 499 -128 q 472 -178 499 -156 q 410 -219 446 -201 q 349 -237 374 -236 q 265 -215 293 -239 q 235 -126 238 -192 q 247 -62 235 -100 q 267 -11 257 -36 l 274 3 l 111 -1 l 103 -3 q 93 2 94 -3 q 92 21 92 7 q 90 72 90 36 q 89 97 90 83 q 88 132 88 110 l 88 322 q 90 376 88 350 q 92 415 92 403 q 97 538 97 479 q 93 651 97 610 q 90 738 90 699 q 94 942 90 825 q 101 966 94 960 q 121 972 108 972 l 142 971 q 182 969 154 971 q 250 967 210 967 q 358 974 296 967 q 458 979 433 979 q 563 975 515 979 l 613 974 q 636 965 631 974 q 642 935 642 957 q 644 892 642 922 q 647 829 647 856 q 643 778 647 801 q 624 757 642 757 q 608 760 618 757 q 593 764 599 763 q 472 768 572 768 l 419 769 q 367 771 401 771 q 329 769 342 771 q 256 767 288 767 l 182 768 q 169 763 171 768 q 168 740 168 758 q 167 697 168 715 q 164 607 164 642 l 164 525 q 165 481 164 496 q 203 479 176 479 q 300 478 226 478 q 389 481 331 478 q 447 483 433 483 q 486 481 467 483 q 515 479 506 479 q 533 463 533 479 q 532 447 533 457 q 531 419 531 436 l 532 346 q 529 328 532 333 q 519 324 526 324 q 508 326 515 324 q 494 328 500 328 q 448 329 482 328 q 356 331 414 331 q 247 325 293 331 q 192 319 201 319 q 174 321 176 319 q 165 322 167 321 l 165 183 q 181 185 175 183 l 219 186 l 383 188 q 463 186 433 188 l 558 185 q 610 186 597 185 z "},"Ẽ":{"ha":729,"x_min":88,"x_max":647,"o":"m 224 1131 q 285 1136 256 1131 q 324 1143 314 1142 q 489 1154 386 1154 q 578 1149 543 1154 q 612 1140 606 1147 q 618 1126 618 1133 q 618 1114 618 1118 l 618 1093 q 586 1071 618 1071 q 564 1074 576 1071 q 546 1078 551 1076 q 494 1088 517 1088 q 436 1083 464 1086 q 399 1079 408 1081 q 349 1072 369 1074 q 304 1067 319 1069 q 224 1061 257 1061 q 132 1093 132 1061 l 132 1111 q 135 1143 132 1133 q 144 1150 136 1150 q 175 1142 150 1150 q 224 1131 200 1135 m 647 829 q 643 778 647 801 q 624 757 642 757 q 608 760 618 757 q 593 764 599 763 q 472 768 572 768 l 419 769 q 367 771 401 771 q 329 769 342 771 q 256 767 288 767 l 182 768 q 169 763 171 768 q 168 740 168 758 q 167 697 168 715 q 164 607 164 642 l 164 525 q 165 481 164 496 q 203 479 176 479 q 300 478 226 478 q 389 481 331 478 q 447 483 433 483 q 486 481 467 483 q 515 479 506 479 q 533 463 533 479 q 532 447 533 457 q 531 419 531 436 l 532 346 q 529 328 532 333 q 519 324 526 324 q 508 326 515 324 q 494 328 500 328 q 448 329 482 328 q 356 331 414 331 q 247 325 293 331 q 192 319 201 319 q 174 321 176 319 q 165 322 167 321 l 165 183 q 181 185 175 183 l 219 186 l 383 188 q 463 186 433 188 l 558 185 l 617 186 q 639 178 633 186 q 644 157 644 171 l 643 129 l 642 32 q 632 5 642 10 q 604 1 622 0 q 575 1 586 1 q 472 3 515 1 l 331 4 q 164 0 314 4 l 111 -1 l 103 -3 q 93 2 94 -3 q 92 21 92 7 q 90 72 90 36 q 89 97 90 83 q 88 132 88 110 l 88 322 q 90 376 88 350 q 92 415 92 403 q 97 538 97 479 q 93 651 97 610 q 90 738 90 699 q 94 942 90 825 q 101 966 94 960 q 121 972 108 972 l 142 971 q 182 969 154 971 q 250 967 210 967 q 358 974 296 967 q 458 979 433 979 q 563 975 515 979 l 613 974 q 636 965 631 974 q 642 935 642 957 q 644 892 642 922 q 647 829 647 856 z "},"F":{"ha":661,"x_min":86,"x_max":658,"o":"m 264 961 l 353 964 q 390 965 369 964 q 432 968 411 967 q 510 972 479 972 l 626 971 q 658 950 658 971 l 658 881 q 653 866 658 868 q 633 864 649 864 q 601 865 615 864 l 513 867 q 410 861 460 867 l 342 857 l 338 832 q 335 783 335 801 l 333 660 l 332 589 l 332 556 q 375 557 361 556 l 442 558 l 497 560 q 551 561 517 561 q 581 556 574 561 q 589 538 589 550 l 588 492 q 581 476 588 481 q 556 472 575 472 q 514 474 531 472 l 458 475 l 329 475 q 331 422 329 439 l 332 335 l 331 267 q 328 199 328 222 l 329 35 q 322 10 329 17 q 297 3 314 3 q 265 6 290 3 q 214 7 253 7 l 113 6 q 94 11 97 7 q 90 23 90 15 q 90 33 90 31 l 89 107 q 88 140 89 126 l 86 235 q 88 277 86 256 q 90 308 90 299 q 94 381 94 340 l 93 539 l 94 631 q 97 728 97 694 q 94 919 97 806 q 101 953 94 944 q 119 961 107 961 q 137 960 128 961 q 158 958 146 958 l 264 961 z "},"G":{"ha":822,"x_min":57,"x_max":775,"o":"m 432 999 q 628 933 563 999 q 724 810 694 868 q 735 781 729 796 q 744 754 740 765 q 746 747 746 751 q 742 740 746 743 q 733 735 739 738 q 721 729 728 733 l 689 713 q 621 678 640 686 q 571 646 590 660 l 544 628 q 518 610 536 621 q 507 606 513 606 q 496 603 499 603 q 484 613 489 603 q 475 628 479 622 q 464 644 472 632 q 444 666 456 657 q 417 675 432 675 q 351 610 375 675 q 328 475 328 546 q 331 370 328 410 q 353 297 335 331 q 415 264 372 264 q 493 333 471 264 q 503 403 503 363 l 475 408 q 426 415 442 414 q 400 435 400 418 q 411 489 400 444 q 425 515 418 511 q 446 518 432 519 q 478 513 453 517 q 560 504 504 510 l 636 493 q 740 481 714 482 q 772 456 764 479 q 774 432 775 442 q 709 159 764 260 q 582 19 654 58 q 439 -19 510 -19 q 287 21 375 -19 q 128 171 199 61 q 57 469 57 281 q 124 806 57 689 q 274 961 190 924 q 432 999 357 999 z "},"Ğ":{"ha":822,"x_min":57,"x_max":775,"o":"m 640 1156 q 635 1114 640 1138 q 611 1076 629 1090 q 557 1043 593 1063 q 424 1025 522 1025 q 285 1046 311 1032 q 247 1083 257 1060 q 226 1161 228 1128 q 235 1165 226 1164 q 267 1165 244 1165 q 301 1163 296 1165 q 307 1151 307 1161 q 329 1114 313 1125 q 421 1100 344 1104 q 506 1113 458 1100 q 557 1154 554 1126 q 594 1164 563 1163 q 640 1156 640 1163 m 432 999 q 628 933 563 999 q 724 810 694 868 q 735 781 729 796 q 744 754 740 765 q 746 747 746 751 q 742 740 746 743 q 733 735 739 738 q 721 729 728 733 l 689 713 q 621 678 640 686 q 571 646 590 660 l 544 628 q 518 610 536 621 q 507 606 513 606 q 496 603 499 603 q 484 613 489 603 q 475 628 479 622 q 464 644 472 632 q 444 666 456 657 q 417 675 432 675 q 351 610 375 675 q 328 475 328 546 q 331 370 328 410 q 353 297 335 331 q 415 264 372 264 q 493 333 471 264 q 503 403 503 363 l 475 408 q 426 415 442 414 q 400 435 400 418 q 411 489 400 444 q 425 515 418 511 q 446 518 432 519 q 478 513 453 517 q 560 504 504 510 l 636 493 q 740 481 714 482 q 772 456 764 479 q 774 432 775 442 q 709 159 764 260 q 582 19 654 58 q 439 -19 510 -19 q 287 21 375 -19 q 128 171 199 61 q 57 469 57 281 q 124 806 57 689 q 274 961 190 924 q 432 999 357 999 z "},"Ĝ":{"ha":822,"x_min":57,"x_max":775,"o":"m 639 1036 q 617 1015 633 1015 q 579 1025 606 1015 l 542 1035 q 493 1060 518 1044 l 449 1081 l 385 1051 q 306 1022 358 1038 q 253 1018 278 1018 q 228 1025 238 1018 q 219 1040 219 1032 q 229 1057 219 1051 l 267 1081 q 285 1089 271 1082 q 333 1121 300 1096 q 406 1157 389 1153 q 431 1163 418 1163 q 446 1164 436 1164 q 466 1160 457 1164 q 483 1152 475 1157 q 499 1143 492 1147 q 563 1101 538 1117 l 592 1083 q 628 1058 614 1069 q 639 1036 642 1047 m 432 999 q 628 933 563 999 q 724 810 694 868 q 735 781 729 796 q 744 754 740 765 q 746 747 746 751 q 742 740 746 743 q 733 735 739 738 q 721 729 728 733 l 689 713 q 621 678 640 686 q 571 646 590 660 l 544 628 q 518 610 536 621 q 507 606 513 606 q 496 603 499 603 q 484 613 489 603 q 475 628 479 622 q 464 644 472 632 q 444 666 456 657 q 417 675 432 675 q 351 610 375 675 q 328 475 328 546 q 331 370 328 410 q 353 297 335 331 q 415 264 372 264 q 493 333 471 264 q 503 403 503 363 l 475 408 q 426 415 442 414 q 400 435 400 418 q 411 489 400 444 q 425 515 418 511 q 446 518 432 519 q 478 513 453 517 q 560 504 504 510 l 636 493 q 740 481 714 482 q 772 456 764 479 q 774 432 775 442 q 709 159 764 260 q 582 19 654 58 q 439 -19 510 -19 q 287 21 375 -19 q 128 171 199 61 q 57 469 57 281 q 124 806 57 689 q 274 961 190 924 q 432 999 357 999 z "},"Ģ":{"ha":822,"x_min":57,"x_max":775,"o":"m 432 999 q 628 933 563 999 q 724 810 694 868 q 735 781 729 796 q 744 754 740 765 q 746 747 746 751 q 742 740 746 743 q 733 735 739 738 q 721 729 728 733 l 689 713 q 621 678 640 686 q 571 646 590 660 l 544 628 q 518 610 536 621 q 507 606 513 606 q 496 603 499 603 q 484 613 489 603 q 475 628 479 622 q 464 644 472 632 q 444 666 456 657 q 417 675 432 675 q 351 610 375 675 q 328 475 328 546 q 331 370 328 410 q 353 297 335 331 q 415 264 372 264 q 493 333 471 264 q 503 403 503 363 l 475 408 q 426 415 442 414 q 400 435 400 418 q 411 489 400 444 q 425 515 418 511 q 446 518 432 519 q 478 513 453 517 q 560 504 504 510 l 636 493 q 740 481 714 482 q 772 456 764 479 q 774 432 775 442 q 709 159 764 260 q 582 19 654 58 q 439 -19 510 -19 q 287 21 375 -19 q 128 171 199 61 q 57 469 57 281 q 124 806 57 689 q 274 961 190 924 q 432 999 357 999 m 486 -57 q 493 -68 500 -57 q 486 -92 492 -83 q 481 -110 485 -97 q 472 -133 476 -122 l 456 -186 q 436 -244 443 -226 q 429 -275 429 -269 q 418 -293 425 -287 q 376 -294 414 -294 q 332 -293 339 -294 q 325 -290 326 -293 q 324 -284 324 -287 q 324 -279 324 -281 l 367 -143 l 378 -99 l 388 -71 q 408 -57 389 -57 l 486 -57 z "},"Ġ":{"ha":822,"x_min":57,"x_max":775,"o":"m 521 1092 q 491 1025 521 1050 q 429 1000 461 1000 q 371 1024 397 1000 q 344 1085 344 1049 q 368 1141 344 1115 q 424 1167 392 1167 q 491 1147 461 1167 q 521 1092 521 1126 m 432 957 q 560 947 515 957 q 644 907 604 938 q 708 840 694 869 q 724 810 722 811 q 735 781 729 796 q 744 754 740 765 q 746 747 746 751 q 742 740 746 743 q 733 735 739 738 q 721 729 728 733 l 689 713 q 621 678 640 686 q 571 646 590 660 l 544 628 q 518 610 536 621 q 507 606 513 606 q 496 603 499 603 q 484 613 489 603 q 475 628 479 622 q 464 644 472 632 q 444 666 456 657 q 417 675 432 675 q 351 610 375 675 q 328 475 328 546 q 331 370 328 410 q 353 297 335 331 q 415 264 372 264 q 493 333 471 264 q 503 403 503 363 l 475 408 q 426 415 442 414 q 400 435 400 418 q 411 489 400 444 q 425 515 418 511 q 446 518 432 519 q 478 513 453 517 q 560 504 504 510 l 636 493 q 740 481 714 482 q 772 456 764 479 q 774 432 775 442 q 709 159 764 260 q 582 19 654 58 q 439 -19 510 -19 q 287 21 375 -19 q 128 171 199 61 q 57 469 57 281 q 78 676 57 592 q 126 801 97 757 q 201 878 156 844 q 321 940 260 922 q 432 957 382 957 z "},"H":{"ha":947,"x_min":89,"x_max":869,"o":"m 360 544 l 411 543 q 504 540 478 540 q 669 542 613 540 q 774 543 738 542 l 774 585 l 772 661 q 778 878 772 714 l 781 975 q 796 988 782 988 l 811 986 q 832 985 817 985 q 856 982 849 985 q 869 968 869 978 l 867 957 q 863 920 865 947 q 854 838 860 893 q 847 648 850 796 q 844 417 844 500 q 839 214 844 358 l 836 122 l 835 67 q 838 26 835 46 l 839 18 q 833 9 839 10 q 825 8 826 8 q 775 6 811 6 q 764 19 764 6 l 765 222 q 765 269 764 244 q 765 313 765 293 l 765 371 l 765 474 l 653 471 q 492 469 593 469 l 361 469 q 279 471 308 469 q 278 435 279 447 q 275 350 275 390 l 274 200 q 281 56 274 90 q 283 35 283 39 q 273 10 283 15 q 251 6 263 6 q 235 7 239 7 q 124 3 186 10 q 95 14 100 0 q 91 53 90 28 q 92 90 92 78 l 89 571 l 92 931 q 98 966 92 958 q 118 974 104 974 l 149 972 q 181 975 156 972 q 204 976 188 976 l 240 975 q 271 974 251 974 q 290 965 286 974 q 292 946 293 956 q 292 932 292 936 q 286 767 292 868 l 281 629 l 276 547 l 360 544 z "},"Ħ":{"ha":947,"x_min":15,"x_max":932,"o":"m 876 801 q 915 801 903 803 q 930 793 928 799 q 932 776 932 788 l 932 731 q 918 716 932 721 q 864 711 904 711 l 849 711 q 844 417 844 544 q 839 214 844 358 l 836 122 l 835 67 q 838 26 835 46 l 839 18 q 833 9 839 10 q 825 8 826 8 q 775 6 811 6 q 764 19 764 6 l 765 222 q 765 269 764 244 q 765 313 765 293 l 765 371 l 765 474 l 653 471 q 492 469 593 469 l 361 469 q 279 471 308 469 q 278 435 279 447 q 275 350 275 390 l 274 200 q 281 56 274 90 q 283 35 283 39 q 273 10 283 15 q 251 6 263 6 q 235 7 239 7 q 124 3 186 10 q 95 14 100 0 q 91 53 90 28 q 92 90 92 78 l 89 571 q 90 714 89 658 q 40 711 51 714 q 19 716 22 711 q 15 731 15 721 l 15 772 q 22 795 15 789 q 49 801 29 801 l 90 801 q 92 931 92 864 q 98 966 92 958 q 118 974 104 974 l 149 972 q 181 975 156 972 q 204 976 188 976 l 240 975 q 271 974 251 974 q 290 965 286 974 q 292 946 293 956 q 292 932 292 936 q 288 801 292 896 l 775 801 l 781 975 q 796 988 782 988 l 811 986 q 832 985 817 985 q 856 982 849 985 q 869 968 869 978 l 867 957 q 863 920 865 947 q 854 838 860 893 q 853 820 853 829 q 851 801 853 811 l 876 801 m 772 661 q 774 713 772 689 q 604 715 657 715 l 285 715 l 281 629 l 276 547 l 360 544 l 411 543 q 504 540 478 540 q 669 542 613 540 q 774 543 738 542 l 774 585 l 772 661 z "},"Ĥ":{"ha":947,"x_min":89,"x_max":869,"o":"m 736 1036 q 714 1015 731 1015 q 676 1025 703 1015 l 639 1035 q 590 1060 615 1044 l 546 1081 l 482 1051 q 403 1022 456 1038 q 350 1018 376 1018 q 326 1025 335 1018 q 317 1040 317 1032 q 326 1057 317 1051 l 364 1081 q 383 1089 368 1082 q 431 1121 397 1096 q 503 1157 486 1153 q 528 1163 515 1163 q 543 1164 533 1164 q 563 1160 554 1164 q 581 1152 572 1157 q 596 1143 589 1147 q 660 1101 636 1115 l 689 1083 q 725 1058 711 1069 q 736 1036 739 1047 m 360 544 l 411 543 q 504 540 478 540 q 669 542 613 540 q 774 543 738 542 l 774 585 l 772 661 q 778 878 772 714 l 781 975 q 796 988 782 988 l 811 986 q 832 985 817 985 q 856 982 849 985 q 869 968 869 978 l 867 957 q 863 920 865 947 q 854 838 860 893 q 847 648 850 796 q 844 417 844 500 q 839 214 844 358 l 836 122 l 835 67 q 838 26 835 46 l 839 18 q 833 9 839 10 q 825 8 826 8 q 775 6 811 6 q 764 19 764 6 l 765 222 q 765 269 764 244 q 765 313 765 293 l 765 371 l 765 474 l 653 471 q 492 469 593 469 l 361 469 q 279 471 308 469 q 278 435 279 447 q 275 350 275 390 l 274 200 q 281 56 274 90 q 283 35 283 39 q 273 10 283 15 q 251 6 263 6 q 235 7 239 7 q 124 3 186 10 q 95 14 100 0 q 91 53 90 28 q 92 90 92 78 l 89 571 l 92 931 q 98 966 92 958 q 118 974 104 974 l 149 972 q 181 975 156 972 q 204 976 188 976 l 240 975 q 271 974 251 974 q 290 965 286 974 q 292 946 293 956 q 292 932 292 936 q 286 767 292 868 l 281 629 l 276 547 l 360 544 z "},"Ḥ":{"ha":947,"x_min":89,"x_max":869,"o":"m 360 544 l 411 543 q 504 540 478 540 q 669 542 613 540 q 774 543 738 542 l 774 585 l 772 661 q 778 878 772 714 l 781 975 q 796 988 782 988 l 811 986 q 832 985 817 985 q 856 982 849 985 q 869 968 869 978 l 867 957 q 863 920 865 947 q 854 838 860 893 q 847 648 850 796 q 844 417 844 500 q 839 214 844 358 l 836 122 l 835 67 q 838 26 835 46 l 839 18 q 833 9 839 10 q 825 8 826 8 q 775 6 811 6 q 764 19 764 6 l 765 222 q 765 269 764 244 q 765 313 765 293 l 765 371 l 765 474 l 653 471 q 492 469 593 469 l 361 469 q 279 471 308 469 q 278 435 279 447 q 275 350 275 390 l 274 200 q 281 56 274 90 q 283 35 283 39 q 273 10 283 15 q 251 6 263 6 q 235 7 239 7 q 124 3 186 10 q 95 14 100 0 q 91 53 90 28 q 92 90 92 78 l 89 571 l 92 931 q 98 966 92 958 q 118 974 104 974 l 149 972 q 181 975 156 972 q 204 976 188 976 l 240 975 q 271 974 251 974 q 290 965 286 974 q 292 946 293 956 q 292 932 292 936 q 286 767 292 868 l 281 629 l 276 547 l 360 544 m 617 -106 q 587 -172 617 -147 q 525 -197 557 -197 q 467 -173 493 -197 q 440 -112 440 -149 q 464 -56 440 -82 q 519 -31 488 -31 q 587 -51 557 -31 q 617 -106 617 -71 z "},"I":{"ha":213,"x_min":61,"x_max":164,"o":"m 161 928 q 154 771 157 897 q 149 574 154 732 q 143 388 143 421 q 146 184 143 307 q 151 38 149 61 q 153 18 153 29 q 149 4 153 8 q 139 -4 146 0 q 96 -10 131 -10 q 78 -10 90 -10 q 64 -7 67 -10 q 61 4 61 -4 l 63 49 l 65 231 l 68 522 q 74 711 68 564 q 78 824 75 746 q 78 917 81 903 l 76 946 q 99 982 76 982 l 150 981 q 164 961 164 981 q 163 945 164 954 q 161 928 161 936 z "},"Ĳ":{"ha":947,"x_min":61,"x_max":850,"o":"m 381 479 q 401 271 381 344 q 455 170 421 197 q 539 143 489 143 q 630 173 594 143 q 681 244 665 203 q 696 324 696 286 l 700 707 q 697 799 697 749 l 699 933 q 706 977 696 968 q 733 986 715 986 q 760 990 742 988 q 793 992 778 992 q 815 990 808 992 q 844 981 839 989 q 849 944 850 974 l 846 519 q 845 498 844 510 q 846 476 846 486 l 846 432 q 583 -10 846 -10 q 372 59 446 -10 q 274 208 297 128 q 251 343 251 288 l 253 463 q 254 522 254 489 q 258 544 254 540 q 275 546 263 547 q 361 556 290 546 q 386 531 386 557 q 383 507 386 522 q 381 479 381 492 m 161 928 q 154 771 157 897 q 149 574 154 732 q 143 388 143 421 q 146 184 143 307 q 151 38 149 61 q 153 18 153 29 q 149 4 153 8 q 139 -4 146 0 q 96 -10 131 -10 q 78 -10 90 -10 q 64 -7 67 -10 q 61 4 61 -4 l 63 49 l 65 231 l 68 522 q 74 711 68 564 q 78 824 75 746 q 78 917 81 903 l 76 946 q 99 982 76 982 l 150 981 q 164 961 164 981 q 163 945 164 954 q 161 928 161 936 z "},"Í":{"ha":244,"x_min":-11,"x_max":278,"o":"m 276 1121 q 249 1092 272 1106 q 208 1074 226 1078 q 90 1028 142 1053 q 70 1021 85 1026 q 46 1015 56 1015 q 17 1025 32 1015 q -11 1056 -11 1035 q -8 1069 -11 1058 q 19 1088 -7 1076 q 61 1104 46 1100 q 92 1116 69 1110 q 146 1136 114 1122 l 176 1147 q 225 1157 206 1157 l 253 1160 q 278 1136 278 1160 q 276 1121 278 1126 m 161 928 q 154 771 157 897 q 149 574 154 732 q 143 388 143 421 q 146 184 143 307 q 151 38 149 61 q 153 18 153 29 q 149 4 153 8 q 139 -4 146 0 q 96 -10 131 -10 q 78 -10 90 -10 q 64 -7 67 -10 q 61 4 61 -4 l 63 49 l 65 231 l 68 522 q 74 711 68 564 q 78 824 75 746 q 78 917 81 903 l 76 946 q 99 982 76 982 l 150 981 q 164 961 164 981 q 163 945 164 954 q 161 928 161 936 z "},"Ĭ":{"ha":213,"x_min":-89,"x_max":325,"o":"m 325 1156 q 319 1114 325 1138 q 296 1076 314 1090 q 242 1043 276 1061 q 108 1025 207 1025 q -29 1046 -1 1032 q -68 1083 -58 1061 q -89 1161 -87 1128 q -80 1165 -89 1164 q -47 1165 -71 1165 q -14 1163 -19 1165 q -8 1151 -8 1161 q 14 1114 -3 1125 q 106 1100 29 1104 q 190 1113 143 1100 q 242 1154 239 1126 q 279 1164 247 1163 q 325 1156 325 1163 m 161 928 q 154 771 157 897 q 149 574 154 732 q 143 388 143 421 q 146 184 143 307 q 151 38 149 61 q 153 18 153 29 q 149 4 153 8 q 139 -4 146 0 q 96 -10 131 -10 q 78 -10 90 -10 q 64 -7 67 -10 q 61 4 61 -4 l 63 49 l 65 231 l 68 522 q 74 711 68 564 q 78 824 75 746 q 78 917 81 903 l 76 946 q 99 982 76 982 l 150 981 q 164 961 164 981 q 163 945 164 954 q 161 928 161 936 z "},"Î":{"ha":244,"x_min":-104,"x_max":318,"o":"m 315 1038 q 293 1017 310 1017 q 256 1026 282 1017 l 218 1036 q 169 1061 194 1046 l 125 1082 l 61 1053 q -18 1024 35 1039 q -71 1019 -46 1019 q -95 1026 -86 1019 q -104 1042 -104 1033 q -93 1058 -104 1051 l -57 1082 q -38 1090 -53 1083 q 10 1122 -24 1097 q 82 1158 65 1154 q 107 1164 94 1164 q 122 1165 113 1165 q 142 1162 133 1165 q 160 1153 151 1158 q 175 1144 168 1149 q 239 1103 214 1118 l 268 1085 q 304 1060 290 1071 q 315 1038 318 1049 m 161 928 q 154 771 157 897 q 149 574 154 732 q 143 388 143 421 q 146 184 143 307 q 151 38 149 61 q 153 18 153 29 q 149 4 153 8 q 139 -4 146 0 q 96 -10 131 -10 q 78 -10 90 -10 q 64 -7 67 -10 q 61 4 61 -4 l 63 49 l 65 231 l 68 522 q 74 711 68 564 q 78 824 75 746 q 78 917 81 903 l 76 946 q 99 982 76 982 l 150 981 q 164 961 164 981 q 163 945 164 954 q 161 928 161 936 z "},"Ï":{"ha":244,"x_min":-106,"x_max":375,"o":"m 213 1081 q 244 1149 213 1131 q 315 1167 275 1167 q 358 1141 342 1167 q 375 1081 375 1115 q 352 1028 375 1050 q 288 1006 329 1006 q 230 1028 247 1006 q 213 1081 213 1050 m 61 1086 q 33 1024 61 1047 q -25 1000 4 1000 q -81 1022 -56 1000 q -106 1081 -106 1044 q -84 1133 -106 1110 q -31 1157 -62 1157 q 33 1138 6 1157 q 61 1086 61 1119 m 161 928 q 154 771 157 897 q 149 574 154 732 q 143 388 143 421 q 146 184 143 307 q 151 38 149 61 q 153 18 153 29 q 149 4 153 8 q 139 -4 146 0 q 96 -10 131 -10 q 78 -10 90 -10 q 64 -7 67 -10 q 61 4 61 -4 l 63 49 l 65 231 l 68 522 q 74 711 68 564 q 78 824 75 746 q 78 917 81 903 l 76 946 q 99 982 76 982 l 150 981 q 164 961 164 981 q 163 945 164 954 q 161 928 161 936 z "},"İ":{"ha":213,"x_min":38,"x_max":214,"o":"m 214 1092 q 184 1025 214 1050 q 122 1000 154 1000 q 64 1024 90 1000 q 38 1085 38 1049 q 61 1141 38 1115 q 117 1167 85 1167 q 184 1147 154 1167 q 214 1092 214 1126 m 158 896 q 151 739 154 865 q 147 578 151 656 q 144 475 147 539 l 143 388 q 146 184 143 307 q 151 38 149 61 q 153 18 153 29 q 149 4 153 8 q 139 -4 146 0 q 96 -10 131 -10 q 78 -10 90 -10 q 64 -7 67 -10 q 61 4 61 -4 l 63 49 l 65 231 l 68 522 q 69 618 68 578 q 72 725 72 699 l 75 822 q 76 863 76 839 q 75 885 76 881 l 74 914 q 96 950 74 950 l 147 949 q 161 929 161 949 q 160 913 161 922 q 158 896 158 904 z "},"Ị":{"ha":213,"x_min":14,"x_max":190,"o":"m 161 928 q 154 771 157 897 q 149 574 154 732 q 143 388 143 421 l 143 307 l 146 219 l 149 139 l 150 110 q 151 81 150 86 q 153 61 153 72 q 149 47 153 51 q 139 39 146 43 q 96 33 131 33 q 78 33 90 33 q 64 36 67 33 q 61 47 61 39 l 63 92 l 63 138 q 64 196 64 161 q 65 271 65 211 q 68 522 68 371 q 74 711 68 564 q 78 824 75 746 q 78 917 81 903 l 76 946 q 99 982 76 982 l 150 981 q 164 961 164 981 q 163 945 164 954 q 161 928 161 936 m 190 -106 q 160 -172 190 -147 q 99 -197 131 -197 q 40 -173 67 -197 q 14 -112 14 -149 q 38 -56 14 -82 q 93 -31 61 -31 q 160 -51 131 -31 q 190 -106 190 -71 z "},"Ì":{"ha":244,"x_min":-51,"x_max":240,"o":"m 238 1067 q 240 1049 240 1053 q 214 1026 240 1026 q 188 1029 207 1026 q 139 1035 172 1028 l 108 1046 q 53 1065 76 1060 q 22 1075 31 1071 q -20 1090 4 1081 q -47 1107 -44 1100 q -51 1122 -51 1115 q -25 1153 -51 1142 q 6 1164 -6 1164 q 28 1159 15 1164 q 49 1153 42 1154 q 110 1128 88 1136 q 168 1113 133 1121 q 190 1103 174 1110 q 221 1088 207 1097 q 238 1067 235 1079 m 161 928 q 154 771 157 897 q 149 574 154 732 q 143 388 143 421 q 146 184 143 307 q 151 38 149 61 q 153 18 153 29 q 149 4 153 8 q 139 -4 146 0 q 96 -10 131 -10 q 78 -10 90 -10 q 64 -7 67 -10 q 61 4 61 -4 l 63 49 l 65 231 l 68 522 q 74 711 68 564 q 78 824 75 746 q 78 917 81 903 l 76 946 q 99 982 76 982 l 150 981 q 164 961 164 981 q 163 945 164 954 q 161 928 161 936 z "},"Ī":{"ha":213,"x_min":-93,"x_max":319,"o":"m 304 1156 q 317 1150 314 1156 q 319 1132 319 1144 l 319 1090 q 314 1076 319 1081 q 289 1072 308 1072 l 239 1074 q 172 1076 192 1076 l -11 1076 q -82 1072 -75 1076 q -91 1076 -89 1072 q -93 1090 -93 1081 l -93 1128 q -90 1148 -93 1142 q -78 1154 -86 1154 l 294 1154 l 304 1156 m 161 928 q 154 771 157 897 q 149 574 154 732 q 143 388 143 421 q 146 184 143 307 q 151 38 149 61 q 153 18 153 29 q 149 4 153 8 q 139 -4 146 0 q 96 -10 131 -10 q 78 -10 90 -10 q 64 -7 67 -10 q 61 4 61 -4 l 63 49 l 65 231 l 68 522 q 74 711 68 564 q 78 824 75 746 q 78 917 81 903 l 76 946 q 99 982 76 982 l 150 981 q 164 961 164 981 q 163 945 164 954 q 161 928 161 936 z "},"Į":{"ha":213,"x_min":22,"x_max":286,"o":"m 258 -103 q 276 -115 267 -103 q 286 -137 286 -128 q 260 -178 286 -156 q 197 -219 233 -201 q 136 -237 161 -236 q 53 -215 81 -239 q 22 -126 25 -192 q 35 -62 22 -100 q 54 -11 44 -36 l 61 3 q 62 19 61 8 q 63 49 63 29 l 65 231 l 68 522 q 74 711 68 564 q 78 824 75 746 q 78 917 81 903 l 76 946 q 99 982 76 982 l 150 981 q 164 961 164 981 q 163 945 164 954 q 161 928 161 936 q 154 771 157 897 q 149 574 154 732 q 143 388 143 421 q 146 184 143 307 q 151 38 149 61 q 153 18 153 29 q 149 4 153 8 q 139 -4 146 0 q 129 -7 133 -7 l 122 -53 q 121 -78 121 -61 q 149 -135 121 -133 q 210 -130 189 -137 q 243 -112 231 -122 q 258 -103 256 -103 z "},"Ĩ":{"ha":244,"x_min":-115,"x_max":371,"o":"m -24 1131 q 38 1136 8 1131 q 76 1143 67 1142 q 242 1154 139 1154 q 331 1149 296 1154 q 365 1140 358 1147 q 371 1126 371 1133 q 371 1114 371 1118 l 371 1093 q 339 1071 371 1071 q 317 1074 329 1071 q 299 1078 304 1076 q 247 1088 269 1088 q 189 1083 217 1086 q 151 1079 161 1081 q 101 1072 122 1074 q 57 1067 72 1069 q -24 1061 10 1061 q -115 1093 -115 1061 l -115 1111 q -112 1143 -115 1133 q -103 1150 -111 1150 q -72 1142 -97 1150 q -24 1131 -47 1135 m 161 928 q 154 771 157 897 q 149 574 154 732 q 143 388 143 421 q 146 184 143 307 q 151 38 149 61 q 153 18 153 29 q 149 4 153 8 q 139 -4 146 0 q 96 -10 131 -10 q 78 -10 90 -10 q 64 -7 67 -10 q 61 4 61 -4 l 63 49 l 65 231 l 68 522 q 74 711 68 564 q 78 824 75 746 q 78 917 81 903 l 76 946 q 99 982 76 982 l 150 981 q 164 961 164 981 q 163 945 164 954 q 161 928 161 936 z "},"J":{"ha":682,"x_min":7,"x_max":606,"o":"m 136 479 q 156 271 136 344 q 210 170 176 197 q 294 143 244 143 q 385 173 350 143 q 436 244 421 203 q 451 324 451 286 l 456 707 q 453 799 453 749 l 454 933 q 461 977 451 968 q 489 986 471 986 q 515 990 497 988 q 549 992 533 992 q 571 990 564 992 q 600 981 594 989 q 604 944 606 974 l 601 519 q 601 498 600 510 q 601 476 601 486 l 601 432 q 339 -10 601 -10 q 127 59 201 -10 q 30 208 53 128 q 7 343 7 288 l 8 463 q 10 522 10 489 q 14 544 10 540 q 31 546 18 547 q 117 556 46 546 q 142 531 142 557 q 139 507 142 522 q 136 479 136 492 z "},"Ĵ":{"ha":703,"x_min":7,"x_max":751,"o":"m 749 1038 q 726 1017 743 1017 q 689 1026 715 1017 l 651 1036 q 603 1061 628 1046 l 558 1082 l 494 1053 q 415 1024 468 1039 q 363 1019 389 1019 q 338 1026 347 1019 q 329 1042 329 1033 q 339 1058 329 1053 l 376 1082 q 395 1090 381 1083 q 443 1122 410 1097 q 515 1158 499 1154 q 540 1164 528 1164 q 556 1165 546 1165 q 576 1162 567 1165 q 593 1153 585 1158 q 608 1144 601 1149 q 672 1103 647 1118 l 701 1085 q 738 1060 724 1071 q 749 1038 751 1049 m 136 479 q 156 271 136 344 q 210 170 176 197 q 294 143 244 143 q 385 173 350 143 q 436 244 421 203 q 451 324 451 286 l 456 707 q 453 799 453 749 l 454 933 q 461 977 451 968 q 489 986 471 986 q 515 990 497 988 q 549 992 533 992 q 571 990 564 992 q 600 981 594 989 q 604 944 606 974 l 601 519 q 601 498 600 510 q 601 476 601 486 l 601 432 q 339 -10 601 -10 q 127 59 201 -10 q 30 208 53 128 q 7 343 7 288 l 8 463 q 10 522 10 489 q 14 544 10 540 q 31 546 18 547 q 117 556 46 546 q 142 531 142 557 q 139 507 142 522 q 136 479 136 492 z "},"K":{"ha":861,"x_min":85,"x_max":804,"o":"m 149 965 q 189 964 175 965 q 215 963 200 964 q 251 964 231 963 l 260 964 q 274 960 271 964 q 278 947 278 956 l 278 896 l 278 854 l 278 797 q 272 590 278 635 q 269 542 269 560 l 271 496 l 274 449 l 296 472 q 336 514 303 481 q 397 577 353 529 q 467 653 442 625 q 519 714 478 668 q 596 794 561 760 q 639 840 618 819 q 726 940 721 931 q 756 964 740 961 q 773 965 760 964 q 794 964 786 965 q 804 954 804 963 q 797 942 804 949 q 761 905 794 939 q 710 856 728 871 q 628 761 696 843 q 549 661 561 679 q 461 567 513 621 l 386 489 q 435 432 379 499 q 508 350 474 385 q 592 253 522 336 q 690 140 681 149 q 765 54 704 128 l 793 21 q 797 10 797 15 q 774 -1 797 -1 l 594 -6 q 566 0 578 -6 q 540 19 554 6 q 467 111 531 28 q 397 200 417 179 q 324 282 372 222 l 274 339 q 272 279 274 297 l 269 190 l 268 94 q 272 28 268 43 q 274 18 274 24 q 269 6 274 8 q 254 4 264 4 l 199 4 l 165 3 q 113 0 129 0 q 96 1 99 0 q 86 10 86 1 q 92 31 86 14 q 89 75 94 40 q 86 96 88 83 q 85 122 85 108 q 90 366 86 199 q 97 557 93 533 q 101 696 101 594 q 100 761 101 749 q 99 819 99 772 q 101 902 99 861 q 106 956 103 943 q 121 969 107 969 q 135 967 128 969 q 149 965 142 965 z "},"Ķ":{"ha":861,"x_min":85,"x_max":804,"o":"m 149 965 q 189 964 175 965 q 215 963 200 964 q 251 964 231 963 l 260 964 q 274 960 271 964 q 278 947 278 956 l 278 896 l 278 854 l 278 797 q 272 590 278 635 q 269 542 269 560 l 271 496 l 274 449 l 296 472 q 336 514 303 481 q 397 577 353 529 q 467 653 442 625 q 519 714 478 668 q 596 794 561 760 q 639 840 618 819 q 726 940 721 931 q 756 964 740 961 q 773 965 760 964 q 794 964 786 965 q 804 954 804 963 q 797 942 804 949 q 761 905 794 939 q 710 856 728 871 q 628 761 696 843 q 549 661 561 679 q 461 567 513 621 l 386 489 q 435 432 379 499 q 508 350 474 385 q 592 253 522 336 q 690 140 681 149 q 765 54 704 128 l 793 21 q 797 10 797 15 q 774 -1 797 -1 l 594 -6 q 566 0 578 -6 q 540 19 554 6 q 467 111 531 28 q 397 200 417 179 q 324 282 372 222 l 274 339 q 272 279 274 297 l 269 190 l 268 94 q 272 28 268 43 q 274 18 274 24 q 269 6 274 8 q 254 4 264 4 l 199 4 l 165 3 q 113 0 129 0 q 96 1 99 0 q 86 10 86 1 q 92 31 86 14 q 89 75 94 40 q 86 96 88 83 q 85 122 85 108 q 90 366 86 199 q 97 557 93 533 q 101 696 101 594 q 100 761 101 749 q 99 819 99 772 q 101 902 99 861 q 106 956 103 943 q 121 969 107 969 q 135 967 128 969 q 149 965 142 965 m 446 -57 q 453 -68 460 -57 q 446 -92 451 -83 q 440 -110 444 -97 q 432 -133 436 -122 l 415 -186 q 396 -244 403 -226 q 389 -275 389 -269 q 378 -293 385 -287 q 336 -294 374 -294 q 292 -293 299 -294 q 285 -290 286 -293 q 283 -284 283 -287 q 283 -279 283 -281 l 326 -143 l 338 -99 l 347 -71 q 368 -57 349 -57 l 446 -57 z "},"L":{"ha":728,"x_min":88,"x_max":728,"o":"m 350 828 q 344 657 344 714 l 347 447 q 349 344 349 397 l 346 193 l 344 165 l 346 126 l 349 78 l 547 71 l 713 69 l 715 69 q 725 67 724 69 q 726 59 726 64 q 725 51 725 54 q 726 31 724 46 q 728 3 728 15 q 721 -10 728 -7 q 703 -12 714 -12 q 688 -11 693 -11 l 614 -7 q 476 1 517 1 q 251 -7 432 1 l 125 -11 q 94 17 94 -11 l 94 125 l 100 590 q 93 782 100 643 l 88 953 q 106 976 88 976 q 129 972 113 976 q 156 968 146 968 q 249 963 194 963 q 319 967 286 963 q 349 964 340 969 q 357 946 357 958 q 355 926 357 936 q 353 903 353 915 l 350 828 z "},"Ǉ":{"ha":1410,"x_min":88,"x_max":1333,"o":"m 864 479 q 884 271 864 344 q 938 170 904 197 q 1022 143 972 143 q 1113 173 1078 143 q 1164 244 1149 203 q 1179 324 1179 286 l 1183 707 q 1181 799 1181 749 l 1182 933 q 1189 977 1179 968 q 1217 986 1199 986 q 1243 990 1225 988 q 1276 992 1261 992 q 1299 990 1292 992 q 1328 981 1322 989 q 1332 944 1333 974 l 1329 519 q 1328 498 1328 510 q 1329 476 1329 486 l 1329 432 q 1067 -10 1329 -10 q 855 59 929 -10 q 758 208 781 128 q 735 343 735 288 l 736 463 q 738 522 738 489 q 742 544 738 540 q 758 546 746 547 q 844 556 774 546 q 869 531 869 557 q 867 507 869 522 q 864 479 864 492 m 350 828 q 344 657 344 714 l 347 447 q 349 344 349 397 l 346 193 l 344 165 l 346 126 l 349 78 l 547 71 l 713 69 l 715 69 q 725 67 724 69 q 726 59 726 64 q 725 51 725 54 q 726 31 724 46 q 728 3 728 15 q 721 -10 728 -7 q 703 -12 714 -12 q 688 -11 693 -11 l 614 -7 q 476 1 517 1 q 251 -7 432 1 l 125 -11 q 94 17 94 -11 l 94 125 l 100 590 q 93 782 100 643 l 88 953 q 106 976 88 976 q 129 972 113 976 q 156 968 146 968 q 249 963 194 963 q 319 967 286 963 q 349 964 340 969 q 357 946 357 958 q 355 926 357 936 q 353 903 353 915 l 350 828 z "},"Ĺ":{"ha":728,"x_min":88,"x_max":728,"o":"m 408 1126 q 381 1097 404 1111 q 340 1079 358 1083 q 222 1033 274 1058 q 202 1026 217 1032 q 178 1021 188 1021 q 149 1031 164 1021 q 121 1061 121 1040 q 124 1075 121 1064 q 151 1094 125 1082 q 193 1110 178 1106 q 224 1122 201 1115 q 278 1142 246 1128 l 308 1153 q 357 1163 338 1163 l 385 1165 q 410 1142 410 1165 q 408 1126 410 1132 m 350 828 q 344 657 344 714 l 347 447 q 349 344 349 397 l 346 193 l 344 165 l 346 126 l 349 78 l 547 71 l 713 69 l 715 69 q 725 67 724 69 q 726 59 726 64 q 725 51 725 54 q 726 31 724 46 q 728 3 728 15 q 721 -10 728 -7 q 703 -12 714 -12 q 688 -11 693 -11 l 614 -7 q 476 1 517 1 q 251 -7 432 1 l 125 -11 q 94 17 94 -11 l 94 125 l 100 590 q 93 782 100 643 l 88 953 q 106 976 88 976 q 129 972 113 976 q 156 968 146 968 q 249 963 194 963 q 319 967 286 963 q 349 964 340 969 q 357 946 357 958 q 355 926 357 936 q 353 903 353 915 l 350 828 z "},"Ľ":{"ha":728,"x_min":88,"x_max":728,"o":"m 614 1117 q 631 1108 631 1117 q 626 1097 631 1104 q 614 1061 615 1065 q 603 1033 613 1053 l 588 996 q 566 934 579 978 q 553 885 553 890 q 545 871 551 882 q 531 856 539 860 q 492 853 514 853 q 447 856 475 853 q 432 860 435 856 q 430 869 429 864 q 431 878 431 875 l 463 981 l 488 1050 l 506 1094 q 517 1111 507 1106 q 544 1117 528 1117 l 614 1117 m 350 828 q 344 657 344 714 l 347 447 q 349 344 349 397 l 346 193 l 344 165 l 346 126 l 349 78 l 547 71 l 713 69 l 715 69 q 725 67 724 69 q 726 59 726 64 q 725 51 725 54 q 726 31 724 46 q 728 3 728 15 q 721 -10 728 -7 q 703 -12 714 -12 q 688 -11 693 -11 l 614 -7 q 476 1 517 1 q 251 -7 432 1 l 125 -11 q 94 17 94 -11 l 94 125 l 100 590 q 93 782 100 643 l 88 953 q 106 976 88 976 q 129 972 113 976 q 156 968 146 968 q 249 963 194 963 q 319 967 286 963 q 349 964 340 969 q 357 946 357 958 q 355 926 357 936 q 353 903 353 915 l 350 828 z "},"Ļ":{"ha":728,"x_min":88,"x_max":728,"o":"m 350 828 q 344 657 344 714 l 347 447 q 349 344 349 397 l 346 193 l 344 165 l 346 126 l 349 78 l 547 71 l 713 69 l 715 69 q 725 67 724 69 q 726 59 726 64 q 725 51 725 54 q 726 31 724 46 q 728 3 728 15 q 721 -10 728 -7 q 703 -12 714 -12 q 688 -11 693 -11 l 614 -7 q 476 1 517 1 q 251 -7 432 1 l 125 -11 q 94 17 94 -11 l 94 125 l 100 590 q 93 782 100 643 l 88 953 q 106 976 88 976 q 129 972 113 976 q 156 968 146 968 q 249 963 194 963 q 319 967 286 963 q 349 964 340 969 q 357 946 357 958 q 355 926 357 936 q 353 903 353 915 l 350 828 m 451 -57 q 458 -68 465 -57 q 451 -92 457 -83 q 446 -110 450 -97 q 438 -133 442 -122 l 421 -186 q 401 -244 408 -226 q 394 -275 394 -269 q 383 -293 390 -287 q 342 -294 379 -294 q 297 -293 304 -294 q 290 -290 292 -293 q 289 -284 289 -287 q 289 -279 289 -281 l 332 -143 l 343 -99 l 353 -71 q 374 -57 354 -57 l 451 -57 z "},"Ŀ":{"ha":728,"x_min":88,"x_max":728,"o":"m 350 828 q 344 657 344 714 l 347 447 q 349 344 349 397 l 346 193 l 344 165 l 346 126 l 349 78 l 547 71 l 713 69 l 715 69 q 725 67 724 69 q 726 59 726 64 q 725 51 725 54 q 726 31 724 46 q 728 3 728 15 q 721 -10 728 -7 q 703 -12 714 -12 q 688 -11 693 -11 l 614 -7 q 476 1 517 1 q 251 -7 432 1 l 125 -11 q 94 17 94 -11 l 94 125 l 100 590 q 93 782 100 643 l 88 953 q 106 976 88 976 q 129 972 113 976 q 156 968 146 968 q 249 963 194 963 q 319 967 286 963 q 349 964 340 969 q 357 946 357 958 q 355 926 357 936 q 353 903 353 915 l 350 828 m 535 631 q 640 507 640 631 q 608 449 640 474 q 535 425 575 425 q 464 453 493 425 q 435 536 435 482 q 463 611 435 592 q 535 631 492 631 z "},"Ł":{"ha":806,"x_min":35,"x_max":803,"o":"m 800 51 q 801 31 799 46 q 803 3 803 15 q 796 -10 803 -7 q 778 -12 789 -12 q 763 -11 768 -11 l 689 -7 q 551 1 592 1 q 326 -7 507 1 l 200 -11 q 169 17 169 -11 l 169 125 l 172 389 l 135 371 q 107 363 118 363 q 82 379 93 363 l 43 451 q 93 497 35 475 q 136 517 118 510 l 175 531 l 175 590 q 168 782 175 643 l 163 953 q 181 976 163 976 q 204 972 188 976 q 231 968 221 968 q 324 963 269 963 q 394 967 361 963 q 424 964 415 969 q 432 946 432 958 q 430 926 432 936 q 428 903 428 915 l 425 828 q 419 657 419 714 l 419 638 l 454 653 q 489 672 457 654 q 514 686 506 685 l 518 686 q 539 671 532 686 l 558 600 q 561 582 561 586 q 539 554 561 565 l 421 503 l 424 344 l 421 193 l 419 165 l 421 126 l 424 78 l 622 71 l 788 69 l 790 69 q 800 67 799 69 q 801 59 801 64 q 800 51 800 54 z "},"M":{"ha":978,"x_min":86,"x_max":899,"o":"m 260 906 q 292 801 267 868 q 342 685 318 735 q 394 577 361 651 q 440 460 426 503 q 464 404 449 438 l 485 354 l 514 289 q 572 404 554 368 l 663 585 l 725 710 q 790 839 774 810 q 846 940 817 893 q 888 986 875 986 q 899 968 899 986 q 892 924 899 951 l 886 889 q 881 556 881 851 q 877 397 881 490 q 871 274 874 304 q 868 167 868 238 l 869 32 l 869 25 q 861 11 869 8 l 858 11 q 842 10 851 11 q 824 8 833 8 q 816 15 818 10 q 814 35 814 21 l 814 117 q 817 283 814 258 q 823 392 819 313 q 826 519 826 471 q 828 597 825 532 l 829 647 l 832 747 q 815 718 822 733 q 789 667 801 694 l 775 639 q 721 531 751 593 q 668 426 690 469 q 605 298 643 376 q 546 174 567 219 q 504 89 510 89 q 492 103 500 89 q 481 121 483 117 q 450 185 471 136 q 417 272 429 235 q 344 413 408 297 q 293 513 294 508 q 256 606 279 540 q 232 667 240 640 l 229 606 l 226 511 l 224 238 l 222 21 q 215 6 222 8 q 199 3 208 3 q 183 4 189 4 l 153 3 q 117 0 128 0 q 92 9 96 0 q 90 47 89 18 q 89 135 90 93 l 86 306 q 89 387 86 344 q 93 463 92 429 q 100 603 100 563 l 103 864 l 101 939 q 108 994 101 988 q 118 999 113 999 q 131 996 122 999 q 151 994 139 993 q 186 996 164 996 q 225 993 213 996 q 243 973 238 989 q 253 937 249 957 q 260 906 257 917 z "},"N":{"ha":939,"x_min":82,"x_max":854,"o":"m 314 1006 q 359 999 344 1006 q 382 978 374 993 q 417 903 396 949 l 468 792 l 533 649 q 581 546 551 610 q 622 457 610 482 q 653 397 646 408 l 692 321 l 735 236 l 732 317 l 726 453 l 726 494 q 729 649 726 571 q 728 743 729 707 l 726 849 l 732 982 q 753 1003 732 1003 q 781 999 760 1003 q 807 996 793 996 q 829 996 821 996 q 844 993 840 996 q 847 983 847 990 q 846 971 847 978 q 844 956 844 964 l 843 836 l 840 556 l 839 515 q 840 429 839 468 q 843 365 842 390 q 847 265 847 306 q 851 100 847 271 l 854 22 l 854 19 q 828 -6 854 -8 q 811 -4 824 -4 l 771 -6 l 763 -6 q 748 -1 753 -6 q 732 22 743 3 q 721 50 728 32 q 704 90 714 68 q 618 294 644 240 q 464 629 588 353 q 401 750 436 686 l 361 822 l 365 690 l 367 608 q 369 488 369 517 q 374 258 369 374 l 375 150 q 378 65 375 121 l 381 17 l 381 14 q 374 -4 381 0 q 354 -8 367 -8 l 324 -10 q 261 -14 294 -14 q 197 -15 222 -14 l 126 -17 q 99 -9 106 -17 q 90 8 92 -1 q 88 22 89 18 q 82 83 82 47 q 83 140 82 117 q 86 309 83 213 q 93 447 89 406 l 100 546 q 117 806 117 776 q 121 969 117 915 q 160 1007 124 1007 q 181 1006 171 1007 q 196 1004 190 1004 l 314 1006 z "},"Ǌ":{"ha":1621,"x_min":82,"x_max":1544,"o":"m 314 1006 q 359 999 344 1006 q 382 978 374 993 q 417 903 396 949 l 468 792 l 533 649 q 581 546 551 610 q 622 457 610 482 q 653 397 646 408 l 692 321 l 735 236 l 732 317 l 726 453 l 726 494 q 729 649 726 571 q 728 743 729 707 l 726 849 l 732 982 q 753 1003 732 1003 q 781 999 760 1003 q 807 996 793 996 q 829 996 821 996 q 844 993 840 996 q 847 983 847 990 q 846 971 847 978 q 844 956 844 964 l 843 836 l 840 556 l 839 515 q 840 429 839 468 q 843 365 842 390 q 847 265 847 306 q 851 100 847 271 l 854 22 l 854 19 q 828 -6 854 -8 q 811 -4 824 -4 l 771 -6 l 763 -6 q 748 -1 753 -6 q 732 22 743 3 q 721 50 728 32 q 704 90 714 68 q 618 294 644 240 q 464 629 588 353 q 401 750 436 686 l 361 822 l 365 690 l 367 608 q 369 488 369 517 q 374 258 369 374 l 375 150 q 378 65 375 121 l 381 17 l 381 14 q 374 -4 381 0 q 354 -8 367 -8 l 324 -10 q 261 -14 294 -14 q 197 -15 222 -14 l 126 -17 q 99 -9 106 -17 q 90 8 92 -1 q 88 22 89 18 q 82 83 82 47 q 83 140 82 117 q 86 309 83 213 q 93 447 89 406 l 100 546 q 117 806 117 776 q 121 969 117 915 q 160 1007 124 1007 q 181 1006 171 1007 q 196 1004 190 1004 l 314 1006 m 1075 479 q 1095 271 1075 344 q 1149 170 1115 197 q 1233 143 1183 143 q 1324 173 1289 143 q 1375 244 1360 203 q 1390 324 1390 286 l 1394 707 q 1392 799 1392 749 l 1393 933 q 1400 977 1390 968 q 1428 986 1410 986 q 1454 990 1436 988 q 1488 992 1472 992 q 1510 990 1503 992 q 1539 981 1533 989 q 1543 944 1544 974 l 1540 519 q 1540 498 1539 510 q 1540 476 1540 486 l 1540 432 q 1278 -10 1540 -10 q 1066 59 1140 -10 q 969 208 992 128 q 946 343 946 288 l 947 463 q 949 522 949 489 q 953 544 949 540 q 969 546 957 547 q 1056 556 985 546 q 1081 531 1081 557 q 1078 507 1081 522 q 1075 479 1075 492 z "},"Ń":{"ha":913,"x_min":82,"x_max":854,"o":"m 657 1121 q 630 1092 653 1106 q 589 1074 607 1078 q 471 1028 522 1053 q 451 1021 465 1026 q 426 1015 436 1015 q 397 1025 413 1015 q 369 1056 369 1035 q 372 1069 369 1058 q 400 1088 374 1076 q 442 1104 426 1100 q 472 1116 450 1110 q 526 1136 494 1122 l 557 1147 q 606 1157 586 1157 l 633 1160 q 658 1136 658 1160 q 657 1121 658 1126 m 314 1006 q 359 999 344 1006 q 382 978 374 993 q 417 903 396 949 l 468 792 l 533 649 q 581 546 551 610 q 622 457 610 482 q 653 397 646 408 l 692 321 l 735 236 l 732 317 l 726 453 l 726 494 q 729 649 726 571 q 728 743 729 707 l 726 849 l 732 982 q 753 1003 732 1003 q 781 999 760 1003 q 807 996 793 996 q 829 996 821 996 q 844 993 840 996 q 847 983 847 990 q 846 971 847 978 q 844 956 844 964 l 843 836 l 840 556 l 839 515 q 840 429 839 468 q 843 365 842 390 q 847 265 847 306 q 851 100 847 271 l 854 22 l 854 19 q 828 -6 854 -8 q 811 -4 824 -4 l 771 -6 l 763 -6 q 748 -1 753 -6 q 732 22 743 3 q 721 50 728 32 q 704 90 714 68 q 618 294 644 240 q 464 629 588 353 q 401 750 436 686 l 361 822 l 365 690 l 367 608 q 369 488 369 517 q 374 258 369 374 l 375 150 q 378 65 375 121 l 381 17 l 381 14 q 374 -4 381 0 q 354 -8 367 -8 l 324 -10 q 261 -14 294 -14 q 197 -15 222 -14 l 126 -17 q 99 -9 106 -17 q 90 8 92 -1 q 88 22 89 18 q 82 83 82 47 q 83 140 82 117 q 86 309 83 213 q 93 447 89 406 l 100 546 q 117 806 117 776 q 121 969 117 915 q 160 1007 124 1007 q 181 1006 171 1007 q 196 1004 190 1004 l 314 1006 z "},"Ň":{"ha":939,"x_min":82,"x_max":854,"o":"m 343 1143 q 365 1164 349 1164 q 403 1154 376 1164 l 440 1144 q 489 1119 464 1135 l 533 1099 q 596 1128 581 1119 q 676 1157 625 1142 q 729 1161 703 1161 q 753 1155 744 1161 q 763 1139 763 1149 q 751 1122 763 1129 l 715 1099 q 697 1090 711 1097 q 649 1058 682 1083 q 576 1022 593 1026 q 551 1017 564 1017 q 536 1015 546 1015 q 516 1019 525 1015 q 499 1027 507 1022 q 483 1036 490 1032 q 419 1078 444 1064 l 390 1096 q 354 1121 368 1110 q 343 1143 340 1132 m 314 1006 q 359 999 344 1006 q 382 978 374 993 q 417 903 396 949 l 468 792 l 533 649 q 581 546 551 610 q 622 457 610 482 q 653 397 646 408 l 692 321 l 735 236 l 732 317 l 726 453 l 726 494 q 729 649 726 571 q 728 743 729 707 l 726 849 l 732 982 q 753 1003 732 1003 q 781 999 760 1003 q 807 996 793 996 q 829 996 821 996 q 844 993 840 996 q 847 983 847 990 q 846 971 847 978 q 844 956 844 964 l 843 836 l 840 556 l 839 515 q 840 429 839 468 q 843 365 842 390 q 847 265 847 306 q 851 100 847 271 l 854 22 l 854 19 q 828 -6 854 -8 q 811 -4 824 -4 l 771 -6 l 763 -6 q 748 -1 753 -6 q 732 22 743 3 q 721 50 728 32 q 704 90 714 68 q 618 294 644 240 q 464 629 588 353 q 401 750 436 686 l 361 822 l 365 690 l 367 608 q 369 488 369 517 q 374 258 369 374 l 375 150 q 378 65 375 121 l 381 17 l 381 14 q 374 -4 381 0 q 354 -8 367 -8 l 324 -10 q 261 -14 294 -14 q 197 -15 222 -14 l 126 -17 q 99 -9 106 -17 q 90 8 92 -1 q 88 22 89 18 q 82 83 82 47 q 83 140 82 117 q 86 309 83 213 q 93 447 89 406 l 100 546 q 117 806 117 776 q 121 969 117 915 q 160 1007 124 1007 q 181 1006 171 1007 q 196 1004 190 1004 l 314 1006 z "},"Ņ":{"ha":939,"x_min":82,"x_max":854,"o":"m 314 1006 q 359 999 344 1006 q 382 978 374 993 q 417 903 396 949 l 468 792 l 533 649 q 581 546 551 610 q 622 457 610 482 q 653 397 646 408 l 692 321 l 735 236 l 732 317 l 726 453 l 726 494 q 729 649 726 571 q 728 743 729 707 l 726 849 l 732 982 q 753 1003 732 1003 q 781 999 760 1003 q 807 996 793 996 q 829 996 821 996 q 844 993 840 996 q 847 983 847 990 q 846 971 847 978 q 844 956 844 964 l 843 836 l 840 556 l 839 515 q 840 429 839 468 q 843 365 842 390 q 847 265 847 306 q 851 100 847 271 l 854 22 l 854 19 q 828 -6 854 -8 q 811 -4 824 -4 l 771 -6 l 763 -6 q 748 -1 753 -6 q 732 22 743 3 q 721 50 728 32 q 704 90 714 68 q 618 294 644 240 q 464 629 588 353 q 401 750 436 686 l 361 822 l 365 690 l 367 608 q 369 488 369 517 q 374 258 369 374 l 375 150 q 378 65 375 121 l 381 17 l 381 14 q 374 -4 381 0 q 354 -8 367 -8 l 324 -10 q 261 -14 294 -14 q 197 -15 222 -14 l 126 -17 q 99 -9 106 -17 q 90 8 92 -1 q 88 22 89 18 q 82 83 82 47 q 83 140 82 117 q 86 309 83 213 q 93 447 89 406 l 100 546 q 117 806 117 776 q 121 969 117 915 q 160 1007 124 1007 q 181 1006 171 1007 q 196 1004 190 1004 l 314 1006 m 601 -57 q 608 -68 615 -57 q 601 -92 607 -83 q 596 -110 600 -97 q 588 -133 592 -122 l 571 -186 q 551 -244 558 -226 q 544 -275 544 -269 q 533 -293 540 -287 q 492 -294 529 -294 q 447 -293 454 -294 q 440 -290 442 -293 q 439 -284 439 -287 q 439 -279 439 -281 l 482 -143 l 493 -99 l 503 -71 q 524 -57 504 -57 l 601 -57 z "},"Ṅ":{"ha":939,"x_min":82,"x_max":854,"o":"m 621 1092 q 591 1025 621 1050 q 529 1000 561 1000 q 471 1024 497 1000 q 444 1085 444 1049 q 468 1141 444 1115 q 524 1167 492 1167 q 591 1147 561 1167 q 621 1092 621 1126 m 314 1006 q 359 999 344 1006 q 382 978 374 993 q 417 903 396 949 l 468 792 l 533 649 q 581 546 551 610 q 622 457 610 482 q 653 397 646 408 l 692 321 l 735 236 l 732 317 l 726 453 l 726 494 q 729 649 726 571 q 728 743 729 707 l 726 849 l 732 982 q 753 1003 732 1003 q 781 999 760 1003 q 807 996 793 996 q 829 996 821 996 q 844 993 840 996 q 847 983 847 990 q 846 971 847 978 q 844 956 844 964 l 843 836 l 840 556 l 839 515 q 840 429 839 468 q 843 365 842 390 q 847 265 847 306 q 851 100 847 271 l 854 22 l 854 19 q 828 -6 854 -8 q 811 -4 824 -4 l 771 -6 l 763 -6 q 748 -1 753 -6 q 732 22 743 3 q 721 50 728 32 q 704 90 714 68 q 618 294 644 240 q 464 629 588 353 q 401 750 436 686 l 361 822 l 365 690 l 367 608 q 369 488 369 517 q 374 258 369 374 l 375 150 q 378 65 375 121 l 381 17 l 381 14 q 374 -4 381 0 q 354 -8 367 -8 l 324 -10 q 261 -14 294 -14 q 197 -15 222 -14 l 126 -17 q 99 -9 106 -17 q 90 8 92 -1 q 88 22 89 18 q 82 83 82 47 q 83 140 82 117 q 86 309 83 213 q 93 447 89 406 l 100 546 q 117 806 117 776 q 121 969 117 915 q 160 1007 124 1007 q 181 1006 171 1007 q 196 1004 190 1004 l 314 1006 z "},"Ŋ":{"ha":939,"x_min":82,"x_max":853,"o":"m 853 -57 q 838 -137 853 -94 q 793 -215 824 -179 q 705 -283 761 -257 q 594 -310 649 -310 q 475 -282 543 -310 q 376 -212 408 -254 q 321 -76 343 -168 q 369 -28 328 -32 q 453 -33 415 -25 q 496 -67 492 -43 q 526 -156 503 -126 q 592 -189 549 -186 q 672 -125 650 -181 q 693 40 693 -69 q 679 150 693 117 l 618 294 q 464 629 588 353 q 401 750 436 686 l 361 822 l 365 690 l 367 608 q 369 488 369 517 q 372 311 369 411 l 374 261 q 375 232 375 250 q 378 147 375 203 l 381 99 l 381 96 q 374 78 381 82 q 354 74 367 74 l 324 72 q 261 68 294 68 q 197 67 222 68 l 126 65 q 99 73 106 65 q 90 90 92 81 q 88 104 89 100 q 82 165 82 129 q 83 222 82 199 q 85 267 83 257 q 86 313 86 276 q 93 447 90 421 l 100 546 q 117 806 117 776 q 121 969 117 915 q 160 1007 124 1007 q 181 1006 171 1007 q 196 1004 190 1004 l 314 1006 q 359 999 344 1006 q 382 978 374 993 q 417 903 396 949 l 468 792 l 533 649 q 581 546 551 610 q 622 457 610 482 q 653 397 646 408 l 692 321 l 735 236 l 732 317 l 726 453 l 726 494 q 729 649 726 571 q 728 743 729 707 l 726 849 l 732 982 q 753 1003 732 1003 q 781 999 760 1003 q 807 996 793 996 q 829 996 821 996 q 844 993 840 996 q 847 983 847 990 q 846 971 847 978 q 844 956 844 964 l 843 836 l 840 556 l 839 515 q 840 429 839 468 q 843 365 842 390 q 847 265 847 306 q 849 213 847 233 l 850 131 q 851 36 851 115 l 853 -57 z "},"Ñ":{"ha":939,"x_min":82,"x_max":854,"o":"m 363 1131 q 424 1136 394 1131 q 463 1143 453 1142 q 628 1154 525 1154 q 717 1149 682 1154 q 751 1140 744 1147 q 757 1126 757 1133 q 757 1114 757 1118 l 757 1093 q 725 1071 757 1071 q 703 1074 715 1071 q 685 1078 690 1076 q 633 1088 656 1088 q 575 1083 603 1086 q 538 1079 547 1081 q 488 1072 508 1074 q 443 1067 458 1069 q 363 1061 396 1061 q 271 1093 271 1061 l 271 1111 q 274 1143 271 1133 q 283 1150 275 1150 q 314 1142 289 1150 q 363 1131 339 1135 m 314 1006 q 359 999 344 1006 q 382 978 374 993 q 417 903 396 949 l 468 792 l 533 649 q 581 546 551 610 q 622 457 610 482 q 653 397 646 408 l 692 321 l 735 236 l 732 317 l 726 453 l 726 494 q 729 649 726 571 q 728 743 729 707 l 726 849 l 732 982 q 753 1003 732 1003 q 781 999 760 1003 q 807 996 793 996 q 829 996 821 996 q 844 993 840 996 q 847 983 847 990 q 846 971 847 978 q 844 956 844 964 l 843 836 l 840 556 l 839 515 q 840 429 839 468 q 843 365 842 390 q 847 265 847 306 q 851 100 847 271 l 854 22 l 854 19 q 828 -6 854 -8 q 811 -4 824 -4 l 771 -6 l 763 -6 q 748 -1 753 -6 q 732 22 743 3 q 721 50 728 32 q 704 90 714 68 q 618 294 644 240 q 464 629 588 353 q 401 750 436 686 l 361 822 l 365 690 l 367 608 q 369 488 369 517 q 374 258 369 374 l 375 150 q 378 65 375 121 l 381 17 l 381 14 q 374 -4 381 0 q 354 -8 367 -8 l 324 -10 q 261 -14 294 -14 q 197 -15 222 -14 l 126 -17 q 99 -9 106 -17 q 90 8 92 -1 q 88 22 89 18 q 82 83 82 47 q 83 140 82 117 q 86 309 83 213 q 93 447 89 406 l 100 546 q 117 806 117 776 q 121 969 117 915 q 160 1007 124 1007 q 181 1006 171 1007 q 196 1004 190 1004 l 314 1006 z "},"O":{"ha":756,"x_min":60,"x_max":696,"o":"m 379 992 q 588 912 518 992 q 676 723 657 832 q 696 476 696 614 q 663 248 696 365 q 560 50 629 131 q 389 -31 490 -31 q 125 137 190 -31 q 60 496 60 304 q 110 792 60 681 q 234 947 161 903 q 379 992 307 992 m 378 322 q 433 364 415 322 q 451 464 451 406 q 434 561 451 519 q 388 603 417 603 q 335 555 353 603 q 318 451 318 507 q 329 358 318 394 q 378 322 340 322 z "},"Ó":{"ha":706,"x_min":60,"x_max":696,"o":"m 535 1119 q 508 1090 531 1104 q 467 1072 485 1076 q 349 1026 400 1051 q 328 1019 343 1025 q 304 1014 314 1014 q 275 1024 290 1014 q 247 1054 247 1033 q 250 1068 247 1057 q 278 1087 251 1075 q 319 1103 304 1099 q 350 1115 328 1108 q 404 1135 372 1121 l 435 1146 q 483 1156 464 1156 l 511 1158 q 536 1135 536 1158 q 535 1119 536 1125 m 379 992 q 588 912 518 992 q 676 723 657 832 q 696 476 696 614 q 663 248 696 365 q 560 50 629 131 q 389 -31 490 -31 q 125 137 190 -31 q 60 496 60 304 q 110 792 60 681 q 234 947 161 903 q 379 992 307 992 m 378 322 q 433 364 415 322 q 451 464 451 406 q 434 561 451 519 q 388 603 417 603 q 335 555 353 603 q 318 451 318 507 q 329 358 318 394 q 378 322 340 322 z "},"Ŏ":{"ha":756,"x_min":60,"x_max":696,"o":"m 607 1156 q 601 1114 607 1138 q 578 1076 596 1090 q 524 1043 558 1061 q 390 1025 489 1025 q 251 1046 278 1032 q 214 1083 224 1060 q 193 1161 194 1128 q 202 1165 193 1164 q 233 1165 211 1165 q 268 1163 263 1165 q 274 1151 274 1161 q 296 1114 279 1125 q 388 1100 311 1104 q 472 1113 424 1100 q 524 1154 521 1126 q 561 1164 529 1163 q 607 1156 607 1163 m 379 992 q 588 912 518 992 q 676 723 657 832 q 696 476 696 614 q 663 248 696 365 q 560 50 629 131 q 389 -31 490 -31 q 125 137 190 -31 q 60 496 60 304 q 110 792 60 681 q 234 947 161 903 q 379 992 307 992 m 378 322 q 433 364 415 322 q 451 464 451 406 q 434 561 451 519 q 388 603 417 603 q 335 555 353 603 q 318 451 318 507 q 329 358 318 394 q 378 322 340 322 z "},"Ô":{"ha":706,"x_min":60,"x_max":696,"o":"m 588 1038 q 565 1017 582 1017 q 528 1026 554 1017 l 490 1036 q 442 1061 467 1046 l 397 1082 l 333 1053 q 254 1024 307 1039 q 201 1019 228 1019 q 177 1026 186 1019 q 168 1042 168 1033 q 178 1058 168 1053 l 215 1082 q 234 1090 219 1083 q 282 1122 249 1097 q 354 1158 338 1154 q 379 1164 367 1164 q 394 1165 385 1165 q 415 1162 406 1165 q 432 1153 424 1158 q 447 1144 440 1149 q 511 1103 486 1118 l 540 1085 q 576 1060 563 1071 q 588 1038 590 1049 m 379 992 q 588 912 518 992 q 676 723 657 832 q 696 476 696 614 q 663 248 696 365 q 560 50 629 131 q 389 -31 490 -31 q 125 137 190 -31 q 60 496 60 304 q 110 792 60 681 q 234 947 161 903 q 379 992 307 992 m 378 322 q 433 364 415 322 q 451 464 451 406 q 434 561 451 519 q 388 603 417 603 q 335 555 353 603 q 318 451 318 507 q 329 358 318 394 q 378 322 340 322 z "},"Ö":{"ha":706,"x_min":60,"x_max":696,"o":"m 472 1081 q 503 1149 472 1131 q 575 1167 535 1167 q 618 1141 601 1167 q 635 1081 635 1115 q 612 1028 635 1050 q 547 1006 589 1006 q 490 1028 507 1006 q 472 1081 472 1050 m 321 1086 q 292 1024 321 1047 q 235 1000 264 1000 q 179 1022 204 1000 q 154 1081 154 1044 q 176 1133 154 1110 q 229 1157 197 1157 q 293 1138 265 1157 q 321 1086 321 1119 m 379 992 q 588 912 518 992 q 676 723 657 832 q 696 476 696 614 q 663 248 696 365 q 560 50 629 131 q 389 -31 490 -31 q 125 137 190 -31 q 60 496 60 304 q 110 792 60 681 q 234 947 161 903 q 379 992 307 992 m 378 322 q 433 364 415 322 q 451 464 451 406 q 434 561 451 519 q 388 603 417 603 q 335 555 353 603 q 318 451 318 507 q 329 358 318 394 q 378 322 340 322 z "},"Ọ":{"ha":756,"x_min":60,"x_max":697,"o":"m 379 992 q 588 912 518 992 q 676 723 657 832 q 696 476 696 614 q 678 315 697 393 q 624 188 660 236 q 520 71 576 117 q 389 25 464 25 q 108 219 203 25 q 76 308 86 272 q 60 496 60 385 q 110 792 60 681 q 234 947 161 903 q 379 992 307 992 m 378 322 q 433 364 415 322 q 451 464 451 406 q 434 561 451 519 q 388 603 417 603 q 335 555 353 603 q 318 451 318 507 q 329 358 318 394 q 378 322 340 322 m 468 -106 q 438 -172 468 -147 q 376 -197 408 -197 q 318 -173 344 -197 q 292 -112 292 -149 q 315 -56 292 -82 q 371 -31 339 -31 q 438 -51 408 -31 q 468 -106 468 -71 z "},"Ò":{"ha":706,"x_min":60,"x_max":696,"o":"m 526 1067 q 529 1049 529 1053 q 503 1026 529 1026 q 476 1029 496 1026 q 428 1035 461 1028 l 397 1046 q 342 1065 365 1060 q 311 1075 319 1071 q 269 1090 293 1081 q 242 1107 244 1100 q 238 1122 238 1115 q 264 1153 238 1142 q 294 1164 283 1164 q 317 1159 304 1164 q 338 1153 331 1154 q 399 1128 376 1136 q 457 1113 422 1121 q 479 1103 463 1110 q 510 1088 496 1097 q 526 1067 524 1079 m 379 992 q 588 912 518 992 q 676 723 657 832 q 696 476 696 614 q 663 248 696 365 q 560 50 629 131 q 389 -31 490 -31 q 125 137 190 -31 q 60 496 60 304 q 110 792 60 681 q 234 947 161 903 q 379 992 307 992 m 378 322 q 433 364 415 322 q 451 464 451 406 q 434 561 451 519 q 388 603 417 603 q 335 555 353 603 q 318 451 318 507 q 329 358 318 394 q 378 322 340 322 z "},"Ő":{"ha":756,"x_min":60,"x_max":742,"o":"m 465 1126 q 438 1097 461 1111 q 397 1079 415 1083 q 279 1033 331 1058 q 259 1026 274 1032 q 235 1021 244 1021 q 206 1031 221 1021 q 178 1061 178 1040 q 181 1075 178 1064 q 208 1094 182 1082 q 250 1110 235 1106 q 281 1122 258 1115 q 335 1142 303 1128 l 365 1153 q 414 1163 394 1163 l 442 1165 q 467 1142 467 1165 q 465 1126 467 1132 m 740 1126 q 713 1097 736 1111 q 672 1079 690 1083 q 554 1033 606 1058 q 534 1026 549 1032 q 510 1021 519 1021 q 481 1031 496 1021 q 453 1061 453 1040 q 456 1075 453 1064 q 483 1094 457 1082 q 525 1110 510 1106 q 556 1122 533 1115 q 610 1142 578 1128 l 640 1153 q 689 1163 669 1163 l 717 1165 q 742 1142 742 1165 q 740 1126 742 1132 m 379 992 q 588 912 518 992 q 676 723 657 832 q 696 476 696 614 q 663 248 696 365 q 560 50 629 131 q 389 -31 490 -31 q 125 137 190 -31 q 60 496 60 304 q 110 792 60 681 q 234 947 161 903 q 379 992 307 992 m 378 322 q 433 364 415 322 q 451 464 451 406 q 434 561 451 519 q 388 603 417 603 q 335 555 353 603 q 318 451 318 507 q 329 358 318 394 q 378 322 340 322 z "},"Ō":{"ha":756,"x_min":60,"x_max":696,"o":"m 590 1156 q 603 1150 600 1156 q 606 1132 606 1144 l 606 1090 q 600 1076 606 1081 q 575 1072 594 1072 l 525 1074 q 458 1076 478 1076 l 275 1076 q 204 1072 211 1076 q 195 1076 197 1072 q 193 1090 193 1081 l 193 1128 q 197 1148 193 1142 q 208 1154 200 1154 l 581 1154 l 590 1156 m 379 992 q 588 912 518 992 q 676 723 657 832 q 696 476 696 614 q 663 248 696 365 q 560 50 629 131 q 389 -31 490 -31 q 125 137 190 -31 q 60 496 60 304 q 110 792 60 681 q 234 947 161 903 q 379 992 307 992 m 378 322 q 433 364 415 322 q 451 464 451 406 q 434 561 451 519 q 388 603 417 603 q 335 555 353 603 q 318 451 318 507 q 329 358 318 394 q 378 322 340 322 z "},"Ǫ":{"ha":756,"x_min":60,"x_max":696,"o":"m 542 -103 q 560 -115 550 -103 q 569 -137 569 -128 q 543 -178 569 -156 q 481 -219 517 -201 q 419 -237 444 -236 q 336 -215 364 -239 q 306 -126 308 -192 q 318 -62 306 -100 q 332 -26 329 -32 q 114 163 168 3 q 60 496 60 322 q 110 792 60 681 q 234 947 161 903 q 379 992 307 992 q 588 912 518 992 q 676 723 657 832 q 696 476 696 614 q 665 256 696 369 q 569 60 633 142 q 408 -29 504 -21 q 406 -53 408 -36 q 404 -78 404 -61 q 432 -135 404 -133 q 493 -130 472 -137 q 526 -112 514 -122 q 542 -103 539 -103 m 388 603 q 335 555 353 603 q 318 451 318 507 q 329 358 318 394 q 378 322 340 322 q 433 364 415 322 q 451 464 451 406 q 434 561 451 519 q 388 603 417 603 z "},"Ø":{"ha":799,"x_min":63,"x_max":746,"o":"m 667 829 q 709 670 699 758 q 719 476 719 582 q 686 248 719 365 q 583 50 653 131 q 413 -31 514 -31 q 215 46 292 -31 l 193 1 q 178 -26 186 -18 q 163 -37 171 -33 q 153 -43 156 -42 q 118 -54 142 -54 q 82 -49 101 -54 q 63 -36 63 -44 q 68 -19 63 -33 q 78 -7 75 -12 q 97 21 82 -1 l 158 124 q 83 496 83 260 q 134 792 83 681 q 258 947 185 903 q 403 992 331 992 q 610 914 532 992 l 611 917 q 643 965 625 943 q 674 990 661 986 q 736 985 721 990 q 735 953 746 982 q 707 896 725 924 l 667 829 m 251 436 q 258 301 251 357 q 278 339 263 308 l 310 394 q 504 722 490 701 l 507 726 q 415 792 468 792 q 322 735 358 792 q 268 597 285 679 q 251 436 251 514 m 392 133 q 522 231 481 133 q 564 465 564 328 q 546 624 564 553 q 371 314 400 357 l 296 186 q 392 133 331 133 z "},"Ǿ":{"ha":799,"x_min":63,"x_max":746,"o":"m 288 1031 q 260 1061 260 1040 q 263 1075 260 1064 q 290 1094 264 1082 q 332 1110 317 1106 q 363 1122 340 1115 q 417 1142 385 1128 l 447 1153 q 496 1163 476 1163 l 524 1165 q 549 1142 549 1165 q 547 1126 549 1132 q 520 1097 543 1111 q 479 1079 497 1083 q 361 1033 413 1058 q 341 1026 356 1032 q 317 1021 326 1021 q 288 1031 303 1021 m 667 829 q 709 670 699 758 q 719 476 719 582 q 686 248 719 365 q 583 50 653 131 q 413 -31 514 -31 q 215 46 292 -31 l 193 1 q 178 -26 186 -18 q 163 -37 171 -33 q 153 -43 156 -42 q 118 -54 142 -54 q 82 -49 101 -54 q 63 -36 63 -44 q 68 -19 63 -33 q 78 -7 75 -12 q 97 21 82 -1 l 158 124 q 83 496 83 260 q 134 792 83 681 q 258 947 185 903 q 403 992 331 992 q 610 914 532 992 l 611 917 q 643 965 625 943 q 674 990 661 986 q 736 985 721 990 q 735 953 746 982 q 707 896 725 924 l 667 829 m 251 436 q 258 301 251 357 q 278 339 263 308 l 310 394 q 504 722 490 701 l 507 726 q 415 792 468 792 q 322 735 358 792 q 268 597 285 679 q 251 436 251 514 m 392 133 q 522 231 481 133 q 564 465 564 328 q 546 624 564 553 q 371 314 400 357 l 296 186 q 392 133 331 133 z "},"Õ":{"ha":706,"x_min":60,"x_max":696,"o":"m 226 1131 q 288 1136 258 1131 q 326 1143 317 1142 q 492 1154 389 1154 q 581 1149 546 1154 q 615 1140 608 1147 q 621 1126 621 1133 q 621 1114 621 1118 l 621 1093 q 589 1071 621 1071 q 567 1074 579 1071 q 549 1078 554 1076 q 497 1088 519 1088 q 439 1083 467 1086 q 401 1079 411 1081 q 351 1072 372 1074 q 307 1067 322 1069 q 226 1061 260 1061 q 135 1093 135 1061 l 135 1111 q 138 1143 135 1133 q 147 1150 139 1150 q 178 1142 153 1150 q 226 1131 203 1135 m 379 992 q 588 912 518 992 q 676 723 657 832 q 696 476 696 614 q 663 248 696 365 q 560 50 629 131 q 389 -31 490 -31 q 125 137 190 -31 q 60 496 60 304 q 110 792 60 681 q 234 947 161 903 q 379 992 307 992 m 378 322 q 433 364 415 322 q 451 464 451 406 q 434 561 451 519 q 388 603 417 603 q 335 555 353 603 q 318 451 318 507 q 329 358 318 394 q 378 322 340 322 z "},"Œ":{"ha":1251,"x_min":76,"x_max":1181,"o":"m 1150 186 q 1172 178 1167 186 q 1178 157 1178 171 l 1176 129 l 1175 32 q 1165 5 1175 10 q 1138 1 1156 0 q 1108 1 1119 1 q 1011 3 1049 1 l 878 4 q 711 0 861 4 l 658 -1 l 650 -3 q 640 2 642 -3 q 639 21 639 7 q 638 72 638 36 q 635 117 638 78 q 599 67 619 90 q 499 -7 553 17 q 393 -31 444 -31 q 185 49 254 -31 q 96 238 115 129 q 76 485 76 347 q 110 713 76 596 q 213 911 143 831 q 383 992 282 992 q 537 950 472 992 q 639 839 601 908 l 640 890 q 642 942 640 929 q 649 966 642 960 q 668 972 656 972 l 689 971 q 729 969 701 971 q 797 967 757 967 q 925 975 839 967 l 992 979 q 1096 975 1047 979 l 1146 974 q 1169 965 1164 974 q 1175 935 1175 957 q 1178 896 1175 924 q 1181 842 1181 865 l 1181 832 q 1176 792 1181 815 q 1157 771 1175 771 q 1142 774 1151 771 q 1126 778 1132 776 q 1006 782 1106 782 l 957 783 q 911 785 942 785 q 876 783 889 785 q 803 781 835 781 l 729 782 q 718 778 721 782 q 715 763 715 774 l 714 686 q 711 607 711 636 l 711 525 l 711 521 l 713 496 l 713 494 q 750 493 724 493 q 847 492 774 492 q 928 494 872 492 l 981 497 q 1019 495 1000 497 q 1049 493 1039 493 q 1067 476 1067 493 q 1065 460 1067 471 q 1064 433 1064 450 q 1065 383 1064 396 l 1065 346 q 1063 328 1065 333 q 1053 324 1060 324 q 1041 326 1049 324 q 1028 328 1033 328 q 989 329 1004 328 q 903 331 975 331 q 794 325 840 331 q 739 319 749 319 q 721 321 724 319 q 713 322 714 321 l 713 183 q 728 185 722 183 l 767 186 l 931 188 l 1006 186 q 1035 185 1014 185 l 1150 186 m 413 322 q 470 367 449 322 q 492 469 492 411 q 469 576 492 532 q 401 621 447 621 q 341 582 356 621 q 326 485 326 543 q 348 373 326 424 q 413 322 369 322 z "},"P":{"ha":722,"x_min":86,"x_max":715,"o":"m 493 974 q 652 896 589 968 q 715 679 715 824 q 675 529 715 585 q 582 452 635 474 q 489 431 529 431 q 363 422 451 431 q 279 415 311 417 q 276 242 276 288 q 281 46 276 61 q 276 22 283 32 q 256 8 268 11 q 235 8 244 4 q 211 10 231 10 q 122 4 169 10 q 93 13 100 1 q 86 50 86 25 q 88 106 86 81 l 89 222 l 92 386 q 100 846 100 681 q 99 906 100 896 q 96 942 96 936 q 111 978 96 978 q 140 976 118 978 q 200 975 161 975 q 257 976 211 975 q 353 978 303 978 q 493 974 426 978 m 450 531 q 546 561 501 531 q 590 671 590 592 q 556 799 590 756 q 454 856 521 843 q 290 872 350 876 q 289 814 290 833 q 282 703 286 736 q 279 593 276 654 l 282 539 l 347 535 q 450 531 385 531 z "},"Þ":{"ha":721,"x_min":89,"x_max":718,"o":"m 496 224 q 361 221 454 221 l 275 221 l 274 144 l 275 68 q 276 38 276 56 q 267 6 276 7 l 203 6 q 144 4 167 6 q 114 3 122 3 q 99 38 99 3 q 101 75 99 44 q 103 135 103 85 q 94 594 103 300 l 92 758 l 90 875 q 89 931 89 900 q 96 967 89 956 q 125 976 103 979 q 214 971 172 971 q 238 972 233 971 q 259 973 247 976 q 278 959 271 969 q 283 935 286 949 q 279 881 279 922 q 282 782 279 826 q 365 775 314 781 q 492 767 454 767 q 585 745 532 767 q 678 668 638 724 q 718 518 718 613 q 655 301 718 374 q 496 224 592 229 m 453 667 q 350 663 388 667 l 285 658 l 282 604 q 285 494 279 543 q 292 383 289 461 q 293 325 293 364 q 457 342 353 321 q 558 398 524 354 q 593 526 593 442 q 549 636 593 606 q 453 667 504 667 z "},"Q":{"ha":929,"x_min":58,"x_max":874,"o":"m 854 36 q 874 10 874 18 q 863 3 874 3 q 843 3 854 4 q 821 3 832 3 q 778 1 807 1 q 742 9 754 1 q 717 39 731 17 q 689 78 713 47 q 482 -1 607 -1 q 251 62 339 -1 q 115 225 163 125 q 58 453 69 321 q 118 776 58 657 q 265 940 178 894 q 449 986 353 986 q 687 916 599 986 q 810 749 775 846 q 844 564 844 653 q 824 356 844 469 q 750 154 804 242 q 854 36 832 54 m 468 74 q 639 146 567 74 l 536 283 q 517 313 521 304 q 521 321 514 321 q 599 328 532 321 q 628 322 619 331 q 643 298 638 313 q 653 275 649 283 q 696 219 657 267 q 751 354 732 281 q 769 494 769 428 q 701 785 769 663 q 447 908 632 908 q 319 865 396 908 q 183 730 242 821 q 124 504 124 639 q 215 181 124 289 q 468 74 306 74 z "},"R":{"ha":760,"x_min":85,"x_max":728,"o":"m 708 39 q 728 -1 728 8 q 721 -8 728 -7 q 709 -10 714 -10 q 701 -10 704 -10 l 544 -14 q 527 -4 533 -14 q 510 31 521 6 q 485 86 503 51 q 389 274 457 136 l 318 411 l 322 338 l 329 232 q 343 26 338 46 q 344 13 344 21 q 318 -12 344 -12 q 304 -11 310 -12 q 196 -17 282 -8 q 125 -22 138 -22 q 101 -15 107 -22 q 94 8 94 -8 l 96 40 l 93 121 q 85 372 85 265 q 89 449 85 428 q 96 644 96 483 q 90 899 96 813 q 89 929 89 910 q 93 961 89 951 q 102 972 97 971 q 119 972 107 972 l 150 975 q 303 986 246 986 q 537 906 458 986 q 615 699 615 826 q 550 504 615 597 q 486 432 522 464 l 583 256 q 708 39 690 64 m 310 596 q 347 604 331 596 q 386 678 386 622 q 374 738 386 718 q 342 757 361 757 q 315 746 326 757 q 315 726 314 744 q 317 690 317 708 q 315 668 317 675 q 310 619 310 644 l 308 607 l 310 596 z "},"Ŕ":{"ha":674,"x_min":85,"x_max":728,"o":"m 463 1119 q 435 1090 458 1104 q 394 1072 413 1076 q 276 1026 328 1051 q 256 1019 271 1025 q 232 1014 242 1014 q 203 1024 218 1014 q 175 1054 175 1033 q 178 1068 175 1057 q 206 1087 179 1075 q 247 1103 232 1099 q 278 1115 256 1108 q 332 1135 300 1121 l 363 1146 q 411 1156 392 1156 l 439 1158 q 464 1135 464 1158 q 463 1119 464 1125 m 708 39 q 728 -1 728 8 q 721 -8 728 -7 q 709 -10 714 -10 q 701 -10 704 -10 l 544 -14 q 527 -4 533 -14 q 510 31 521 6 q 485 86 503 51 q 389 274 457 136 l 318 411 l 322 338 l 329 232 q 343 26 338 46 q 344 13 344 21 q 318 -12 344 -12 q 304 -11 310 -12 q 196 -17 282 -8 q 125 -22 138 -22 q 101 -15 107 -22 q 94 8 94 -8 l 96 40 l 93 121 q 85 372 85 265 q 89 449 85 428 q 96 644 96 483 q 90 899 96 813 q 89 929 89 910 q 93 961 89 951 q 102 972 97 971 q 119 972 107 972 l 150 975 q 303 986 246 986 q 537 906 458 986 q 615 699 615 826 q 550 504 615 597 q 486 432 522 464 l 583 256 q 708 39 690 64 m 310 596 q 347 604 331 596 q 386 678 386 622 q 374 738 386 718 q 342 757 361 757 q 315 746 326 757 q 315 726 314 744 q 317 690 317 708 q 315 668 317 675 q 310 619 310 644 l 308 607 l 310 596 z "},"Ř":{"ha":674,"x_min":85,"x_max":728,"o":"m 121 1140 q 143 1161 126 1161 q 181 1151 154 1161 l 218 1142 q 267 1117 242 1132 l 311 1096 q 374 1125 358 1117 q 454 1154 403 1139 q 507 1158 481 1158 q 531 1152 522 1158 q 540 1136 540 1146 q 529 1119 540 1126 l 493 1096 q 474 1088 489 1094 q 426 1056 460 1081 q 354 1019 371 1024 q 329 1014 342 1014 q 314 1013 324 1013 q 294 1016 303 1013 q 276 1024 285 1019 q 261 1033 268 1029 q 197 1075 221 1061 l 168 1093 q 132 1118 146 1107 q 121 1140 118 1129 m 708 39 q 728 -1 728 8 q 721 -8 728 -7 q 709 -10 714 -10 q 701 -10 704 -10 l 544 -14 q 527 -4 533 -14 q 510 31 521 6 q 485 86 503 51 q 389 274 457 136 l 318 411 l 322 338 l 329 232 q 343 26 338 46 q 344 13 344 21 q 318 -12 344 -12 q 304 -11 310 -12 q 196 -17 282 -8 q 125 -22 138 -22 q 101 -15 107 -22 q 94 8 94 -8 l 96 40 l 93 121 q 85 372 85 265 q 89 449 85 428 q 96 644 96 483 q 90 899 96 813 q 89 929 89 910 q 93 961 89 951 q 102 972 97 971 q 119 972 107 972 l 150 975 q 303 986 246 986 q 537 906 458 986 q 615 699 615 826 q 550 504 615 597 q 486 432 522 464 l 583 256 q 708 39 690 64 m 310 596 q 347 604 331 596 q 386 678 386 622 q 374 738 386 718 q 342 757 361 757 q 315 746 326 757 q 315 726 314 744 q 317 690 317 708 q 315 668 317 675 q 310 619 310 644 l 308 607 l 310 596 z "},"Ŗ":{"ha":674,"x_min":85,"x_max":728,"o":"m 708 39 q 728 -1 728 8 q 721 -8 728 -7 q 709 -10 714 -10 q 701 -10 704 -10 l 544 -14 q 527 -4 533 -14 q 510 31 521 6 q 485 86 503 51 q 389 274 457 136 l 318 411 l 322 338 l 329 232 q 343 26 338 46 q 344 13 344 21 q 318 -12 344 -12 q 304 -11 310 -12 q 196 -17 282 -8 q 125 -22 138 -22 q 101 -15 107 -22 q 94 8 94 -8 l 96 40 l 93 121 q 85 372 85 265 q 89 449 85 428 q 96 644 96 483 q 90 899 96 813 q 89 929 89 910 q 93 961 89 951 q 102 972 97 971 q 119 972 107 972 l 150 975 q 303 986 246 986 q 537 906 458 986 q 615 699 615 826 q 550 504 615 597 q 486 432 522 464 l 583 256 q 708 39 690 64 m 310 596 q 347 604 331 596 q 386 678 386 622 q 374 738 386 718 q 342 757 361 757 q 315 746 326 757 q 315 726 314 744 q 317 690 317 708 q 315 668 317 675 q 310 619 310 644 l 308 607 l 310 596 m 468 -57 q 475 -68 482 -57 q 468 -92 474 -83 q 463 -110 467 -97 q 454 -133 458 -122 l 438 -186 q 418 -244 425 -226 q 411 -275 411 -269 q 400 -293 407 -287 q 358 -294 396 -294 q 314 -293 321 -294 q 307 -290 308 -293 q 306 -284 306 -287 q 306 -279 306 -281 l 349 -143 l 360 -99 l 369 -71 q 390 -57 371 -57 l 468 -57 z "},"Ṛ":{"ha":760,"x_min":85,"x_max":728,"o":"m 708 39 q 728 -1 728 8 q 721 -8 728 -7 q 709 -10 714 -10 q 701 -10 704 -10 l 544 -14 q 527 -4 533 -14 q 510 31 521 6 q 485 86 503 51 q 389 274 457 136 l 318 411 l 322 338 l 329 232 q 343 26 338 46 q 344 13 344 21 q 318 -12 344 -12 q 304 -11 310 -12 q 196 -17 282 -8 q 125 -22 138 -22 q 101 -15 107 -22 q 94 8 94 -8 l 96 40 l 93 121 q 85 372 85 265 q 89 449 85 428 q 96 644 96 483 q 90 899 96 813 q 89 929 89 910 q 93 961 89 951 q 102 972 97 971 q 119 972 107 972 l 150 975 q 303 986 246 986 q 537 906 458 986 q 615 699 615 826 q 550 504 615 597 q 486 432 522 464 l 583 256 q 708 39 690 64 m 310 596 q 347 604 331 596 q 386 678 386 622 q 374 738 386 718 q 342 757 361 757 q 315 746 326 757 q 315 726 314 744 q 317 690 317 708 q 315 668 317 675 q 310 619 310 644 l 308 607 l 310 596 m 522 -106 q 492 -172 522 -147 q 431 -197 463 -197 q 372 -173 399 -197 q 346 -112 346 -149 q 369 -56 346 -82 q 425 -31 393 -31 q 492 -51 463 -31 q 522 -106 522 -71 z "},"S":{"ha":800,"x_min":51,"x_max":744,"o":"m 372 996 q 590 944 504 996 q 722 844 675 892 q 728 832 728 839 q 724 822 728 828 q 719 813 721 815 q 697 778 713 803 q 671 743 681 754 q 662 731 667 738 q 653 722 657 725 q 643 719 650 719 q 630 728 640 719 q 610 744 619 738 q 501 828 554 793 q 400 863 449 863 q 336 845 361 863 q 311 767 311 828 q 356 674 311 707 q 474 610 400 640 q 555 575 481 607 q 687 453 629 543 q 744 238 744 363 q 644 38 744 104 q 368 -29 544 -29 q 114 48 168 -29 q 57 128 60 125 q 51 142 51 135 q 63 160 51 146 q 115 219 81 185 q 126 225 121 225 q 142 215 133 225 q 156 199 150 204 q 342 117 238 117 q 433 137 394 117 q 472 213 472 157 q 321 417 472 308 q 274 444 296 433 q 174 507 215 476 q 100 588 132 538 q 68 704 68 638 q 120 854 68 788 q 245 958 172 921 q 372 996 318 996 z "},"Ś":{"ha":800,"x_min":51,"x_max":744,"o":"m 561 1126 q 534 1097 557 1111 q 493 1079 511 1083 q 375 1033 426 1058 q 355 1026 369 1032 q 331 1021 340 1021 q 301 1031 317 1021 q 274 1061 274 1040 q 276 1075 274 1064 q 304 1094 278 1082 q 346 1110 331 1106 q 376 1122 354 1115 q 431 1142 399 1128 l 461 1153 q 510 1163 490 1163 l 538 1165 q 563 1142 563 1165 q 561 1126 563 1132 m 372 996 q 590 944 504 996 q 722 844 675 892 q 728 832 728 839 q 724 822 728 828 q 719 813 721 815 q 697 778 713 803 q 671 743 681 754 q 662 731 667 738 q 653 722 657 725 q 643 719 650 719 q 630 728 640 719 q 610 744 619 738 q 501 828 554 793 q 400 863 449 863 q 336 845 361 863 q 311 767 311 828 q 356 674 311 707 q 474 610 400 640 q 555 575 481 607 q 687 453 629 543 q 744 238 744 363 q 644 38 744 104 q 368 -29 544 -29 q 114 48 168 -29 q 57 128 60 125 q 51 142 51 135 q 63 160 51 146 q 115 219 81 185 q 126 225 121 225 q 142 215 133 225 q 156 199 150 204 q 342 117 238 117 q 433 137 394 117 q 472 213 472 157 q 321 417 472 308 q 274 444 296 433 q 174 507 215 476 q 100 588 132 538 q 68 704 68 638 q 120 854 68 788 q 245 958 172 921 q 372 996 318 996 z "},"Š":{"ha":800,"x_min":51,"x_max":744,"o":"m 232 1143 q 254 1164 238 1164 q 292 1154 265 1164 l 329 1144 q 378 1119 353 1135 l 422 1099 q 485 1128 471 1119 q 565 1157 514 1142 q 618 1161 593 1161 q 642 1155 633 1161 q 651 1139 651 1149 q 640 1122 651 1129 l 604 1099 q 585 1090 600 1097 q 538 1058 571 1083 q 465 1022 482 1026 q 440 1017 453 1017 q 425 1015 435 1015 q 405 1019 414 1015 q 388 1027 396 1022 q 372 1036 379 1032 q 308 1078 332 1064 l 279 1096 q 243 1121 257 1110 q 232 1143 229 1132 m 372 996 q 590 944 504 996 q 722 844 675 892 q 728 832 728 839 q 724 822 728 828 q 719 813 721 815 q 697 778 713 803 q 671 743 681 754 q 662 731 667 738 q 653 722 657 725 q 643 719 650 719 q 630 728 640 719 q 610 744 619 738 q 501 828 554 793 q 400 863 449 863 q 336 845 361 863 q 311 767 311 828 q 356 674 311 707 q 474 610 400 640 q 555 575 481 607 q 687 453 629 543 q 744 238 744 363 q 644 38 744 104 q 368 -29 544 -29 q 114 48 168 -29 q 57 128 60 125 q 51 142 51 135 q 63 160 51 146 q 115 219 81 185 q 126 225 121 225 q 142 215 133 225 q 156 199 150 204 q 342 117 238 117 q 433 137 394 117 q 472 213 472 157 q 321 417 472 308 q 274 444 296 433 q 174 507 215 476 q 100 588 132 538 q 68 704 68 638 q 120 854 68 788 q 245 958 172 921 q 372 996 318 996 z "},"Ş":{"ha":800,"x_min":51,"x_max":747,"o":"m 747 276 q 665 100 747 163 q 435 26 582 38 q 401 -33 408 -11 q 427 -23 417 -25 q 468 -21 438 -21 q 554 -118 554 -21 q 542 -162 553 -147 q 511 -193 531 -176 q 490 -208 504 -200 q 459 -219 474 -215 q 403 -222 444 -222 q 339 -215 368 -222 q 310 -196 310 -207 q 321 -128 310 -179 q 325 -122 321 -122 q 338 -128 328 -122 q 358 -140 349 -135 q 411 -149 386 -149 q 453 -141 443 -146 q 468 -112 463 -136 q 435 -67 468 -67 q 408 -76 422 -67 q 389 -86 393 -86 q 356 -84 364 -86 q 346 -75 347 -82 q 349 -46 346 -58 q 356 -25 353 -33 q 369 24 360 -3 q 113 97 167 24 q 57 172 60 169 q 51 186 51 179 q 56 195 51 190 q 63 203 60 200 q 115 260 74 218 q 125 264 119 264 q 140 255 132 264 q 156 240 149 246 q 228 188 182 214 q 343 163 274 163 q 474 253 474 163 q 428 356 474 307 q 322 446 383 406 q 271 475 308 454 q 171 535 211 507 q 99 609 131 563 q 68 719 68 656 q 121 860 68 797 q 247 960 174 924 q 374 996 319 996 q 640 926 560 996 q 725 853 721 856 q 731 842 731 847 q 722 822 731 836 q 699 790 715 814 q 674 756 683 767 q 665 745 668 750 q 657 737 661 740 q 646 733 653 733 q 611 758 640 733 q 502 837 556 804 q 401 869 449 869 q 338 853 363 869 q 313 778 313 836 q 338 710 313 739 q 393 667 363 682 q 475 629 424 651 q 597 572 544 601 q 698 468 649 542 q 747 276 747 394 z "},"Ŝ":{"ha":800,"x_min":51,"x_max":744,"o":"m 621 1036 q 599 1015 615 1015 q 561 1025 588 1015 l 524 1035 q 475 1060 500 1044 l 431 1081 l 367 1051 q 288 1022 340 1038 q 235 1018 260 1018 q 210 1025 219 1018 q 201 1040 201 1032 q 211 1057 201 1051 l 249 1081 q 267 1089 253 1082 q 315 1121 282 1096 q 388 1157 371 1153 q 413 1163 400 1163 q 428 1164 418 1164 q 448 1160 439 1164 q 465 1152 457 1157 q 481 1143 474 1147 q 544 1101 519 1117 l 574 1083 q 610 1058 596 1069 q 621 1036 624 1047 m 372 996 q 590 944 504 996 q 722 844 675 892 q 728 832 728 839 q 724 822 728 828 q 719 813 721 815 q 697 778 713 803 q 671 743 681 754 q 662 731 667 738 q 653 722 657 725 q 643 719 650 719 q 630 728 640 719 q 610 744 619 738 q 501 828 554 793 q 400 863 449 863 q 336 845 361 863 q 311 767 311 828 q 356 674 311 707 q 474 610 400 640 q 555 575 481 607 q 687 453 629 543 q 744 238 744 363 q 644 38 744 104 q 368 -29 544 -29 q 114 48 168 -29 q 57 128 60 125 q 51 142 51 135 q 63 160 51 146 q 115 219 81 185 q 126 225 121 225 q 142 215 133 225 q 156 199 150 204 q 342 117 238 117 q 433 137 394 117 q 472 213 472 157 q 321 417 472 308 q 274 444 296 433 q 174 507 215 476 q 100 588 132 538 q 68 704 68 638 q 120 854 68 788 q 245 958 172 921 q 372 996 318 996 z "},"Ș":{"ha":800,"x_min":51,"x_max":744,"o":"m 372 996 q 590 944 504 996 q 722 844 675 892 q 728 832 728 839 q 724 822 728 828 q 719 813 721 815 q 697 778 713 803 q 671 743 681 754 q 662 731 667 738 q 653 722 657 725 q 643 719 650 719 q 630 728 640 719 q 610 744 619 738 q 501 828 554 793 q 400 863 449 863 q 336 845 361 863 q 311 767 311 828 q 356 674 311 707 q 474 610 400 640 q 555 575 481 607 q 687 453 629 543 q 744 238 744 363 q 644 38 744 104 q 368 -29 544 -29 q 114 48 168 -29 q 57 128 60 125 q 51 142 51 135 q 63 160 51 146 q 115 219 81 185 q 126 225 121 225 q 142 215 133 225 q 156 199 150 204 q 342 117 238 117 q 433 137 394 117 q 472 213 472 157 q 321 417 472 308 q 274 444 296 433 q 174 507 215 476 q 100 588 132 538 q 68 704 68 638 q 120 854 68 788 q 245 958 172 921 q 372 996 318 996 m 446 -57 q 453 -68 460 -57 q 446 -92 451 -83 q 440 -110 444 -97 q 432 -133 436 -122 l 415 -186 q 396 -244 403 -226 q 389 -275 389 -269 q 378 -293 385 -287 q 336 -294 374 -294 q 292 -293 299 -294 q 285 -290 286 -293 q 283 -284 283 -287 q 283 -279 283 -281 l 326 -143 l 338 -99 l 347 -71 q 368 -57 349 -57 l 446 -57 z "},"Ṣ":{"ha":800,"x_min":51,"x_max":747,"o":"m 374 996 q 595 945 507 996 q 725 853 683 894 q 731 842 731 847 q 727 831 731 838 q 722 822 724 825 q 714 810 718 817 q 706 799 710 804 q 674 757 679 763 q 665 745 669 751 q 657 737 661 739 q 646 735 653 735 q 611 760 640 735 q 401 869 478 869 q 338 853 363 869 q 313 779 313 838 q 338 711 313 739 q 392 668 363 683 q 475 631 422 653 q 597 573 544 603 q 698 470 649 543 q 747 279 747 397 q 647 89 747 151 q 369 26 547 26 q 113 99 167 26 q 57 175 60 172 q 51 188 51 181 q 63 206 51 192 q 115 261 103 251 q 126 267 121 267 q 142 256 133 267 q 156 242 151 246 q 228 190 182 215 q 343 164 274 164 q 474 256 474 164 q 431 356 474 310 q 322 449 389 401 q 300 462 315 454 q 276 474 285 469 q 174 534 217 506 q 100 609 132 563 q 68 719 68 656 q 120 863 68 800 q 245 960 172 925 q 374 996 318 996 m 496 -106 q 466 -172 496 -147 q 404 -197 436 -197 q 346 -173 372 -197 q 319 -112 319 -149 q 343 -56 319 -82 q 399 -31 367 -31 q 466 -51 436 -31 q 496 -106 496 -71 z "},"ẞ":{"ha":824,"x_min":86,"x_max":790,"o":"m 508 601 q 574 543 532 578 q 647 472 592 528 q 701 421 685 435 q 749 371 731 397 q 781 310 771 339 q 790 232 790 282 q 718 39 790 90 q 557 -12 646 -12 q 489 6 522 -12 q 431 45 456 24 q 406 74 407 67 q 401 96 394 85 q 406 118 403 103 q 413 138 410 133 q 424 154 419 154 l 426 154 q 433 149 429 154 q 444 135 438 143 q 490 98 456 118 q 549 78 524 78 q 631 99 593 78 q 674 135 661 115 q 688 203 688 156 q 660 272 688 242 q 575 343 632 301 q 542 367 564 350 q 446 465 476 419 q 414 524 424 501 q 401 625 401 551 q 440 688 410 642 l 475 739 q 538 818 490 763 q 481 869 513 854 q 392 883 449 883 q 294 846 326 883 q 264 754 267 811 l 264 660 l 263 589 l 260 475 q 261 422 260 439 l 263 335 l 261 267 q 258 199 258 222 l 260 35 q 252 10 260 17 q 228 3 244 3 q 196 6 221 3 q 159 6 176 7 q 129 6 142 6 q 96 10 101 6 q 90 22 90 14 q 90 33 90 31 l 89 107 q 88 140 89 126 l 86 235 q 88 277 86 256 q 90 308 90 299 q 94 381 94 340 l 93 539 l 94 631 q 97 728 97 694 q 96 796 97 783 l 94 818 l 96 844 q 128 913 97 876 q 221 975 160 949 q 351 1000 306 1000 q 538 981 460 1000 q 615 937 582 969 q 686 838 649 904 q 631 754 672 793 q 578 697 600 724 q 536 641 557 669 q 508 601 515 613 z "},"Ə":{"ha":751,"x_min":49,"x_max":692,"o":"m 349 -44 q 199 -12 271 -44 q 92 125 126 19 q 56 492 56 236 q 288 525 54 525 q 546 519 483 525 q 542 615 549 576 q 527 689 539 658 q 492 744 515 719 q 432 800 468 772 q 317 829 397 829 q 190 815 238 829 q 118 783 143 803 q 64 833 96 764 q 49 892 49 871 q 64 929 49 917 q 173 977 96 958 q 340 996 250 996 q 455 976 396 996 q 544 925 514 956 q 607 853 581 892 q 639 807 633 815 q 682 639 671 738 q 692 500 692 560 q 686 424 692 467 q 667 300 676 351 q 629 167 653 225 q 569 63 608 115 q 481 -17 531 10 q 349 -44 432 -44 m 544 368 q 403 371 496 371 q 192 363 293 371 q 204 239 192 310 q 240 139 217 169 q 338 89 283 89 q 435 105 403 92 q 483 140 468 118 q 521 208 499 161 q 546 326 546 268 l 544 368 z "},"T":{"ha":753,"x_min":28,"x_max":726,"o":"m 726 942 q 724 906 726 935 q 722 833 722 876 q 726 728 722 794 q 678 690 726 690 l 433 690 l 431 547 q 429 429 429 524 q 431 240 429 332 q 432 82 432 149 l 433 25 l 433 18 q 430 3 433 6 q 421 0 426 0 q 413 0 415 0 l 318 0 q 299 6 301 0 q 296 26 296 11 q 296 47 296 40 l 301 219 q 310 508 310 444 q 307 617 310 544 l 306 690 q 103 688 206 690 l 60 686 q 35 696 42 686 q 32 718 28 706 l 33 753 q 36 901 36 833 q 35 942 36 935 l 35 951 q 41 969 35 967 q 60 972 47 972 l 197 972 l 275 974 q 376 976 347 976 l 460 975 q 617 972 560 972 q 671 974 658 972 q 714 965 701 975 q 726 942 726 954 z "},"Ŧ":{"ha":753,"x_min":28,"x_max":726,"o":"m 726 942 q 724 906 726 935 q 722 833 722 876 q 726 728 722 794 q 678 690 726 690 l 433 690 l 431 547 l 429 518 l 615 518 l 628 519 q 646 514 643 519 q 649 494 649 508 l 649 450 q 641 435 649 439 q 608 431 633 431 l 540 432 q 454 435 479 435 l 429 435 q 431 244 429 338 q 432 82 432 151 l 433 25 l 433 18 q 430 3 433 6 q 421 0 426 0 q 413 0 415 0 l 318 0 q 299 6 301 0 q 296 26 296 11 q 296 47 296 40 q 304 294 296 72 l 308 435 l 211 435 q 158 433 192 435 q 118 431 125 432 q 106 435 108 431 q 103 450 103 440 l 103 490 q 107 511 103 504 q 124 518 111 518 l 310 518 q 307 622 310 556 l 306 690 q 103 688 206 690 l 60 686 q 35 696 42 686 q 32 718 28 706 l 33 753 q 36 901 36 833 q 35 942 36 935 l 35 951 q 41 969 35 967 q 60 972 47 972 l 197 972 l 275 974 q 376 976 347 976 l 460 975 q 617 972 560 972 q 671 974 658 972 q 714 965 701 975 q 726 942 726 954 z "},"Ť":{"ha":753,"x_min":28,"x_max":726,"o":"m 171 1143 q 193 1164 176 1164 q 231 1154 204 1164 l 268 1144 q 317 1119 292 1135 l 361 1099 q 424 1128 410 1119 q 504 1157 453 1142 q 557 1161 531 1161 q 581 1155 572 1161 q 590 1139 590 1149 q 579 1122 590 1129 l 543 1099 q 524 1090 539 1097 q 476 1058 510 1083 q 404 1022 421 1026 q 379 1017 392 1017 q 364 1015 374 1015 q 344 1019 353 1015 q 326 1027 335 1022 q 311 1036 318 1032 q 247 1078 272 1064 l 218 1096 q 182 1121 196 1110 q 171 1143 168 1132 m 726 942 q 724 906 726 935 q 722 833 722 876 q 726 728 722 794 q 678 690 726 690 l 433 690 l 431 547 q 429 429 429 524 q 431 240 429 332 q 432 82 432 149 l 433 25 l 433 18 q 430 3 433 6 q 421 0 426 0 q 413 0 415 0 l 318 0 q 299 6 301 0 q 296 26 296 11 q 296 47 296 40 l 301 219 q 310 508 310 444 q 307 617 310 544 l 306 690 q 103 688 206 690 l 60 686 q 35 696 42 686 q 32 718 28 706 l 33 753 q 36 901 36 833 q 35 942 36 935 l 35 951 q 41 969 35 967 q 60 972 47 972 l 197 972 l 275 974 q 376 976 347 976 l 460 975 q 617 972 560 972 q 671 974 658 972 q 714 965 701 975 q 726 942 726 954 z "},"Ţ":{"ha":753,"x_min":28,"x_max":726,"o":"m 726 942 q 724 906 726 935 q 722 833 722 876 q 726 728 722 794 q 678 690 726 690 l 433 690 l 431 547 q 429 476 429 533 l 431 278 q 432 120 431 172 q 433 61 433 68 l 433 54 q 430 39 433 42 q 421 36 426 36 q 413 36 415 36 l 381 36 q 356 -1 365 15 q 340 -33 346 -18 q 366 -23 356 -25 q 407 -21 376 -21 q 493 -118 493 -21 q 481 -162 492 -147 q 450 -193 469 -176 q 429 -208 443 -200 q 398 -219 413 -215 q 342 -222 383 -222 q 278 -215 307 -222 q 249 -196 249 -207 q 260 -128 249 -179 q 264 -122 260 -122 q 277 -128 267 -122 q 297 -140 288 -135 q 350 -149 325 -149 q 392 -141 382 -146 q 407 -112 401 -136 q 374 -67 407 -67 q 347 -76 361 -67 q 328 -86 332 -86 q 294 -84 303 -86 q 285 -75 286 -82 q 288 -46 285 -58 q 294 -25 292 -33 q 313 36 299 0 q 298 43 300 38 q 296 62 296 49 q 296 83 296 75 l 303 283 q 310 508 310 454 q 307 617 310 544 l 306 690 q 103 688 206 690 l 60 686 q 35 696 42 686 q 32 718 28 706 l 33 753 q 36 901 36 833 q 35 942 36 935 l 35 951 q 41 969 35 967 q 60 972 47 972 l 197 972 l 275 974 q 376 976 347 976 l 460 975 q 617 972 560 972 q 671 974 658 972 q 714 965 701 975 q 726 942 726 954 z "},"Ț":{"ha":753,"x_min":28,"x_max":726,"o":"m 726 942 q 724 906 726 935 q 722 833 722 876 q 726 728 722 794 q 678 690 726 690 l 433 690 l 431 547 q 429 429 429 524 q 431 240 429 332 q 432 82 432 149 l 433 25 l 433 18 q 430 3 433 6 q 421 0 426 0 q 413 0 415 0 l 318 0 q 299 6 301 0 q 296 26 296 11 q 296 47 296 40 l 301 219 q 310 508 310 444 q 307 617 310 544 l 306 690 q 103 688 206 690 l 60 686 q 35 696 42 686 q 32 718 28 706 l 33 753 q 36 901 36 833 q 35 942 36 935 l 35 951 q 41 969 35 967 q 60 972 47 972 l 197 972 l 275 974 q 376 976 347 976 l 460 975 q 617 972 560 972 q 671 974 658 972 q 714 965 701 975 q 726 942 726 954 m 419 -57 q 426 -68 433 -57 q 419 -92 425 -83 q 414 -110 418 -97 q 406 -133 410 -122 l 389 -186 q 369 -244 376 -226 q 363 -275 363 -269 q 351 -293 358 -287 q 310 -294 347 -294 q 265 -293 272 -294 q 258 -290 260 -293 q 257 -284 257 -287 q 257 -279 257 -281 l 300 -143 l 311 -99 l 321 -71 q 342 -57 322 -57 l 419 -57 z "},"Ṭ":{"ha":753,"x_min":28,"x_max":726,"o":"m 726 942 q 724 906 726 935 q 722 833 722 876 q 726 728 722 794 q 678 690 726 690 l 433 690 l 431 547 q 429 476 429 531 l 431 260 l 431 172 l 433 67 l 433 60 q 430 44 433 47 q 421 42 426 42 q 413 42 415 42 l 318 42 q 299 47 301 42 q 296 67 296 53 q 296 89 296 82 l 296 131 q 299 179 296 149 l 303 265 l 307 383 l 310 508 q 307 617 310 544 l 306 690 q 103 688 206 690 l 60 686 q 35 696 42 686 q 32 718 28 706 l 33 753 q 36 901 36 833 q 35 942 36 935 l 35 951 q 41 969 35 967 q 60 972 47 972 l 197 972 l 275 974 q 376 976 347 976 l 460 975 q 617 972 560 972 q 671 974 658 972 q 714 965 701 975 q 726 942 726 954 m 454 -106 q 424 -172 454 -147 q 363 -197 394 -197 q 304 -173 331 -197 q 278 -112 278 -149 q 301 -56 278 -82 q 357 -31 325 -31 q 424 -51 394 -31 q 454 -106 454 -71 z "},"U":{"ha":678,"x_min":78,"x_max":601,"o":"m 151 960 q 149 765 150 943 q 147 400 147 588 q 167 256 147 319 q 224 156 188 192 q 304 119 260 119 q 392 155 365 119 q 419 229 419 190 l 422 314 q 426 544 426 522 q 429 671 426 576 q 433 826 433 750 q 428 922 433 894 q 424 949 424 939 q 433 973 424 968 q 451 977 442 978 q 463 976 460 976 q 494 976 476 975 q 525 976 511 976 l 561 976 q 587 970 583 976 q 592 943 590 964 q 594 868 594 913 q 593 824 594 838 q 594 707 592 810 q 601 428 601 538 l 601 343 q 516 84 599 164 q 317 4 433 4 q 174 63 228 4 q 97 194 119 122 q 83 294 88 226 q 78 432 78 361 q 82 538 78 511 q 85 667 85 557 q 79 919 85 842 q 78 942 78 928 q 104 974 78 985 l 119 972 q 131 974 125 972 q 144 975 138 975 q 151 960 151 975 z "},"Ú":{"ha":563,"x_min":78,"x_max":601,"o":"m 453 1119 q 426 1090 449 1104 q 385 1072 403 1076 q 267 1026 318 1051 q 247 1019 261 1025 q 222 1014 232 1014 q 193 1024 208 1014 q 165 1054 165 1033 q 168 1068 165 1057 q 196 1087 169 1075 q 238 1103 222 1099 q 268 1115 246 1108 q 322 1135 290 1121 l 353 1146 q 401 1156 382 1156 l 429 1158 q 454 1135 454 1158 q 453 1119 454 1125 m 151 960 q 149 765 150 943 q 147 400 147 588 q 167 256 147 319 q 224 156 188 192 q 304 119 260 119 q 392 155 365 119 q 419 229 419 190 l 422 314 q 426 544 426 522 q 429 671 426 576 q 433 826 433 750 q 428 922 433 894 q 424 949 424 939 q 433 973 424 968 q 451 977 442 978 q 463 976 460 976 q 494 976 476 975 q 525 976 511 976 l 561 976 q 587 970 583 976 q 592 943 590 964 q 594 868 594 913 q 593 824 594 838 q 594 707 592 810 q 601 428 601 538 l 601 343 q 516 84 599 164 q 317 4 433 4 q 174 63 228 4 q 97 194 119 122 q 83 294 88 226 q 78 432 78 361 q 82 538 78 511 q 85 667 85 557 q 79 919 85 842 q 78 942 78 928 q 104 974 78 985 l 119 972 q 131 974 125 972 q 144 975 138 975 q 151 960 151 975 z "},"Ŭ":{"ha":678,"x_min":78,"x_max":601,"o":"m 525 1156 q 519 1114 525 1138 q 496 1076 514 1090 q 442 1043 478 1061 q 308 1025 407 1025 q 169 1046 196 1032 q 132 1083 142 1060 q 111 1161 113 1128 q 120 1165 111 1164 q 151 1165 129 1165 q 186 1163 181 1165 q 192 1151 192 1161 q 214 1114 197 1125 q 306 1100 229 1104 q 390 1113 343 1100 q 442 1154 439 1126 q 479 1164 447 1163 q 525 1156 525 1163 m 151 960 q 149 765 150 943 q 147 400 147 588 q 167 256 147 319 q 224 156 188 192 q 304 119 260 119 q 392 155 365 119 q 419 229 419 190 l 422 314 q 426 544 426 522 q 429 671 426 576 q 433 826 433 750 q 428 922 433 894 q 424 949 424 939 q 433 973 424 968 q 451 977 442 978 q 463 976 460 976 q 494 976 476 975 q 525 976 511 976 l 561 976 q 587 970 583 976 q 592 943 590 964 q 594 868 594 913 q 593 824 594 838 q 594 707 592 810 q 601 428 601 538 l 601 343 q 516 84 599 164 q 317 4 433 4 q 174 63 228 4 q 97 194 119 122 q 83 294 88 226 q 78 432 78 361 q 82 538 78 511 q 85 667 85 557 q 79 919 85 842 q 78 942 78 928 q 104 974 78 985 l 119 972 q 131 974 125 972 q 144 975 138 975 q 151 960 151 975 z "},"Û":{"ha":563,"x_min":78,"x_max":601,"o":"m 539 1036 q 517 1015 533 1015 q 479 1025 506 1015 l 442 1035 q 393 1060 418 1044 l 349 1081 l 285 1051 q 206 1022 258 1038 q 153 1018 178 1018 q 128 1025 138 1018 q 119 1040 119 1032 q 129 1057 119 1051 l 167 1081 q 185 1089 171 1082 q 233 1121 200 1096 q 306 1157 289 1153 q 331 1163 318 1163 q 346 1164 336 1164 q 366 1160 357 1164 q 383 1152 375 1157 q 399 1143 392 1147 q 463 1101 439 1115 l 492 1083 q 528 1058 514 1069 q 539 1036 542 1047 m 151 960 q 149 765 150 943 q 147 400 147 588 q 167 256 147 319 q 224 156 188 192 q 304 119 260 119 q 392 155 365 119 q 419 229 419 190 l 422 314 q 426 544 426 522 q 429 671 426 576 q 433 826 433 750 q 428 922 433 894 q 424 949 424 939 q 433 973 424 968 q 451 977 442 978 q 463 976 460 976 q 494 976 476 975 q 525 976 511 976 l 561 976 q 587 970 583 976 q 592 943 590 964 q 594 868 594 913 q 593 824 594 838 q 594 707 592 810 q 601 428 601 538 l 601 343 q 516 84 599 164 q 317 4 433 4 q 174 63 228 4 q 97 194 119 122 q 83 294 88 226 q 78 432 78 361 q 82 538 78 511 q 85 667 85 557 q 79 919 85 842 q 78 942 78 928 q 104 974 78 985 l 119 972 q 131 974 125 972 q 144 975 138 975 q 151 960 151 975 z "},"Ü":{"ha":563,"x_min":78,"x_max":601,"o":"m 408 1081 q 440 1149 408 1131 q 511 1167 471 1167 q 554 1141 538 1167 q 571 1081 571 1115 q 548 1028 571 1050 q 483 1006 525 1006 q 426 1028 443 1006 q 408 1081 408 1050 m 257 1086 q 228 1024 257 1047 q 171 1000 200 1000 q 115 1022 140 1000 q 90 1081 90 1044 q 112 1133 90 1110 q 165 1157 133 1157 q 229 1138 201 1157 q 257 1086 257 1119 m 151 960 q 149 765 150 943 q 147 400 147 588 q 167 256 147 319 q 224 156 188 192 q 304 119 260 119 q 392 155 365 119 q 419 229 419 190 l 422 314 q 426 544 426 522 q 429 671 426 576 q 433 826 433 750 q 428 922 433 894 q 424 949 424 939 q 433 973 424 968 q 451 977 442 978 q 463 976 460 976 q 494 976 476 975 q 525 976 511 976 l 561 976 q 587 970 583 976 q 592 943 590 964 q 594 868 594 913 q 593 824 594 838 q 594 707 592 810 q 601 428 601 538 l 601 343 q 516 84 599 164 q 317 4 433 4 q 174 63 228 4 q 97 194 119 122 q 83 294 88 226 q 78 432 78 361 q 82 538 78 511 q 85 667 85 557 q 79 919 85 842 q 78 942 78 928 q 104 974 78 985 l 119 972 q 131 974 125 972 q 144 975 138 975 q 151 960 151 975 z "},"Ụ":{"ha":678,"x_min":78,"x_max":601,"o":"m 151 960 q 149 765 150 943 q 147 400 147 588 q 167 256 147 319 q 224 156 188 192 q 304 119 260 119 q 392 155 365 119 q 419 229 419 190 l 422 314 q 426 544 426 522 q 429 671 426 576 q 433 826 433 750 q 428 922 433 894 q 424 949 424 939 q 433 973 424 968 q 451 977 442 978 q 463 976 460 976 q 494 976 476 975 q 525 976 511 976 l 561 976 q 587 970 583 976 q 592 943 590 964 q 594 868 594 913 q 593 824 594 838 q 594 707 592 810 q 601 428 601 538 l 601 343 q 516 84 599 164 q 317 4 433 4 q 174 63 228 4 q 97 194 119 122 q 83 294 88 226 q 78 432 78 361 q 82 538 78 511 q 85 667 85 557 q 79 919 85 842 q 78 942 78 928 q 104 974 78 985 l 119 972 q 131 974 125 972 q 144 975 138 975 q 151 960 151 975 m 413 -106 q 383 -172 413 -147 q 321 -197 353 -197 q 263 -173 289 -197 q 236 -112 236 -149 q 260 -56 236 -82 q 315 -31 283 -31 q 383 -51 353 -31 q 413 -106 413 -71 z "},"Ù":{"ha":563,"x_min":78,"x_max":601,"o":"m 389 1067 q 392 1049 392 1053 q 365 1026 392 1026 q 339 1029 358 1026 q 290 1035 324 1028 l 260 1046 q 205 1065 228 1060 q 174 1075 182 1071 q 131 1090 156 1081 q 104 1107 107 1100 q 100 1122 100 1115 q 126 1153 100 1142 q 157 1164 146 1164 q 180 1159 167 1164 q 200 1153 193 1154 q 262 1128 239 1136 q 319 1113 285 1121 q 342 1103 325 1110 q 372 1088 358 1097 q 389 1067 386 1079 m 151 960 q 149 765 150 943 q 147 400 147 588 q 167 256 147 319 q 224 156 188 192 q 304 119 260 119 q 392 155 365 119 q 419 229 419 190 l 422 314 q 426 544 426 522 q 429 671 426 576 q 433 826 433 750 q 428 922 433 894 q 424 949 424 939 q 433 973 424 968 q 451 977 442 978 q 463 976 460 976 q 494 976 476 975 q 525 976 511 976 l 561 976 q 587 970 583 976 q 592 943 590 964 q 594 868 594 913 q 593 824 594 838 q 594 707 592 810 q 601 428 601 538 l 601 343 q 516 84 599 164 q 317 4 433 4 q 174 63 228 4 q 97 194 119 122 q 83 294 88 226 q 78 432 78 361 q 82 538 78 511 q 85 667 85 557 q 79 919 85 842 q 78 942 78 928 q 104 974 78 985 l 119 972 q 131 974 125 972 q 144 975 138 975 q 151 960 151 975 z "},"Ű":{"ha":678,"x_min":67,"x_max":631,"o":"m 354 1126 q 327 1097 350 1111 q 286 1079 304 1083 q 168 1033 219 1058 q 148 1026 163 1032 q 124 1021 133 1021 q 94 1031 110 1021 q 67 1061 67 1040 q 69 1075 67 1064 q 97 1094 71 1082 q 139 1110 124 1106 q 169 1122 147 1115 q 224 1142 192 1128 l 254 1153 q 303 1163 283 1163 l 331 1165 q 356 1142 356 1165 q 354 1126 356 1132 m 629 1126 q 602 1097 625 1111 q 561 1079 579 1083 q 443 1033 494 1058 q 423 1026 438 1032 q 399 1021 408 1021 q 369 1031 385 1021 q 342 1061 342 1040 q 344 1075 342 1064 q 372 1094 346 1082 q 414 1110 399 1106 q 444 1122 422 1115 q 499 1142 467 1128 l 529 1153 q 578 1163 558 1163 l 606 1165 q 631 1142 631 1165 q 629 1126 631 1132 m 151 960 q 149 765 150 943 q 147 400 147 588 q 167 256 147 319 q 224 156 188 192 q 304 119 260 119 q 392 155 365 119 q 419 229 419 190 l 422 314 q 426 544 426 522 q 429 671 426 576 q 433 826 433 750 q 428 922 433 894 q 424 949 424 939 q 433 973 424 968 q 451 977 442 978 q 463 976 460 976 q 494 976 476 975 q 525 976 511 976 l 561 976 q 587 970 583 976 q 592 943 590 964 q 594 868 594 913 q 593 824 594 838 q 594 707 592 810 q 601 428 601 538 l 601 343 q 516 84 599 164 q 317 4 433 4 q 174 63 228 4 q 97 194 119 122 q 83 294 88 226 q 78 432 78 361 q 82 538 78 511 q 85 667 85 557 q 79 919 85 842 q 78 942 78 928 q 104 974 78 985 l 119 972 q 131 974 125 972 q 144 975 138 975 q 151 960 151 975 z "},"Ū":{"ha":678,"x_min":78,"x_max":601,"o":"m 522 1156 q 535 1150 532 1156 q 538 1132 538 1144 l 538 1090 q 532 1076 538 1081 q 507 1072 526 1072 l 457 1074 q 390 1076 410 1076 l 207 1076 q 136 1072 143 1076 q 127 1076 129 1072 q 125 1090 125 1081 l 125 1128 q 128 1148 125 1142 q 140 1154 132 1154 l 513 1154 l 522 1156 m 151 960 q 149 765 150 943 q 147 400 147 588 q 167 256 147 319 q 224 156 188 192 q 304 119 260 119 q 392 155 365 119 q 419 229 419 190 l 422 314 q 426 544 426 522 q 429 671 426 576 q 433 826 433 750 q 428 922 433 894 q 424 949 424 939 q 433 973 424 968 q 451 977 442 978 q 463 976 460 976 q 494 976 476 975 q 525 976 511 976 l 561 976 q 587 970 583 976 q 592 943 590 964 q 594 868 594 913 q 593 824 594 838 q 594 707 592 810 q 601 428 601 538 l 601 343 q 516 84 599 164 q 317 4 433 4 q 174 63 228 4 q 97 194 119 122 q 83 294 88 226 q 78 432 78 361 q 82 538 78 511 q 85 667 85 557 q 79 919 85 842 q 78 942 78 928 q 104 974 78 985 l 119 972 q 131 974 125 972 q 144 975 138 975 q 151 960 151 975 z "},"Ų":{"ha":678,"x_min":78,"x_max":601,"o":"m 593 824 q 594 707 592 810 q 601 428 601 538 l 601 343 q 526 95 599 175 q 344 6 453 15 q 340 -31 344 -7 q 336 -78 336 -54 q 364 -135 336 -133 q 425 -130 404 -137 q 458 -112 446 -122 q 474 -103 471 -103 q 492 -115 482 -103 q 501 -137 501 -128 q 475 -178 501 -156 q 413 -219 449 -201 q 351 -237 376 -236 q 268 -215 296 -239 q 238 -126 240 -192 q 250 -62 238 -100 q 269 -11 260 -36 q 274 -3 271 -7 q 279 7 276 1 q 162 75 207 19 q 97 194 117 131 q 83 294 88 226 q 78 432 78 361 q 82 538 78 511 q 85 667 85 557 q 79 919 85 842 q 78 942 78 928 q 104 974 78 985 l 119 972 q 131 974 125 972 q 144 975 138 975 q 151 960 151 975 l 151 974 q 149 739 150 910 q 147 400 147 568 q 167 256 147 319 q 224 156 188 192 q 304 119 260 119 q 392 155 365 119 q 419 229 419 190 l 422 314 q 426 544 426 522 q 429 671 426 576 q 433 826 433 750 q 428 922 433 894 q 424 949 424 939 q 433 973 424 968 q 451 977 442 978 q 463 976 460 976 q 494 976 476 975 q 525 976 511 976 l 561 976 q 587 970 583 976 q 592 943 590 964 q 594 868 594 913 q 593 824 594 838 z "},"Ů":{"ha":678,"x_min":78,"x_max":601,"o":"m 360 974 q 308 967 344 967 q 241 995 271 967 q 211 1061 211 1024 q 225 1114 213 1088 q 256 1152 235 1138 q 311 1167 278 1167 q 397 1132 375 1167 q 419 1067 419 1097 q 405 1019 419 1049 q 360 974 390 989 m 318 1097 q 290 1088 300 1097 q 279 1067 279 1079 q 290 1045 279 1054 q 314 1036 300 1036 l 329 1038 q 342 1044 331 1039 q 353 1067 353 1050 q 343 1088 353 1078 q 318 1097 333 1097 m 151 960 q 149 765 150 943 q 147 400 147 588 q 167 256 147 319 q 224 156 188 192 q 304 119 260 119 q 392 155 365 119 q 419 229 419 190 l 422 314 q 426 544 426 522 q 429 671 426 576 q 433 826 433 750 q 428 922 433 894 q 424 949 424 939 q 433 973 424 968 q 451 977 442 978 q 463 976 460 976 q 494 976 476 975 q 525 976 511 976 l 561 976 q 587 970 583 976 q 592 943 590 964 q 594 868 594 913 q 593 824 594 838 q 594 707 592 810 q 601 428 601 538 l 601 343 q 516 84 599 164 q 317 4 433 4 q 174 63 228 4 q 97 194 119 122 q 83 294 88 226 q 78 432 78 361 q 82 538 78 511 q 85 667 85 557 q 79 919 85 842 q 78 942 78 928 q 104 974 78 985 l 119 972 q 131 974 125 972 q 144 975 138 975 q 151 960 151 975 z "},"Ũ":{"ha":678,"x_min":78,"x_max":601,"o":"m 182 1131 q 243 1136 214 1131 q 282 1143 272 1142 q 447 1154 344 1154 q 536 1149 501 1154 q 570 1140 564 1147 q 576 1126 576 1133 q 576 1114 576 1118 l 576 1093 q 544 1071 576 1071 q 522 1074 535 1071 q 504 1078 510 1076 q 453 1088 475 1088 q 394 1083 422 1086 q 357 1079 367 1081 q 307 1072 328 1074 q 263 1067 278 1069 q 182 1061 215 1061 q 90 1093 90 1061 l 90 1111 q 93 1143 90 1133 q 103 1150 94 1150 q 133 1142 108 1150 q 182 1131 158 1135 m 151 960 q 149 765 150 943 q 147 400 147 588 q 167 256 147 319 q 224 156 188 192 q 304 119 260 119 q 392 155 365 119 q 419 229 419 190 l 422 314 q 426 544 426 522 q 429 671 426 576 q 433 826 433 750 q 428 922 433 894 q 424 949 424 939 q 433 973 424 968 q 451 977 442 978 q 463 976 460 976 q 494 976 476 975 q 525 976 511 976 l 561 976 q 587 970 583 976 q 592 943 590 964 q 594 868 594 913 q 593 824 594 838 q 594 707 592 810 q 601 428 601 538 l 601 343 q 516 84 599 164 q 317 4 433 4 q 174 63 228 4 q 97 194 119 122 q 83 294 88 226 q 78 432 78 361 q 82 538 78 511 q 85 667 85 557 q 79 919 85 842 q 78 942 78 928 q 104 974 78 985 l 119 972 q 131 974 125 972 q 144 975 138 975 q 151 960 151 975 z "},"V":{"ha":788,"x_min":38,"x_max":747,"o":"m 331 724 q 368 529 338 679 l 399 392 l 417 474 q 439 600 429 529 q 452 669 440 619 q 469 743 464 718 q 508 935 511 897 q 515 979 506 971 q 538 987 525 988 q 556 986 551 986 q 721 982 688 986 q 742 976 736 981 q 747 965 747 972 q 743 943 747 958 q 717 838 736 925 l 710 807 q 629 440 658 544 q 581 176 607 351 q 554 35 557 42 q 546 16 550 21 q 533 11 542 11 l 511 13 l 418 7 q 301 1 321 1 q 273 13 279 1 q 263 54 267 25 q 163 436 246 124 q 86 764 151 479 l 40 958 q 38 972 38 969 q 53 983 38 983 q 72 981 61 983 q 96 979 83 979 l 165 982 l 250 985 q 283 977 275 988 q 297 942 292 967 q 321 792 301 924 l 331 724 z "},"W":{"ha":940,"x_min":39,"x_max":897,"o":"m 333 478 l 347 517 q 381 631 357 540 l 390 667 q 415 746 396 688 q 446 836 435 804 q 463 882 453 851 q 515 974 499 974 q 528 971 525 974 q 532 961 531 968 q 535 950 533 954 q 542 924 538 939 q 549 892 546 910 q 615 719 604 747 l 658 626 l 683 571 q 689 583 686 579 l 703 618 q 714 675 706 626 q 731 763 724 736 q 756 839 738 789 q 779 921 776 900 q 813 969 785 969 q 863 975 835 975 q 881 974 876 975 q 897 961 897 974 l 894 944 l 882 906 q 865 849 872 868 q 849 789 858 824 q 829 718 839 754 q 793 585 808 636 q 775 487 785 551 q 765 411 765 422 q 746 331 765 378 q 725 239 739 310 q 707 143 711 168 q 688 42 693 51 q 684 22 686 33 q 680 4 682 10 q 674 -1 678 -1 q 658 4 663 -1 q 644 28 653 10 q 588 163 633 42 q 529 325 578 188 q 501 404 521 354 l 482 456 l 463 417 q 421 314 449 386 l 410 286 q 357 88 393 238 l 347 47 q 334 15 343 31 q 318 -1 325 -1 q 303 6 308 -1 q 294 28 299 13 q 275 107 289 39 q 258 174 269 129 q 242 233 247 219 q 213 323 229 264 q 193 393 196 382 q 129 617 182 419 q 114 669 121 643 q 101 714 107 694 l 75 813 l 44 925 q 39 953 39 943 q 42 958 39 957 q 49 960 44 960 l 92 960 q 125 961 115 960 l 140 964 q 159 960 154 968 q 169 925 164 951 q 197 827 172 914 q 256 657 222 740 q 304 521 282 575 l 328 460 l 333 478 z "},"Ẃ":{"ha":940,"x_min":39,"x_max":897,"o":"m 672 1126 q 645 1097 668 1111 q 604 1079 622 1083 q 486 1033 538 1058 q 466 1026 481 1032 q 442 1021 451 1021 q 413 1031 428 1021 q 385 1061 385 1040 q 388 1075 385 1064 q 415 1094 389 1082 q 457 1110 442 1106 q 488 1122 465 1115 q 542 1142 510 1128 l 572 1153 q 621 1163 601 1163 l 649 1165 q 674 1142 674 1165 q 672 1126 674 1132 m 333 478 l 347 517 q 381 631 357 540 l 390 667 q 415 746 396 688 q 446 836 435 804 q 463 882 453 851 q 515 974 499 974 q 528 971 525 974 q 532 961 531 968 q 535 950 533 954 q 542 924 538 939 q 549 892 546 910 q 615 719 604 747 l 658 626 l 683 571 q 689 583 686 579 l 703 618 q 714 675 706 626 q 731 763 724 736 q 756 839 738 789 q 779 921 776 900 q 813 969 785 969 q 863 975 835 975 q 881 974 876 975 q 897 961 897 974 l 894 944 l 882 906 q 865 849 872 868 q 849 789 858 824 q 829 718 839 754 q 793 585 808 636 q 775 487 785 551 q 765 411 765 422 q 746 331 765 378 q 725 239 739 310 q 707 143 711 168 q 688 42 693 51 q 684 22 686 33 q 680 4 682 10 q 674 -1 678 -1 q 658 4 663 -1 q 644 28 653 10 q 588 163 633 42 q 529 325 578 188 q 501 404 521 354 l 482 456 l 463 417 q 421 314 449 386 l 410 286 q 357 88 393 238 l 347 47 q 334 15 343 31 q 318 -1 325 -1 q 303 6 308 -1 q 294 28 299 13 q 275 107 289 39 q 258 174 269 129 q 242 233 247 219 q 213 323 229 264 q 193 393 196 382 q 129 617 182 419 q 114 669 121 643 q 101 714 107 694 l 75 813 l 44 925 q 39 953 39 943 q 42 958 39 957 q 49 960 44 960 l 92 960 q 125 961 115 960 l 140 964 q 159 960 154 968 q 169 925 164 951 q 197 827 172 914 q 256 657 222 740 q 304 521 282 575 l 328 460 l 333 478 z "},"Ŵ":{"ha":940,"x_min":39,"x_max":897,"o":"m 713 1036 q 690 1015 707 1015 q 653 1025 679 1015 l 615 1035 q 567 1060 592 1044 l 522 1081 l 458 1051 q 379 1022 432 1038 q 326 1018 353 1018 q 302 1025 311 1018 q 293 1040 293 1032 q 303 1057 293 1051 l 340 1081 q 359 1089 344 1082 q 407 1121 374 1096 q 479 1157 463 1153 q 504 1163 492 1163 q 519 1164 510 1164 q 540 1160 531 1164 q 557 1152 549 1157 q 572 1143 565 1147 q 636 1101 611 1117 l 665 1083 q 701 1058 688 1069 q 713 1036 715 1047 m 333 478 l 347 517 q 381 631 357 540 l 390 667 q 415 746 396 688 q 446 836 435 804 q 463 882 453 851 q 515 974 499 974 q 528 971 525 974 q 532 961 531 968 q 535 950 533 954 q 542 924 538 939 q 549 892 546 910 q 615 719 604 747 l 658 626 l 683 571 q 689 583 686 579 l 703 618 q 714 675 706 626 q 731 763 724 736 q 756 839 738 789 q 779 921 776 900 q 813 969 785 969 q 863 975 835 975 q 881 974 876 975 q 897 961 897 974 l 894 944 l 882 906 q 865 849 872 868 q 849 789 858 824 q 829 718 839 754 q 793 585 808 636 q 775 487 785 551 q 765 411 765 422 q 746 331 765 378 q 725 239 739 310 q 707 143 711 168 q 688 42 693 51 q 684 22 686 33 q 680 4 682 10 q 674 -1 678 -1 q 658 4 663 -1 q 644 28 653 10 q 588 163 633 42 q 529 325 578 188 q 501 404 521 354 l 482 456 l 463 417 q 421 314 449 386 l 410 286 q 357 88 393 238 l 347 47 q 334 15 343 31 q 318 -1 325 -1 q 303 6 308 -1 q 294 28 299 13 q 275 107 289 39 q 258 174 269 129 q 242 233 247 219 q 213 323 229 264 q 193 393 196 382 q 129 617 182 419 q 114 669 121 643 q 101 714 107 694 l 75 813 l 44 925 q 39 953 39 943 q 42 958 39 957 q 49 960 44 960 l 92 960 q 125 961 115 960 l 140 964 q 159 960 154 968 q 169 925 164 951 q 197 827 172 914 q 256 657 222 740 q 304 521 282 575 l 328 460 l 333 478 z "},"Ẅ":{"ha":940,"x_min":39,"x_max":897,"o":"m 560 1081 q 591 1149 560 1131 q 663 1167 622 1167 q 706 1141 689 1167 q 722 1081 722 1115 q 699 1028 722 1050 q 635 1006 676 1006 q 577 1028 594 1006 q 560 1081 560 1050 m 408 1086 q 380 1024 408 1047 q 322 1000 351 1000 q 267 1022 292 1000 q 242 1081 242 1044 q 263 1133 242 1110 q 317 1157 285 1157 q 381 1138 353 1157 q 408 1086 408 1119 m 333 478 l 347 517 q 381 631 357 540 l 390 667 q 415 746 396 688 q 446 836 435 804 q 463 882 453 851 q 515 974 499 974 q 528 971 525 974 q 532 961 531 968 q 535 950 533 954 q 542 924 538 939 q 549 892 546 910 q 615 719 604 747 l 658 626 l 683 571 q 689 583 686 579 l 703 618 q 714 675 706 626 q 731 763 724 736 q 756 839 738 789 q 779 921 776 900 q 813 969 785 969 q 863 975 835 975 q 881 974 876 975 q 897 961 897 974 l 894 944 l 882 906 q 865 849 872 868 q 849 789 858 824 q 829 718 839 754 q 793 585 808 636 q 775 487 785 551 q 765 411 765 422 q 746 331 765 378 q 725 239 739 310 q 707 143 711 168 q 688 42 693 51 q 684 22 686 33 q 680 4 682 10 q 674 -1 678 -1 q 658 4 663 -1 q 644 28 653 10 q 588 163 633 42 q 529 325 578 188 q 501 404 521 354 l 482 456 l 463 417 q 421 314 449 386 l 410 286 q 357 88 393 238 l 347 47 q 334 15 343 31 q 318 -1 325 -1 q 303 6 308 -1 q 294 28 299 13 q 275 107 289 39 q 258 174 269 129 q 242 233 247 219 q 213 323 229 264 q 193 393 196 382 q 129 617 182 419 q 114 669 121 643 q 101 714 107 694 l 75 813 l 44 925 q 39 953 39 943 q 42 958 39 957 q 49 960 44 960 l 92 960 q 125 961 115 960 l 140 964 q 159 960 154 968 q 169 925 164 951 q 197 827 172 914 q 256 657 222 740 q 304 521 282 575 l 328 460 l 333 478 z "},"Ẁ":{"ha":940,"x_min":39,"x_max":897,"o":"m 636 1067 q 639 1049 639 1053 q 613 1026 639 1026 q 586 1029 606 1026 q 538 1035 571 1028 l 507 1046 q 452 1065 475 1060 q 421 1075 429 1071 q 378 1090 403 1081 q 351 1107 354 1100 q 347 1122 347 1115 q 374 1153 347 1142 q 404 1164 393 1164 q 427 1159 414 1164 q 447 1153 440 1154 q 509 1128 486 1136 q 567 1113 532 1121 q 589 1103 572 1110 q 619 1088 606 1097 q 636 1067 633 1079 m 333 478 l 347 517 q 381 631 357 540 l 390 667 q 415 746 396 688 q 446 836 435 804 q 463 882 453 851 q 515 974 499 974 q 528 971 525 974 q 532 961 531 968 q 535 950 533 954 q 542 924 538 939 q 549 892 546 910 q 615 719 604 747 l 658 626 l 683 571 q 689 583 686 579 l 703 618 q 714 675 706 626 q 731 763 724 736 q 756 839 738 789 q 779 921 776 900 q 813 969 785 969 q 863 975 835 975 q 881 974 876 975 q 897 961 897 974 l 894 944 l 882 906 q 865 849 872 868 q 849 789 858 824 q 829 718 839 754 q 793 585 808 636 q 775 487 785 551 q 765 411 765 422 q 746 331 765 378 q 725 239 739 310 q 707 143 711 168 q 688 42 693 51 q 684 22 686 33 q 680 4 682 10 q 674 -1 678 -1 q 658 4 663 -1 q 644 28 653 10 q 588 163 633 42 q 529 325 578 188 q 501 404 521 354 l 482 456 l 463 417 q 421 314 449 386 l 410 286 q 357 88 393 238 l 347 47 q 334 15 343 31 q 318 -1 325 -1 q 303 6 308 -1 q 294 28 299 13 q 275 107 289 39 q 258 174 269 129 q 242 233 247 219 q 213 323 229 264 q 193 393 196 382 q 129 617 182 419 q 114 669 121 643 q 101 714 107 694 l 75 813 l 44 925 q 39 953 39 943 q 42 958 39 957 q 49 960 44 960 l 92 960 q 125 961 115 960 l 140 964 q 159 960 154 968 q 169 925 164 951 q 197 827 172 914 q 256 657 222 740 q 304 521 282 575 l 328 460 l 333 478 z "},"X":{"ha":865,"x_min":65,"x_max":799,"o":"m 436 588 q 448 594 443 588 q 457 610 453 600 q 467 629 461 621 l 543 754 q 643 908 608 861 q 668 951 656 925 q 701 999 689 992 q 751 1010 726 1010 q 787 1001 775 1010 q 793 978 799 993 q 750 908 786 957 q 685 814 728 881 l 650 761 q 585 644 633 738 q 514 507 536 551 q 504 483 504 493 q 514 454 504 476 q 553 390 518 446 q 568 367 560 379 q 583 340 576 354 q 679 185 642 235 q 735 94 706 143 q 781 17 764 46 q 786 1 786 7 q 761 -8 786 -8 l 674 -7 q 661 -1 665 -6 q 651 18 657 4 l 636 49 q 599 106 629 64 q 553 179 564 153 q 501 269 539 204 q 442 368 463 333 q 425 382 432 382 q 407 365 419 382 q 367 313 388 342 q 315 244 332 265 q 263 165 296 219 q 219 83 231 111 q 185 31 207 57 q 151 -1 164 4 q 128 -4 140 -4 q 78 3 103 -4 q 65 15 65 7 q 74 36 65 22 q 86 56 82 50 q 131 120 94 69 q 185 194 168 171 q 229 256 185 194 q 297 356 246 278 q 349 432 329 408 q 365 475 365 456 q 356 508 365 489 q 308 590 349 522 l 243 708 q 139 876 225 743 q 86 960 99 938 q 76 985 76 975 q 92 997 76 997 q 126 999 114 997 l 167 1000 q 187 989 178 999 q 208 958 196 979 l 228 929 l 243 904 q 319 781 293 825 q 393 656 344 736 q 436 588 415 618 z "},"Y":{"ha":710,"x_min":47,"x_max":672,"o":"m 221 928 q 257 813 235 879 l 267 781 q 300 682 288 710 q 339 576 318 640 q 361 510 361 510 l 372 544 q 392 604 381 575 l 407 646 l 421 682 q 435 718 421 682 q 451 758 446 749 q 478 830 463 781 q 503 918 494 879 q 520 953 510 946 q 542 959 531 960 q 556 958 553 958 q 590 959 560 958 q 643 957 621 960 q 672 943 672 953 q 669 931 672 942 q 663 913 667 924 q 656 890 660 903 q 613 769 622 792 q 552 617 588 708 q 492 458 517 525 q 417 265 475 410 q 363 128 367 146 q 351 74 357 111 q 342 26 344 38 q 319 -1 335 -3 l 282 -1 q 226 -3 274 -3 l 175 -4 q 158 4 158 -4 q 160 12 158 8 q 164 19 163 15 l 179 61 q 213 154 211 151 q 239 229 215 165 l 250 257 q 258 276 253 264 q 265 295 264 288 q 263 310 265 303 q 250 350 260 314 q 239 387 247 358 q 222 431 231 415 q 200 499 214 451 q 182 556 190 531 q 127 713 160 617 q 75 867 94 808 q 57 911 68 889 q 47 940 47 933 q 58 953 47 950 q 89 958 68 957 q 111 960 94 960 q 144 958 132 960 q 201 957 190 958 q 216 951 213 956 q 219 940 219 947 q 221 928 219 933 z "},"Ý":{"ha":689,"x_min":47,"x_max":672,"o":"m 500 1119 q 473 1090 496 1104 q 432 1072 450 1076 q 314 1026 365 1051 q 294 1019 308 1025 q 269 1014 279 1014 q 240 1024 256 1014 q 213 1054 213 1033 q 215 1068 213 1057 q 243 1087 217 1075 q 285 1103 269 1099 q 315 1115 293 1108 q 369 1135 338 1121 l 400 1146 q 449 1156 429 1156 l 476 1158 q 501 1135 501 1158 q 500 1119 501 1125 m 221 928 q 257 813 235 879 l 267 781 q 300 682 288 710 q 339 576 318 640 q 361 510 361 510 l 372 544 q 392 604 381 575 l 407 646 l 421 682 q 435 718 421 682 q 451 758 446 749 q 478 830 463 781 q 503 918 494 879 q 520 953 510 946 q 542 959 531 960 q 556 958 553 958 q 590 959 560 958 q 643 957 621 960 q 672 943 672 953 q 669 931 672 942 q 663 913 667 924 q 656 890 660 903 q 613 769 622 792 q 552 617 588 708 q 492 458 517 525 q 417 265 475 410 q 363 128 367 146 q 351 74 357 111 q 342 26 344 38 q 319 -1 335 -3 l 282 -1 q 226 -3 274 -3 l 175 -4 q 158 4 158 -4 q 160 12 158 8 q 164 19 163 15 l 179 61 q 213 154 211 151 q 239 229 215 165 l 250 257 q 258 276 253 264 q 265 295 264 288 q 263 310 265 303 q 250 350 260 314 q 239 387 247 358 q 222 431 231 415 q 200 499 214 451 q 182 556 190 531 q 127 713 160 617 q 75 867 94 808 q 57 911 68 889 q 47 940 47 933 q 58 953 47 950 q 89 958 68 957 q 111 960 94 960 q 144 958 132 960 q 201 957 190 958 q 216 951 213 956 q 219 940 219 947 q 221 928 219 933 z "},"Ŷ":{"ha":735,"x_min":47,"x_max":672,"o":"m 554 1036 q 532 1015 549 1015 q 494 1025 521 1015 l 457 1035 q 408 1060 433 1044 l 364 1081 l 300 1051 q 221 1022 274 1038 q 168 1018 193 1018 q 144 1025 153 1018 q 135 1040 135 1032 q 144 1057 135 1051 l 182 1081 q 201 1089 186 1082 q 249 1121 215 1096 q 321 1157 304 1153 q 346 1163 333 1163 q 361 1164 351 1164 q 381 1160 372 1164 q 399 1152 390 1157 q 414 1143 407 1147 q 478 1101 453 1115 l 507 1083 q 543 1058 529 1069 q 554 1036 557 1047 m 221 928 q 257 813 235 879 l 267 781 q 300 682 288 710 q 339 576 318 640 q 361 510 361 510 l 372 544 q 392 604 381 575 l 407 646 l 421 682 q 435 718 421 682 q 451 758 446 749 q 478 830 463 781 q 503 918 494 879 q 520 953 510 946 q 542 959 531 960 q 556 958 553 958 q 590 959 560 958 q 643 957 621 960 q 672 943 672 953 q 669 931 672 942 q 663 913 667 924 q 656 890 660 903 q 613 769 622 792 q 552 617 588 708 q 492 458 517 525 q 417 265 475 410 q 363 128 367 146 q 351 74 357 111 q 342 26 344 38 q 319 -1 335 -3 l 282 -1 q 226 -3 274 -3 l 175 -4 q 158 4 158 -4 q 160 12 158 8 q 164 19 163 15 l 179 61 q 213 154 211 151 q 239 229 215 165 l 250 257 q 258 276 253 264 q 265 295 264 288 q 263 310 265 303 q 250 350 260 314 q 239 387 247 358 q 222 431 231 415 q 200 499 214 451 q 182 556 190 531 q 127 713 160 617 q 75 867 94 808 q 57 911 68 889 q 47 940 47 933 q 58 953 47 950 q 89 958 68 957 q 111 960 94 960 q 144 958 132 960 q 201 957 190 958 q 216 951 213 956 q 219 940 219 947 q 221 928 219 933 z "},"Ÿ":{"ha":735,"x_min":47,"x_max":672,"o":"m 422 1081 q 453 1149 422 1131 q 525 1167 485 1167 q 568 1141 551 1167 q 585 1081 585 1115 q 562 1028 585 1050 q 497 1006 539 1006 q 440 1028 457 1006 q 422 1081 422 1050 m 271 1086 q 242 1024 271 1047 q 185 1000 214 1000 q 129 1022 154 1000 q 104 1081 104 1044 q 126 1133 104 1110 q 179 1157 147 1157 q 243 1138 215 1157 q 271 1086 271 1119 m 221 928 q 257 813 235 879 l 267 781 q 300 682 288 710 q 339 576 318 640 q 361 510 361 510 l 372 544 q 392 604 381 575 l 407 646 l 421 682 q 435 718 421 682 q 451 758 446 749 q 478 830 463 781 q 503 918 494 879 q 520 953 510 946 q 542 959 531 960 q 556 958 553 958 q 590 959 560 958 q 643 957 621 960 q 672 943 672 953 q 669 931 672 942 q 663 913 667 924 q 656 890 660 903 q 613 769 622 792 q 552 617 588 708 q 492 458 517 525 q 417 265 475 410 q 363 128 367 146 q 351 74 357 111 q 342 26 344 38 q 319 -1 335 -3 l 282 -1 q 226 -3 274 -3 l 175 -4 q 158 4 158 -4 q 160 12 158 8 q 164 19 163 15 l 179 61 q 213 154 211 151 q 239 229 215 165 l 250 257 q 258 276 253 264 q 265 295 264 288 q 263 310 265 303 q 250 350 260 314 q 239 387 247 358 q 222 431 231 415 q 200 499 214 451 q 182 556 190 531 q 127 713 160 617 q 75 867 94 808 q 57 911 68 889 q 47 940 47 933 q 58 953 47 950 q 89 958 68 957 q 111 960 94 960 q 144 958 132 960 q 201 957 190 958 q 216 951 213 956 q 219 940 219 947 q 221 928 219 933 z "},"Ỳ":{"ha":735,"x_min":47,"x_max":672,"o":"m 468 1067 q 471 1049 471 1053 q 444 1026 471 1026 q 418 1029 438 1026 q 369 1035 403 1028 l 339 1046 q 284 1065 307 1060 q 253 1075 261 1071 q 210 1090 235 1081 q 183 1107 186 1100 q 179 1122 179 1115 q 206 1153 179 1142 q 236 1164 225 1164 q 259 1159 246 1164 q 279 1153 272 1154 q 341 1128 318 1136 q 399 1113 364 1121 q 421 1103 404 1110 q 451 1088 438 1097 q 468 1067 465 1079 m 221 928 q 257 813 235 879 l 267 781 q 300 682 288 710 q 339 576 318 640 q 361 510 361 510 l 372 544 q 392 604 381 575 l 407 646 l 421 682 q 435 718 421 682 q 451 758 446 749 q 478 830 463 781 q 503 918 494 879 q 520 953 510 946 q 542 959 531 960 q 556 958 553 958 q 590 959 560 958 q 643 957 621 960 q 672 943 672 953 q 669 931 672 942 q 663 913 667 924 q 656 890 660 903 q 613 769 622 792 q 552 617 588 708 q 492 458 517 525 q 417 265 475 410 q 363 128 367 146 q 351 74 357 111 q 342 26 344 38 q 319 -1 335 -3 l 282 -1 q 226 -3 274 -3 l 175 -4 q 158 4 158 -4 q 160 12 158 8 q 164 19 163 15 l 179 61 q 213 154 211 151 q 239 229 215 165 l 250 257 q 258 276 253 264 q 265 295 264 288 q 263 310 265 303 q 250 350 260 314 q 239 387 247 358 q 222 431 231 415 q 200 499 214 451 q 182 556 190 531 q 127 713 160 617 q 75 867 94 808 q 57 911 68 889 q 47 940 47 933 q 58 953 47 950 q 89 958 68 957 q 111 960 94 960 q 144 958 132 960 q 201 957 190 958 q 216 951 213 956 q 219 940 219 947 q 221 928 219 933 z "},"Ỹ":{"ha":735,"x_min":47,"x_max":672,"o":"m 196 1131 q 257 1136 228 1131 q 296 1143 286 1142 q 461 1154 358 1154 q 550 1149 515 1154 q 584 1140 578 1147 q 590 1126 590 1133 q 590 1114 590 1118 l 590 1093 q 558 1071 590 1071 q 536 1074 549 1071 q 518 1078 524 1076 q 467 1088 489 1088 q 408 1083 436 1086 q 371 1079 381 1081 q 321 1072 342 1074 q 276 1067 292 1069 q 196 1061 229 1061 q 104 1093 104 1061 l 104 1111 q 107 1143 104 1133 q 117 1150 108 1150 q 147 1142 122 1150 q 196 1131 172 1135 m 221 928 q 257 813 235 879 l 267 781 q 300 682 288 710 q 339 576 318 640 q 361 510 361 510 l 372 544 q 392 604 381 575 l 407 646 l 421 682 q 435 718 421 682 q 451 758 446 749 q 478 830 463 781 q 503 918 494 879 q 520 953 510 946 q 542 959 531 960 q 556 958 553 958 q 590 959 560 958 q 643 957 621 960 q 672 943 672 953 q 669 931 672 942 q 663 913 667 924 q 656 890 660 903 q 613 769 622 792 q 552 617 588 708 q 492 458 517 525 q 417 265 475 410 q 363 128 367 146 q 351 74 357 111 q 342 26 344 38 q 319 -1 335 -3 l 282 -1 q 226 -3 274 -3 l 175 -4 q 158 4 158 -4 q 160 12 158 8 q 164 19 163 15 l 179 61 q 213 154 211 151 q 239 229 215 165 l 250 257 q 258 276 253 264 q 265 295 264 288 q 263 310 265 303 q 250 350 260 314 q 239 387 247 358 q 222 431 231 415 q 200 499 214 451 q 182 556 190 531 q 127 713 160 617 q 75 867 94 808 q 57 911 68 889 q 47 940 47 933 q 58 953 47 950 q 89 958 68 957 q 111 960 94 960 q 144 958 132 960 q 201 957 190 958 q 216 951 213 956 q 219 940 219 947 q 221 928 219 933 z "},"Z":{"ha":890,"x_min":53,"x_max":821,"o":"m 104 963 q 181 965 125 963 q 279 968 247 968 l 426 965 l 513 963 l 594 963 q 733 965 714 963 l 743 967 q 758 962 756 967 q 761 951 761 957 q 761 944 761 946 q 762 917 761 943 q 749 872 763 892 q 557 597 593 647 q 388 364 457 456 l 256 183 q 313 176 294 178 q 413 171 356 171 l 492 172 q 564 174 515 174 q 708 179 603 174 l 794 182 q 815 174 811 182 q 820 154 819 165 q 821 139 821 143 l 818 38 l 818 29 q 815 13 818 15 q 799 8 813 10 l 771 6 q 694 -1 740 6 q 614 -4 675 -4 l 504 -3 q 438 -1 478 -1 l 97 -1 q 60 8 67 -1 q 53 28 53 17 q 54 44 54 40 l 57 99 q 61 167 61 139 q 71 192 61 178 q 99 225 81 206 l 121 250 q 227 392 158 300 q 313 514 296 485 q 381 612 329 544 q 444 697 432 679 l 461 719 q 511 810 482 750 l 536 864 q 524 865 528 864 l 496 868 l 349 869 q 310 868 324 869 l 264 867 q 239 868 244 867 q 140 871 226 871 l 82 871 q 68 875 71 872 q 66 882 65 878 q 67 889 67 886 q 63 943 67 904 q 69 960 61 957 q 88 963 76 964 q 104 963 99 963 z "},"Ź":{"ha":890,"x_min":53,"x_max":821,"o":"m 561 1126 q 534 1097 557 1111 q 493 1079 511 1083 q 375 1033 426 1058 q 355 1026 369 1032 q 331 1021 340 1021 q 301 1031 317 1021 q 274 1061 274 1040 q 276 1075 274 1064 q 304 1094 278 1082 q 346 1110 331 1106 q 376 1122 354 1115 q 431 1142 399 1128 l 461 1153 q 510 1163 490 1163 l 538 1165 q 563 1142 563 1165 q 561 1126 563 1132 m 104 963 q 181 965 125 963 q 279 968 247 968 l 426 965 l 513 963 l 594 963 q 733 965 714 963 l 743 967 q 758 962 756 967 q 761 951 761 957 q 761 944 761 946 q 762 917 761 943 q 749 872 763 892 q 557 597 593 647 q 388 364 457 456 l 256 183 q 313 176 294 178 q 413 171 356 171 l 492 172 q 564 174 515 174 q 708 179 603 174 l 794 182 q 815 174 811 182 q 820 154 819 165 q 821 139 821 143 l 818 38 l 818 29 q 815 13 818 15 q 799 8 813 10 l 771 6 q 694 -1 740 6 q 614 -4 675 -4 l 504 -3 q 438 -1 478 -1 l 97 -1 q 60 8 67 -1 q 53 28 53 17 q 54 44 54 40 l 57 99 q 61 167 61 139 q 71 192 61 178 q 99 225 81 206 l 121 250 q 227 392 158 300 q 313 514 296 485 q 381 612 329 544 q 444 697 432 679 l 461 719 q 511 810 482 750 l 536 864 q 524 865 528 864 l 496 868 l 349 869 q 310 868 324 869 l 264 867 q 239 868 244 867 q 140 871 226 871 l 82 871 q 68 875 71 872 q 66 882 65 878 q 67 889 67 886 q 63 943 67 904 q 69 960 61 957 q 88 963 76 964 q 104 963 99 963 z "},"Ž":{"ha":890,"x_min":53,"x_max":821,"o":"m 203 1143 q 225 1164 208 1164 q 263 1154 236 1164 l 300 1144 q 349 1119 324 1135 l 393 1099 q 456 1128 442 1119 q 536 1157 485 1142 q 589 1161 563 1161 q 613 1155 604 1161 q 622 1139 622 1149 q 611 1122 622 1129 l 575 1099 q 556 1090 571 1097 q 508 1058 542 1083 q 436 1022 453 1026 q 411 1017 424 1017 q 396 1015 406 1015 q 376 1019 385 1015 q 358 1027 367 1022 q 343 1036 350 1032 q 279 1078 303 1064 l 250 1096 q 214 1121 228 1110 q 203 1143 200 1132 m 104 963 q 181 965 125 963 q 279 968 247 968 l 426 965 l 513 963 l 594 963 q 733 965 714 963 l 743 967 q 758 962 756 967 q 761 951 761 957 q 761 944 761 946 q 762 917 761 943 q 749 872 763 892 q 557 597 593 647 q 388 364 457 456 l 256 183 q 313 176 294 178 q 413 171 356 171 l 492 172 q 564 174 515 174 q 708 179 603 174 l 794 182 q 815 174 811 182 q 820 154 819 165 q 821 139 821 143 l 818 38 l 818 29 q 815 13 818 15 q 799 8 813 10 l 771 6 q 694 -1 740 6 q 614 -4 675 -4 l 504 -3 q 438 -1 478 -1 l 97 -1 q 60 8 67 -1 q 53 28 53 17 q 54 44 54 40 l 57 99 q 61 167 61 139 q 71 192 61 178 q 99 225 81 206 l 121 250 q 227 392 158 300 q 313 514 296 485 q 381 612 329 544 q 444 697 432 679 l 461 719 q 511 810 482 750 l 536 864 q 524 865 528 864 l 496 868 l 349 869 q 310 868 324 869 l 264 867 q 239 868 244 867 q 140 871 226 871 l 82 871 q 68 875 71 872 q 66 882 65 878 q 67 889 67 886 q 63 943 67 904 q 69 960 61 957 q 88 963 76 964 q 104 963 99 963 z "},"Ż":{"ha":890,"x_min":53,"x_max":821,"o":"m 510 1092 q 480 1025 510 1050 q 418 1000 450 1000 q 360 1024 386 1000 q 333 1085 333 1049 q 357 1141 333 1115 q 413 1167 381 1167 q 480 1147 450 1167 q 510 1092 510 1126 m 104 963 q 181 965 125 963 q 279 968 247 968 l 426 965 l 513 963 l 594 963 q 733 965 714 963 l 743 967 q 758 962 756 967 q 761 951 761 957 q 761 944 761 946 q 762 917 761 943 q 749 872 763 892 q 557 597 593 647 q 388 364 457 456 l 256 183 q 313 176 294 178 q 413 171 356 171 l 492 172 q 564 174 515 174 q 708 179 603 174 l 794 182 q 815 174 811 182 q 820 154 819 165 q 821 139 821 143 l 818 38 l 818 29 q 815 13 818 15 q 799 8 813 10 l 771 6 q 694 -1 740 6 q 614 -4 675 -4 l 504 -3 q 438 -1 478 -1 l 97 -1 q 60 8 67 -1 q 53 28 53 17 q 54 44 54 40 l 57 99 q 61 167 61 139 q 71 192 61 178 q 99 225 81 206 l 121 250 q 227 392 158 300 q 313 514 296 485 q 381 612 329 544 q 444 697 432 679 l 461 719 q 511 810 482 750 l 536 864 q 524 865 528 864 l 496 868 l 349 869 q 310 868 324 869 l 264 867 q 239 868 244 867 q 140 871 226 871 l 82 871 q 68 875 71 872 q 66 882 65 878 q 67 889 67 886 q 63 943 67 904 q 69 960 61 957 q 88 963 76 964 q 104 963 99 963 z "},"Ẓ":{"ha":890,"x_min":53,"x_max":821,"o":"m 104 963 q 181 965 125 963 q 279 968 247 968 l 426 965 l 513 963 l 594 963 q 733 965 714 963 l 743 967 q 758 962 756 967 q 761 951 761 957 q 761 944 761 946 q 762 917 761 943 q 749 872 763 892 q 557 597 593 647 q 388 364 457 456 l 256 183 q 313 176 294 178 q 413 171 356 171 l 492 172 q 564 174 515 174 q 708 179 603 174 l 794 182 q 815 174 811 182 q 820 154 819 165 q 821 139 821 143 l 818 38 l 818 29 q 815 13 818 15 q 799 8 813 10 l 771 6 q 694 -1 740 6 q 614 -4 675 -4 l 504 -3 q 438 -1 478 -1 l 97 -1 q 60 8 67 -1 q 53 28 53 17 q 54 44 54 40 l 57 99 q 61 167 61 139 q 71 192 61 178 q 99 225 81 206 l 121 250 q 227 392 158 300 q 313 514 296 485 q 381 612 329 544 q 444 697 432 679 l 461 719 q 511 810 482 750 l 536 864 q 524 865 528 864 l 496 868 l 349 869 q 310 868 324 869 l 264 867 q 239 868 244 867 q 140 871 226 871 l 82 871 q 68 875 71 872 q 66 882 65 878 q 67 889 67 886 q 63 943 67 904 q 69 960 61 957 q 88 963 76 964 q 104 963 99 963 m 524 -106 q 494 -172 524 -147 q 432 -197 464 -197 q 374 -173 400 -197 q 347 -112 347 -149 q 371 -56 347 -82 q 426 -31 394 -31 q 494 -51 464 -31 q 524 -106 524 -71 z "},"a":{"ha":811,"x_min":29,"x_max":799,"o":"m 792 28 q 799 10 799 14 q 774 -1 799 -1 l 674 -1 q 663 8 668 -1 q 653 28 657 18 q 646 44 649 38 q 620 108 639 58 q 592 188 601 158 q 575 228 588 201 q 557 267 563 256 q 547 289 551 283 q 532 294 542 294 q 508 293 522 294 q 476 290 493 292 q 407 288 465 288 q 328 285 367 288 q 283 283 315 283 l 210 285 q 199 279 203 285 q 194 266 196 274 q 192 254 193 258 l 183 219 q 173 174 179 200 q 163 126 167 149 l 147 67 l 136 26 q 128 5 132 10 q 118 0 125 0 l 36 0 q 29 6 29 0 q 35 25 29 8 q 54 78 46 51 q 115 303 106 250 q 167 482 128 372 q 190 568 179 529 q 203 615 194 588 q 256 797 229 713 l 290 908 q 318 997 301 951 q 338 1007 326 1018 q 350 988 346 1001 q 356 968 354 974 q 429 801 360 951 q 489 653 457 744 q 565 479 503 613 q 607 389 597 414 q 726 153 629 340 l 743 118 q 792 28 775 47 m 428 486 q 444 488 438 488 q 456 489 451 488 q 460 493 460 490 q 456 504 460 496 q 424 574 449 517 q 389 661 399 632 q 367 717 375 694 q 356 747 360 739 q 349 761 353 754 q 343 772 346 768 q 338 776 340 776 q 328 756 333 776 q 321 724 324 735 q 285 601 296 643 q 269 551 279 581 q 254 510 258 521 q 250 488 250 496 q 263 479 250 479 q 352 481 292 479 q 428 486 413 483 z "},"á":{"ha":813,"x_min":29,"x_max":799,"o":"m 500 1126 q 473 1097 496 1111 q 432 1079 450 1083 q 314 1033 365 1058 q 294 1026 308 1032 q 269 1021 279 1021 q 240 1031 256 1021 q 213 1061 213 1040 q 215 1075 213 1064 q 243 1094 217 1082 q 285 1110 269 1106 q 315 1122 293 1115 q 369 1142 338 1128 l 400 1153 q 449 1163 429 1163 l 476 1165 q 501 1142 501 1165 q 500 1126 501 1132 m 792 28 q 799 10 799 14 q 774 -1 799 -1 l 674 -1 q 663 8 668 -1 q 653 28 657 18 q 646 44 649 38 q 620 108 639 58 q 592 188 601 158 q 575 228 588 201 q 557 267 563 256 q 547 289 551 283 q 532 294 542 294 q 508 293 522 294 q 476 290 493 292 q 407 288 465 288 q 328 285 367 288 q 283 283 315 283 l 210 285 q 199 279 203 285 q 194 266 196 274 q 192 254 193 258 l 183 219 q 173 174 179 200 q 163 126 167 149 l 147 67 l 136 26 q 128 5 132 10 q 118 0 125 0 l 36 0 q 29 6 29 0 q 35 25 29 8 q 54 78 46 51 q 115 303 106 250 q 167 482 128 372 q 190 568 179 529 q 203 615 194 588 q 256 797 229 713 l 290 908 q 318 997 301 951 q 338 1007 326 1018 q 350 988 346 1001 q 356 968 354 974 q 429 801 360 951 q 489 653 457 744 q 565 479 503 613 q 607 389 597 414 q 726 153 629 340 l 743 118 q 792 28 775 47 m 428 486 q 444 488 438 488 q 456 489 451 488 q 460 493 460 490 q 456 504 460 496 q 424 574 449 517 q 389 661 399 632 q 367 717 375 694 q 356 747 360 739 q 349 761 353 754 q 343 772 346 768 q 338 776 340 776 q 328 756 333 776 q 321 724 324 735 q 285 601 296 643 q 269 551 279 581 q 254 510 258 521 q 250 488 250 496 q 263 479 250 479 q 352 481 292 479 q 428 486 413 483 z "},"ă":{"ha":811,"x_min":29,"x_max":788,"o":"m 539 1156 q 533 1114 539 1138 q 510 1076 528 1090 q 456 1043 492 1063 q 322 1025 421 1025 q 183 1046 210 1032 q 146 1083 156 1060 q 125 1161 126 1128 q 134 1165 125 1164 q 165 1165 143 1165 q 200 1163 194 1165 q 206 1151 206 1161 q 228 1114 211 1125 q 319 1100 243 1104 q 404 1113 357 1100 q 456 1154 453 1126 q 493 1164 461 1163 q 539 1156 539 1163 m 781 26 q 788 10 788 15 q 763 -1 788 -1 l 664 -1 q 654 6 658 -1 q 646 24 650 14 q 638 42 642 33 q 609 109 625 68 q 583 178 593 150 q 576 194 581 186 q 569 208 572 201 q 560 226 565 215 q 550 251 556 238 q 540 273 546 268 q 525 278 535 278 l 469 275 q 401 272 458 272 q 324 269 363 272 q 279 268 311 268 l 207 269 q 197 264 200 269 q 192 251 193 258 q 189 240 190 243 q 176 185 188 232 q 161 119 164 138 l 146 63 l 135 25 q 127 5 131 10 q 117 0 124 0 l 36 0 q 29 6 29 0 q 35 24 29 7 q 54 74 47 51 q 87 181 67 113 q 114 286 107 250 q 165 456 126 353 q 200 582 186 536 l 253 754 l 272 815 l 286 858 q 314 943 296 893 q 333 951 322 963 q 346 933 342 947 q 351 915 350 919 q 424 758 357 892 q 482 617 456 696 q 563 444 500 567 l 599 368 q 660 249 626 313 q 717 144 694 185 l 740 100 q 781 26 768 43 m 422 460 q 442 462 432 461 q 453 465 451 463 q 450 476 454 468 q 421 538 443 488 q 383 625 399 588 q 364 674 372 649 q 351 707 356 700 q 342 725 347 715 q 333 735 338 735 q 324 715 329 735 q 317 685 319 696 q 293 608 313 674 l 281 568 q 251 482 274 539 q 247 463 247 469 q 260 453 247 453 q 347 455 289 453 q 422 460 406 457 z "},"â":{"ha":813,"x_min":29,"x_max":799,"o":"m 540 1038 q 518 1017 535 1017 q 481 1026 507 1017 l 443 1036 q 394 1061 419 1046 l 350 1082 l 286 1053 q 207 1024 260 1039 q 154 1019 179 1019 q 130 1026 139 1019 q 121 1042 121 1033 q 131 1058 121 1053 l 168 1082 q 187 1090 172 1083 q 235 1122 201 1097 q 307 1158 290 1154 q 332 1164 319 1164 q 347 1165 338 1165 q 367 1162 358 1165 q 385 1153 376 1158 q 400 1144 393 1149 q 464 1103 440 1118 l 493 1085 q 529 1060 515 1071 q 540 1038 543 1049 m 792 28 q 799 10 799 14 q 774 -1 799 -1 l 674 -1 q 663 8 668 -1 q 653 28 657 18 q 646 44 649 38 q 620 108 639 58 q 592 188 601 158 q 575 228 588 201 q 557 267 563 256 q 547 289 551 283 q 532 294 542 294 q 508 293 522 294 q 476 290 493 292 q 407 288 465 288 q 328 285 367 288 q 283 283 315 283 l 210 285 q 199 279 203 285 q 194 266 196 274 q 192 254 193 258 l 183 219 q 173 174 179 200 q 163 126 167 149 l 147 67 l 136 26 q 128 5 132 10 q 118 0 125 0 l 36 0 q 29 6 29 0 q 35 25 29 8 q 54 78 46 51 q 115 303 106 250 q 167 482 128 372 q 190 568 179 529 q 203 615 194 588 q 256 797 229 713 l 290 908 q 318 997 301 951 q 338 1007 326 1018 q 350 988 346 1001 q 356 968 354 974 q 429 801 360 951 q 489 653 457 744 q 565 479 503 613 q 607 389 597 414 q 726 153 629 340 l 743 118 q 792 28 775 47 m 428 486 q 444 488 438 488 q 456 489 451 488 q 460 493 460 490 q 456 504 460 496 q 424 574 449 517 q 389 661 399 632 q 367 717 375 694 q 356 747 360 739 q 349 761 353 754 q 343 772 346 768 q 338 776 340 776 q 328 756 333 776 q 321 724 324 735 q 285 601 296 643 q 269 551 279 581 q 254 510 258 521 q 250 488 250 496 q 263 479 250 479 q 352 481 292 479 q 428 486 413 483 z "},"ä":{"ha":813,"x_min":29,"x_max":799,"o":"m 406 1081 q 437 1149 406 1131 q 508 1167 468 1167 q 551 1141 535 1167 q 568 1081 568 1115 q 545 1028 568 1050 q 481 1006 522 1006 q 423 1028 440 1006 q 406 1081 406 1050 m 254 1086 q 226 1024 254 1047 q 168 1000 197 1000 q 113 1022 138 1000 q 88 1081 88 1044 q 109 1133 88 1110 q 163 1157 131 1157 q 226 1138 199 1157 q 254 1086 254 1119 m 792 28 q 799 10 799 14 q 774 -1 799 -1 l 674 -1 q 663 8 668 -1 q 653 28 657 18 q 646 44 649 38 q 620 108 639 58 q 592 188 601 158 q 575 228 588 201 q 557 267 563 256 q 547 289 551 283 q 532 294 542 294 q 508 293 522 294 q 476 290 493 292 q 407 288 465 288 q 328 285 367 288 q 283 283 315 283 l 210 285 q 199 279 203 285 q 194 266 196 274 q 192 254 193 258 l 183 219 q 173 174 179 200 q 163 126 167 149 l 147 67 l 136 26 q 128 5 132 10 q 118 0 125 0 l 36 0 q 29 6 29 0 q 35 25 29 8 q 54 78 46 51 q 115 303 106 250 q 167 482 128 372 q 190 568 179 529 q 203 615 194 588 q 256 797 229 713 l 290 908 q 318 997 301 951 q 338 1007 326 1018 q 350 988 346 1001 q 356 968 354 974 q 429 801 360 951 q 489 653 457 744 q 565 479 503 613 q 607 389 597 414 q 726 153 629 340 l 743 118 q 792 28 775 47 m 428 486 q 444 488 438 488 q 456 489 451 488 q 460 493 460 490 q 456 504 460 496 q 424 574 449 517 q 389 661 399 632 q 367 717 375 694 q 356 747 360 739 q 349 761 353 754 q 343 772 346 768 q 338 776 340 776 q 328 756 333 776 q 321 724 324 735 q 285 601 296 643 q 269 551 279 581 q 254 510 258 521 q 250 488 250 496 q 263 479 250 479 q 352 481 292 479 q 428 486 413 483 z "},"à":{"ha":813,"x_min":29,"x_max":799,"o":"m 471 1068 q 474 1050 474 1054 q 447 1028 474 1028 q 421 1031 440 1028 q 372 1036 406 1029 l 342 1047 q 287 1067 310 1061 q 256 1076 264 1072 q 213 1092 238 1082 q 186 1108 189 1101 q 182 1124 182 1117 q 208 1154 182 1143 q 239 1165 228 1165 q 262 1160 249 1165 q 282 1154 275 1156 q 344 1130 321 1138 q 401 1114 367 1122 q 424 1105 407 1111 q 454 1090 440 1099 q 471 1068 468 1081 m 792 28 q 799 10 799 14 q 774 -1 799 -1 l 674 -1 q 663 8 668 -1 q 653 28 657 18 q 646 44 649 38 q 620 108 639 58 q 592 188 601 158 q 575 228 588 201 q 557 267 563 256 q 547 289 551 283 q 532 294 542 294 q 508 293 522 294 q 476 290 493 292 q 407 288 465 288 q 328 285 367 288 q 283 283 315 283 l 210 285 q 199 279 203 285 q 194 266 196 274 q 192 254 193 258 l 183 219 q 173 174 179 200 q 163 126 167 149 l 147 67 l 136 26 q 128 5 132 10 q 118 0 125 0 l 36 0 q 29 6 29 0 q 35 25 29 8 q 54 78 46 51 q 115 303 106 250 q 167 482 128 372 q 190 568 179 529 q 203 615 194 588 q 256 797 229 713 l 290 908 q 318 997 301 951 q 338 1007 326 1018 q 350 988 346 1001 q 356 968 354 974 q 429 801 360 951 q 489 653 457 744 q 565 479 503 613 q 607 389 597 414 q 726 153 629 340 l 743 118 q 792 28 775 47 m 428 486 q 444 488 438 488 q 456 489 451 488 q 460 493 460 490 q 456 504 460 496 q 424 574 449 517 q 389 661 399 632 q 367 717 375 694 q 356 747 360 739 q 349 761 353 754 q 343 772 346 768 q 338 776 340 776 q 328 756 333 776 q 321 724 324 735 q 285 601 296 643 q 269 551 279 581 q 254 510 258 521 q 250 488 250 496 q 263 479 250 479 q 352 481 292 479 q 428 486 413 483 z "},"ā":{"ha":811,"x_min":29,"x_max":799,"o":"m 524 1156 q 536 1150 533 1156 q 539 1132 539 1144 l 539 1090 q 533 1076 539 1081 q 508 1072 528 1072 l 458 1074 q 392 1076 411 1076 l 208 1076 q 138 1072 144 1076 q 128 1076 131 1072 q 126 1090 126 1081 l 126 1128 q 130 1148 126 1142 q 142 1154 133 1154 l 514 1154 l 524 1156 m 792 28 q 799 10 799 14 q 774 -1 799 -1 l 674 -1 q 663 8 668 -1 q 653 28 657 18 q 646 44 649 38 q 620 108 639 58 q 592 188 601 158 q 575 228 588 201 q 557 267 563 256 q 547 289 551 283 q 532 294 542 294 q 508 293 522 294 q 476 290 493 292 q 407 288 465 288 q 328 285 367 288 q 283 283 315 283 l 210 285 q 199 279 203 285 q 194 266 196 274 q 192 254 193 258 l 183 219 q 173 174 179 200 q 163 126 167 149 l 147 67 l 136 26 q 128 5 132 10 q 118 0 125 0 l 36 0 q 29 6 29 0 q 35 25 29 8 q 54 78 46 51 q 115 303 106 250 q 167 482 128 372 q 190 568 179 529 q 203 615 194 588 q 256 797 229 713 l 290 908 q 318 997 301 951 q 338 1007 326 1018 q 350 988 346 1001 q 356 968 354 974 q 429 801 360 951 q 489 653 457 744 q 565 479 503 613 q 607 389 597 414 q 726 153 629 340 l 743 118 q 792 28 775 47 m 428 486 q 444 488 438 488 q 456 489 451 488 q 460 493 460 490 q 456 504 460 496 q 424 574 449 517 q 389 661 399 632 q 367 717 375 694 q 356 747 360 739 q 349 761 353 754 q 343 772 346 768 q 338 776 340 776 q 328 756 333 776 q 321 724 324 735 q 285 601 296 643 q 269 551 279 581 q 254 510 258 521 q 250 488 250 496 q 263 479 250 479 q 352 481 292 479 q 428 486 413 483 z "},"ą":{"ha":811,"x_min":29,"x_max":890,"o":"m 863 -103 q 881 -115 871 -103 q 890 -137 890 -128 q 864 -178 890 -156 q 801 -219 838 -201 q 740 -237 765 -236 q 657 -215 685 -239 q 626 -126 629 -192 q 639 -62 626 -100 q 658 -11 649 -36 l 665 3 q 655 23 661 8 q 646 44 649 38 q 620 108 639 58 q 592 188 601 158 q 575 228 588 201 q 557 267 563 256 q 547 289 551 283 q 532 294 542 294 q 508 293 522 294 q 476 290 493 292 q 407 288 465 288 q 328 285 367 288 q 283 283 315 283 l 210 285 q 199 279 203 285 q 194 266 196 274 q 192 254 193 258 l 183 219 q 173 174 179 200 q 163 126 167 149 l 147 67 l 136 26 q 128 5 132 10 q 118 0 125 0 l 36 0 q 29 6 29 0 q 35 25 29 8 q 54 78 46 51 q 115 303 106 250 q 167 482 128 372 q 190 568 179 529 q 203 615 194 588 q 256 797 229 713 l 290 908 q 318 997 301 951 q 338 1007 326 1018 q 350 988 346 1001 q 356 968 354 974 q 429 801 360 951 q 489 653 457 744 q 565 479 503 613 q 607 389 597 414 q 726 153 629 340 l 743 118 q 792 28 775 47 q 799 10 799 14 q 774 -1 799 -1 l 733 -1 l 726 -53 q 725 -78 725 -61 q 753 -135 725 -133 q 814 -130 793 -137 q 847 -112 835 -122 q 863 -103 860 -103 m 428 486 q 444 488 438 488 q 456 489 451 488 q 460 493 460 490 q 456 504 460 496 q 424 574 449 517 q 389 661 399 632 q 367 717 375 694 q 356 747 360 739 q 349 761 353 754 q 343 772 346 768 q 338 776 340 776 q 328 756 333 776 q 321 724 324 735 q 285 601 296 643 q 269 551 279 581 q 254 510 258 521 q 250 488 250 496 q 263 479 250 479 q 352 481 292 479 q 428 486 413 483 z "},"å":{"ha":813,"x_min":29,"x_max":799,"o":"m 375 974 q 324 967 360 967 q 256 995 286 967 q 226 1061 226 1024 q 240 1114 228 1088 q 272 1152 250 1138 q 326 1167 293 1167 q 413 1132 390 1167 q 435 1067 435 1097 q 420 1019 435 1049 q 375 974 406 989 m 333 1097 q 305 1088 315 1097 q 294 1067 294 1079 q 305 1045 294 1054 q 329 1036 315 1036 l 344 1038 q 357 1044 346 1039 q 368 1067 368 1050 q 358 1088 368 1078 q 333 1097 349 1097 m 792 28 q 799 10 799 14 q 774 -1 799 -1 l 674 -1 q 663 8 668 -1 q 653 28 657 18 q 646 44 649 38 q 620 108 639 58 q 592 188 601 158 q 575 228 588 201 q 557 267 563 256 q 547 289 551 283 q 532 294 542 294 q 508 293 522 294 q 476 290 493 292 q 407 288 465 288 q 328 285 367 288 q 283 283 315 283 l 210 285 q 199 279 203 285 q 194 266 196 274 q 192 254 193 258 l 183 219 q 173 174 179 200 q 163 126 167 149 l 147 67 l 136 26 q 128 5 132 10 q 118 0 125 0 l 36 0 q 29 6 29 0 q 35 25 29 8 q 54 78 46 51 l 83 182 q 101 222 94 217 q 115 253 111 231 q 151 365 125 304 l 167 404 q 190 490 179 451 q 203 538 194 510 q 256 719 229 635 l 290 831 q 318 919 301 874 q 338 929 326 940 q 347 914 340 926 q 374 890 354 901 q 447 724 378 874 q 507 575 475 667 q 563 447 528 522 q 600 383 581 410 q 625 339 617 357 q 644 306 635 318 q 669 261 654 293 l 726 153 l 743 118 q 792 28 775 47 m 428 408 q 444 410 438 410 q 456 411 451 410 q 460 415 460 413 q 456 426 460 418 q 424 497 449 439 q 389 583 399 554 q 367 639 375 617 q 356 669 360 661 q 349 683 353 676 q 343 694 346 690 q 338 699 340 699 q 328 678 333 699 q 321 646 324 657 q 285 524 296 565 q 269 473 279 503 q 254 432 258 443 q 250 410 250 418 q 263 401 250 401 q 352 403 292 401 q 428 408 413 406 z "},"ǻ":{"ha":811,"x_min":29,"x_max":799,"o":"m 792 28 q 799 10 799 14 q 774 -1 799 -1 l 674 -1 q 663 8 668 -1 q 653 28 657 18 q 646 44 649 38 q 620 108 639 58 q 592 188 601 158 q 575 228 588 201 q 557 267 563 256 q 547 289 551 283 q 532 294 542 294 q 508 293 522 294 q 476 290 493 292 q 407 288 465 288 q 328 285 367 288 q 283 283 315 283 l 210 285 q 199 279 203 285 q 194 266 196 274 q 192 254 193 258 l 183 219 q 173 174 179 200 q 163 126 167 149 l 147 67 l 136 26 q 128 5 132 10 q 118 0 125 0 l 36 0 q 29 6 29 0 q 35 25 29 8 q 54 78 46 51 q 115 303 106 250 q 167 482 128 372 q 190 568 179 529 q 203 615 194 588 q 256 797 229 713 l 290 908 q 308 968 297 938 q 251 1001 275 975 q 228 1061 228 1028 q 231 1082 228 1068 q 210 1078 218 1078 q 181 1088 196 1078 q 153 1118 153 1097 q 156 1132 153 1121 q 183 1151 157 1139 q 225 1167 210 1163 q 256 1178 233 1172 q 310 1199 278 1185 l 340 1210 q 389 1219 369 1219 l 417 1222 q 442 1199 442 1222 q 440 1183 442 1189 q 399 1146 436 1165 q 428 1106 421 1129 q 436 1067 436 1083 q 422 1019 436 1049 q 376 974 407 989 q 356 968 369 971 q 429 801 360 951 q 489 653 457 744 q 565 479 503 613 q 607 389 597 414 q 726 153 629 340 l 743 118 q 792 28 775 47 m 296 1067 q 306 1045 296 1054 q 331 1036 317 1036 l 346 1038 q 358 1044 347 1039 q 369 1067 369 1050 q 360 1088 369 1078 q 335 1097 350 1097 q 306 1088 317 1097 q 296 1067 296 1079 m 428 486 q 444 488 438 488 q 456 489 451 488 q 460 493 460 490 q 456 504 460 496 q 424 574 449 517 q 389 661 399 632 q 367 717 375 694 q 356 747 360 739 q 349 761 353 754 q 343 772 346 768 q 338 776 340 776 q 328 756 333 776 q 321 724 324 735 q 285 601 296 643 q 269 551 279 581 q 254 510 258 521 q 250 488 250 496 q 263 479 250 479 q 352 481 292 479 q 428 486 413 483 z "},"ã":{"ha":813,"x_min":29,"x_max":799,"o":"m 204 1131 q 265 1136 236 1131 q 304 1143 294 1142 q 469 1154 367 1154 q 558 1149 524 1154 q 592 1140 586 1147 q 599 1126 599 1133 q 599 1114 599 1118 l 599 1093 q 567 1071 599 1071 q 544 1074 557 1071 q 526 1078 532 1076 q 475 1088 497 1088 q 417 1083 444 1086 q 379 1079 389 1081 q 329 1072 350 1074 q 285 1067 300 1069 q 204 1061 238 1061 q 113 1093 113 1061 l 113 1111 q 115 1143 113 1133 q 125 1150 117 1150 q 156 1142 131 1150 q 204 1131 181 1135 m 792 28 q 799 10 799 14 q 774 -1 799 -1 l 674 -1 q 663 8 668 -1 q 653 28 657 18 q 646 44 649 38 q 620 108 639 58 q 592 188 601 158 q 575 228 588 201 q 557 267 563 256 q 547 289 551 283 q 532 294 542 294 q 508 293 522 294 q 476 290 493 292 q 407 288 465 288 q 328 285 367 288 q 283 283 315 283 l 210 285 q 199 279 203 285 q 194 266 196 274 q 192 254 193 258 l 183 219 q 173 174 179 200 q 163 126 167 149 l 147 67 l 136 26 q 128 5 132 10 q 118 0 125 0 l 36 0 q 29 6 29 0 q 35 25 29 8 q 54 78 46 51 q 115 303 106 250 q 167 482 128 372 q 190 568 179 529 q 203 615 194 588 q 256 797 229 713 l 290 908 q 318 997 301 951 q 338 1007 326 1018 q 350 988 346 1001 q 356 968 354 974 q 429 801 360 951 q 489 653 457 744 q 565 479 503 613 q 607 389 597 414 q 726 153 629 340 l 743 118 q 792 28 775 47 m 428 486 q 444 488 438 488 q 456 489 451 488 q 460 493 460 490 q 456 504 460 496 q 424 574 449 517 q 389 661 399 632 q 367 717 375 694 q 356 747 360 739 q 349 761 353 754 q 343 772 346 768 q 338 776 340 776 q 328 756 333 776 q 321 724 324 735 q 285 601 296 643 q 269 551 279 581 q 254 510 258 521 q 250 488 250 496 q 263 479 250 479 q 352 481 292 479 q 428 486 413 483 z "}}}
